<svg width="64" height="64" viewBox="0 0 64 64" fill="none" xmlns="http://www.w3.org/2000/svg">
<g id="Group 1948758180">
<rect id="Rectangle 3552" width="64" height="64" rx="32" fill="#CAD5FD"/>
<g id="checkbox-multiple-blank">
<path id="Vector" d="M42 36C42 36.5304 41.7893 37.0391 41.4142 37.4142C41.0391 37.7893 40.5304 38 40 38H28C26.89 38 26 37.1 26 36V24C26 22.89 26.89 22 28 22H40C40.5304 22 41.0391 22.2107 41.4142 22.5858C41.7893 22.9609 42 23.4696 42 24V36ZM36 40V42H24C23.4696 42 22.9609 41.7893 22.5858 41.4142C22.2107 41.0391 22 40.5304 22 40V27H24V40H36Z" fill="#070606"/>
</g>
</g>
</svg>
