<svg width="208" height="60" viewBox="0 0 208 60" fill="none" xmlns="http://www.w3.org/2000/svg">
<g id="googleplay">
<path id="path14" d="M199.725 60H7.68174C3.4587 60 0 56.6231 0 52.5L0 7.50001C0 3.37689 3.4587 1.26193e-05 7.68174 1.26193e-05H199.725C203.948 1.26193e-05 207.407 3.37689 207.407 7.50001V52.5C207.407 56.6231 203.948 60 199.725 60Z" fill="black"/>
<path id="path16" d="M199.725 1.20188C203.282 1.20188 206.176 4.02751 206.176 7.50001V52.5C206.176 55.9725 203.282 58.7981 199.725 58.7981H7.68174C4.12509 58.7981 1.231 55.9725 1.231 52.5V7.50001C1.231 4.02751 4.12509 1.20188 7.68174 1.20188H199.725ZM199.725 1.26193e-05H7.68174C3.4587 1.26193e-05 0 3.37689 0 7.50001L0 52.5C0 56.6231 3.4587 60 7.68174 60H199.725C203.948 60 207.407 56.6231 207.407 52.5V7.50001C207.407 3.37689 203.948 1.26193e-05 199.725 1.26193e-05Z" fill="#A6A6A6"/>
<path id="DISPONIBLE EN" d="M64.1714 17.3679V8.28398H67.3006C68.007 8.28398 68.5461 8.32736 68.9179 8.41411C69.4384 8.5339 69.8824 8.75078 70.2501 9.06473C70.7293 9.46956 71.0866 9.98799 71.3221 10.62C71.5617 11.2479 71.6815 11.9667 71.6815 12.7764C71.6815 13.4662 71.6009 14.0776 71.4398 14.6105C71.2787 15.1434 71.0722 15.5854 70.8202 15.9365C70.5682 16.2835 70.2914 16.5583 69.9898 16.7607C69.6924 16.959 69.331 17.1097 68.9055 17.213C68.4841 17.3163 67.9987 17.3679 67.4493 17.3679H64.1714ZM65.3735 16.2959H67.313C67.912 16.2959 68.3808 16.2402 68.7196 16.1286C69.0624 16.0171 69.3351 15.8601 69.5375 15.6577C69.8225 15.3727 70.0435 14.9906 70.2005 14.5114C70.3616 14.0281 70.4422 13.4435 70.4422 12.7578C70.4422 11.8077 70.2852 11.0786 69.9713 10.5705C69.6614 10.0582 69.2835 9.71535 68.8373 9.54185C68.5151 9.41792 67.9967 9.35596 67.282 9.35596H65.3735V16.2959ZM73.5466 17.3679V8.28398H74.7487V17.3679H73.5466ZM76.4651 14.4494L77.599 14.3503C77.6527 14.8047 77.7767 15.1785 77.9708 15.4718C78.1691 15.761 78.4748 15.9964 78.8879 16.1782C79.301 16.3558 79.7657 16.4447 80.2821 16.4447C80.7406 16.4447 81.1455 16.3765 81.4966 16.2402C81.8477 16.1039 82.108 15.918 82.2773 15.6825C82.4508 15.4429 82.5376 15.1827 82.5376 14.9017C82.5376 14.6167 82.455 14.3689 82.2897 14.1582C82.1245 13.9434 81.8518 13.7637 81.4718 13.6191C81.2281 13.5241 80.689 13.3774 79.8545 13.1791C79.0201 12.9767 78.4356 12.7867 78.1009 12.6091C77.6672 12.3819 77.3429 12.101 77.1281 11.7664C76.9174 11.4276 76.8121 11.0496 76.8121 10.6324C76.8121 10.1739 76.9422 9.74633 77.2025 9.34976C77.4627 8.94906 77.8428 8.64544 78.3426 8.43889C78.8425 8.23234 79.3981 8.12907 80.0094 8.12907C80.6828 8.12907 81.2756 8.23854 81.7878 8.45748C82.3042 8.67229 82.7008 8.99037 82.9775 9.41173C83.2543 9.83308 83.403 10.3102 83.4237 10.8431L82.2711 10.9298C82.2092 10.3556 81.9985 9.9219 81.6391 9.6286C81.2838 9.33531 80.7571 9.18866 80.059 9.18866C79.332 9.18866 78.8011 9.32291 78.4665 9.59142C78.1361 9.8558 77.9708 10.176 77.9708 10.5519C77.9708 10.8782 78.0886 11.1467 78.324 11.3574C78.5554 11.5681 79.1585 11.785 80.1334 12.008C81.1124 12.227 81.7837 12.4191 82.1472 12.5843C82.676 12.828 83.0663 13.1378 83.3183 13.5138C83.5703 13.8855 83.6963 14.3152 83.6963 14.8026C83.6963 15.2859 83.5579 15.7424 83.2811 16.172C83.0044 16.5975 82.6057 16.93 82.0852 17.1696C81.5689 17.4051 80.9864 17.5228 80.3379 17.5228C79.5158 17.5228 78.8259 17.403 78.2683 17.1634C77.7147 16.9238 77.2789 16.5645 76.9608 16.0853C76.6469 15.6019 76.4816 15.0567 76.4651 14.4494ZM85.3384 17.3679V8.28398H88.765C89.3681 8.28398 89.8287 8.3129 90.1468 8.37073C90.5929 8.44509 90.9668 8.58761 91.2683 8.79828C91.5699 9.00483 91.8115 9.29606 91.9933 9.67198C92.1792 10.0479 92.2721 10.461 92.2721 10.9113C92.2721 11.6837 92.0263 12.3385 91.5348 12.8755C91.0432 13.4084 90.155 13.6749 88.8703 13.6749H86.5405V17.3679H85.3384ZM86.5405 12.6029H88.8889C89.6655 12.6029 90.217 12.4583 90.5433 12.1691C90.8697 11.88 91.0329 11.4731 91.0329 10.9484C91.0329 10.5684 90.9358 10.2441 90.7416 9.9756C90.5516 9.70296 90.2996 9.52326 89.9857 9.43651C89.7832 9.38281 89.4094 9.35596 88.8641 9.35596H86.5405V12.6029ZM93.4371 12.9437C93.4371 11.4359 93.8419 10.2565 94.6516 9.40553C95.4612 8.55043 96.5064 8.12287 97.7869 8.12287C98.6255 8.12287 99.3815 8.32322 100.055 8.72393C100.728 9.12463 101.24 9.68437 101.592 10.4032C101.947 11.1178 102.124 11.9295 102.124 12.8383C102.124 13.7595 101.939 14.5837 101.567 15.3107C101.195 16.0378 100.668 16.5892 99.9867 16.9652C99.3051 17.3369 98.5698 17.5228 97.7808 17.5228C96.9256 17.5228 96.1614 17.3163 95.4881 16.9032C94.8147 16.4901 94.3046 15.9262 93.9576 15.2116C93.6106 14.4969 93.4371 13.741 93.4371 12.9437ZM94.6763 12.9623C94.6763 14.057 94.9696 14.9203 95.5562 15.5524C96.147 16.1803 96.8864 16.4942 97.7746 16.4942C98.6792 16.4942 99.4228 16.1761 100.005 15.54C100.592 14.9038 100.885 14.0012 100.885 12.8321C100.885 12.0927 100.759 11.4483 100.507 10.8989C100.259 10.3453 99.8937 9.91777 99.4104 9.61621C98.9312 9.31052 98.3921 9.15767 97.7931 9.15767C96.9422 9.15767 96.2089 9.45097 95.5934 10.0376C94.982 10.62 94.6763 11.5949 94.6763 12.9623ZM103.667 17.3679V8.28398H104.9L109.672 15.4161V8.28398H110.824V17.3679H109.591L104.82 10.2297V17.3679H103.667ZM113.055 17.3679V8.28398H114.257V17.3679H113.055ZM116.333 17.3679V8.28398H119.741C120.435 8.28398 120.99 8.37693 121.408 8.56282C121.829 8.74458 122.157 9.02755 122.393 9.41173C122.632 9.79177 122.752 10.1904 122.752 10.6076C122.752 10.9959 122.647 11.3615 122.436 11.7044C122.226 12.0473 121.908 12.324 121.482 12.5347C122.031 12.6958 122.453 12.9705 122.746 13.3588C123.044 13.7472 123.192 14.2057 123.192 14.7344C123.192 15.1599 123.101 15.5565 122.92 15.9242C122.742 16.2877 122.521 16.5686 122.257 16.7669C121.992 16.9652 121.66 17.1159 121.259 17.2192C120.862 17.3183 120.375 17.3679 119.797 17.3679H116.333ZM117.535 12.101H119.499C120.032 12.101 120.414 12.0659 120.646 11.9956C120.951 11.9048 121.18 11.754 121.333 11.5433C121.49 11.3326 121.569 11.0682 121.569 10.7502C121.569 10.4486 121.496 10.1842 121.352 9.95701C121.207 9.72568 121.001 9.5687 120.732 9.48608C120.464 9.39933 120.003 9.35596 119.35 9.35596H117.535V12.101ZM117.535 16.2959H119.797C120.185 16.2959 120.458 16.2815 120.615 16.2526C120.891 16.203 121.123 16.1204 121.309 16.0047C121.494 15.889 121.647 15.7217 121.767 15.5028C121.887 15.2797 121.947 15.0236 121.947 14.7344C121.947 14.3957 121.86 14.1024 121.687 13.8546C121.513 13.6026 121.271 13.427 120.962 13.3279C120.656 13.2246 120.214 13.1729 119.635 13.1729H117.535V16.2959ZM124.797 17.3679V8.28398H125.999V16.2959H130.473V17.3679H124.797ZM131.935 17.3679V8.28398H138.504V9.35596H133.137V12.1381H138.163V13.2039H133.137V16.2959H138.714V17.3679H131.935ZM143.932 17.3679V8.28398H150.5V9.35596H145.134V12.1381H150.159V13.2039H145.134V16.2959H150.71V17.3679H143.932ZM152.359 17.3679V8.28398H153.592L158.363 15.4161V8.28398H159.516V17.3679H158.283L153.511 10.2297V17.3679H152.359Z" fill="white"/>
<path id="path46" d="M104.679 32.6314C101.071 32.6314 98.1227 35.3127 98.1227 39.012C98.1227 42.6814 101.071 45.3908 104.679 45.3908C108.295 45.3908 111.243 42.6814 111.243 39.012C111.243 35.3127 108.295 32.6314 104.679 32.6314ZM104.679 42.8783C102.699 42.8783 100.996 41.2827 100.996 39.012C100.996 36.7114 102.699 35.1439 104.679 35.1439C106.659 35.1439 108.37 36.7114 108.37 39.012C108.37 41.2827 106.659 42.8783 104.679 42.8783ZM90.3738 32.6314C86.7576 32.6314 83.8174 35.3127 83.8174 39.012C83.8174 42.6814 86.7576 45.3908 90.3738 45.3908C93.988 45.3908 96.9301 42.6814 96.9301 39.012C96.9301 35.3127 93.988 32.6314 90.3738 32.6314ZM90.3738 42.8783C88.3919 42.8783 86.6827 41.2827 86.6827 39.012C86.6827 36.7114 88.3919 35.1439 90.3738 35.1439C92.3537 35.1439 94.0571 36.7114 94.0571 39.012C94.0571 41.2827 92.3537 42.8783 90.3738 42.8783ZM73.351 34.587V37.2983H79.9823C79.7883 38.8133 79.2698 39.927 78.4748 40.7033C77.5069 41.6408 75.9993 42.6814 73.351 42.6814C69.2701 42.6814 66.0745 39.4658 66.0745 35.4814C66.0745 31.497 69.2701 28.2814 73.351 28.2814C75.5576 28.2814 77.1631 29.1233 78.348 30.2145L80.3049 28.3039C78.6476 26.7589 76.4429 25.572 73.351 25.572C67.7549 25.572 63.0518 30.0177 63.0518 35.4814C63.0518 40.9452 67.7549 45.3908 73.351 45.3908C76.3757 45.3908 78.6476 44.4233 80.4336 42.6083C82.2638 40.8214 82.8341 38.3089 82.8341 36.2802C82.8341 35.6502 82.7804 35.0708 82.6843 34.587H73.351ZM142.959 36.6889C142.419 35.262 140.754 32.6314 137.363 32.6314C134.002 32.6314 131.204 35.217 131.204 39.012C131.204 42.5858 133.973 45.3908 137.686 45.3908C140.687 45.3908 142.419 43.6039 143.132 42.5633L140.904 41.1139C140.161 42.1752 139.149 42.8783 137.686 42.8783C136.232 42.8783 135.189 42.2277 134.521 40.9452L143.261 37.4145L142.959 36.6889ZM134.048 38.8133C133.973 36.3533 136.005 35.0933 137.461 35.0933C138.602 35.0933 139.569 35.6502 139.892 36.447L134.048 38.8133ZM126.945 45.0026H129.818V26.2527H126.945V45.0026ZM122.24 34.0527H122.143C121.498 33.3064 120.267 32.6314 118.708 32.6314C115.435 32.6314 112.443 35.4364 112.443 39.0327C112.443 42.6083 115.435 45.3908 118.708 45.3908C120.267 45.3908 121.498 44.7101 122.143 43.9414H122.24V44.8564C122.24 47.2958 120.905 48.6064 118.752 48.6064C116.997 48.6064 115.908 47.3689 115.458 46.3283L112.96 47.3464C113.68 49.0376 115.587 51.1189 118.752 51.1189C122.12 51.1189 124.963 49.1839 124.963 44.4758V33.0195H122.24V34.0527ZM118.954 42.8783C116.974 42.8783 115.316 41.2601 115.316 39.0327C115.316 36.7845 116.974 35.1439 118.954 35.1439C120.905 35.1439 122.443 36.7845 122.443 39.0327C122.443 41.2601 120.905 42.8783 118.954 42.8783ZM156.41 26.2527H149.538V45.0026H152.404V37.8983H156.41C159.592 37.8983 162.713 35.6502 162.713 32.0745C162.713 28.5008 159.584 26.2527 156.41 26.2527ZM156.485 35.2902H152.404V28.8608H156.485C158.624 28.8608 159.845 30.5952 159.845 32.0745C159.845 33.5258 158.624 35.2902 156.485 35.2902ZM174.197 32.5958C172.127 32.5958 169.974 33.4883 169.088 35.4664L171.631 36.507C172.178 35.4664 173.185 35.1289 174.249 35.1289C175.735 35.1289 177.243 36.0008 177.266 37.5402V37.737C176.747 37.4445 175.637 37.0114 174.272 37.0114C171.533 37.0114 168.743 38.4833 168.743 41.2302C168.743 43.7427 170.986 45.3608 173.507 45.3608C175.435 45.3608 176.499 44.5114 177.168 43.5233H177.266V44.9726H180.033V37.7802C180.033 34.4558 177.49 32.5958 174.197 32.5958ZM173.851 42.8708C172.914 42.8708 171.608 42.417 171.608 41.2827C171.608 39.8314 173.237 39.2745 174.646 39.2745C175.908 39.2745 176.499 39.5464 177.266 39.9045C177.041 41.6408 175.51 42.8708 173.851 42.8708ZM190.115 33.0064L186.822 41.1345H186.724L183.319 33.0064H180.229L185.345 44.3651L182.426 50.6858H185.42L193.303 33.0064H190.115ZM164.287 45.0026H167.16V26.2527H164.287V45.0026Z" fill="white"/>
<g id="g48">
<path id="path64" d="M16.0318 11.308C15.5805 11.7693 15.3193 12.4874 15.3193 13.4174V46.5899C15.3193 47.5199 15.5805 48.238 16.0318 48.6993L16.1432 48.8005L35.1824 30.2193V29.7805L16.1432 11.1993L16.0318 11.308Z" fill="url(#paint0_linear_143_833)"/>
</g>
<g id="g66">
<path id="path78" d="M41.522 36.4133L35.1826 30.2165V29.7777L41.5297 23.5808L41.6718 23.6615L49.1883 27.8371C51.3335 29.0221 51.3335 30.9721 49.1883 32.1646L41.6718 36.3327L41.522 36.4133Z" fill="url(#paint1_linear_143_833)"/>
</g>
<g id="g80">
<path id="path88" d="M41.671 36.3357L35.1818 30.0001L16.0312 48.6995C16.7437 49.4307 17.9056 49.5188 19.2269 48.7876L41.671 36.3357Z" fill="url(#paint2_linear_143_833)"/>
</g>
<g id="g90">
<path id="path104" d="M41.671 23.6671L19.2269 11.2152C17.9056 10.4914 16.7437 10.5796 16.0312 11.3108L35.1818 30.0027L41.671 23.6671Z" fill="url(#paint3_linear_143_833)"/>
</g>
</g>
<defs>
<linearGradient id="paint0_linear_143_833" x1="33.4919" y1="46.9354" x2="8.32554" y2="21.1592" gradientUnits="userSpaceOnUse">
<stop stop-color="#00A0FF"/>
<stop offset="0.0066" stop-color="#00A1FF"/>
<stop offset="0.2601" stop-color="#00BEFF"/>
<stop offset="0.5122" stop-color="#00D2FF"/>
<stop offset="0.7604" stop-color="#00DFFF"/>
<stop offset="1" stop-color="#00E3FF"/>
</linearGradient>
<linearGradient id="paint1_linear_143_833" x1="51.9816" y1="29.995" x2="14.8068" y2="29.995" gradientUnits="userSpaceOnUse">
<stop stop-color="#FFE000"/>
<stop offset="0.4087" stop-color="#FFBD00"/>
<stop offset="0.7754" stop-color="#FFA500"/>
<stop offset="1" stop-color="#FF9C00"/>
</linearGradient>
<linearGradient id="paint2_linear_143_833" x1="38.1424" y1="26.5559" x2="4.01469" y2="-8.39869" gradientUnits="userSpaceOnUse">
<stop stop-color="#FF3A44"/>
<stop offset="1" stop-color="#C31162"/>
</linearGradient>
<linearGradient id="paint3_linear_143_833" x1="11.2107" y1="59.7384" x2="26.4502" y2="44.1297" gradientUnits="userSpaceOnUse">
<stop stop-color="#32A071"/>
<stop offset="0.0685" stop-color="#2DA771"/>
<stop offset="0.4762" stop-color="#15CF74"/>
<stop offset="0.8009" stop-color="#06E775"/>
<stop offset="1" stop-color="#00F076"/>
</linearGradient>
</defs>
</svg>
