<svg width="1200" height="209" viewBox="0 0 1200 209" fill="none" xmlns="http://www.w3.org/2000/svg">
<g id="Group 1940685971" opacity="0.05">
<path id="Union" d="M729.91 0.0107422C740.982 0.0107618 751.627 1.75672 761.655 4.97168H761.634C803.514 18.4065 833.939 58.2851 833.939 104.04C833.939 149.795 804.238 188.758 763.061 202.64C752.649 206.153 741.493 208.069 729.91 208.069C718.328 208.069 707.171 206.153 696.76 202.64C655.604 188.779 625.881 150.327 625.881 104.04C625.881 57.753 656.285 18.4066 698.186 4.97168C708.192 1.7567 718.839 0.0107422 729.91 0.0107422ZM1095.97 0.0107422C1107.04 0.0107506 1117.69 1.75676 1127.69 4.97168C1146.07 10.8689 1162.25 21.7473 1174.64 36.0322V4.97656H1200V103.714C1200 103.815 1200 103.917 1200 104.019C1200 104.12 1200 104.221 1200 104.322V202.666H1174.64V172.046C1162.59 185.948 1146.92 196.657 1129.12 202.64C1118.71 206.153 1107.55 208.069 1095.97 208.069C1084.39 208.069 1073.23 206.153 1062.82 202.64C1021.66 188.779 991.942 150.327 991.941 104.04C991.941 57.7528 1022.35 18.4065 1064.25 4.97168C1074.25 1.75677 1084.9 0.0107422 1095.97 0.0107422ZM250.938 20.042C281.002 -1.93059 321.222 -6.38034 355.564 9.39648C361.696 12.1856 367.658 15.635 373.321 19.7441C374.62 20.7021 375.919 21.6598 377.175 22.6816L377.164 22.6953C377.168 22.6986 377.173 22.7018 377.177 22.7051L364.285 40.458L362.292 43.207L362.29 43.2051L270.244 169.964C304.926 192.03 351.373 183.532 375.833 149.854C391.376 128.457 394.505 101.737 386.585 78.4229L403.831 54.7891C416.819 79.1462 419.714 108.102 411.368 134.78C408.089 145.234 403.107 155.348 396.315 164.716C389.524 174.063 381.454 181.94 372.49 188.285C337.168 213.409 288.305 214.559 251.344 187.711C213.978 160.565 200.053 112.957 213.765 71.2686C217.043 61.3044 221.876 51.702 228.349 42.7598C234.842 33.8175 242.465 26.259 250.938 20.042ZM93.5752 147.734L93.5762 147.737L93.5781 147.734L159.24 4.97656H187.153L107.545 178.074V178.096L96.2393 202.666H90.9131L79.6289 178.096L0 4.97656H27.8916L93.5752 147.734ZM521.018 77.0264L521.019 77.0283L521.021 77.0264L573.59 4.97656H604.994L536.692 98.5303L536.69 98.5322L612.719 202.666H581.293L521.019 120.036L460.703 202.666H429.299L505.307 98.5322L505.305 98.5303L437.003 4.97656H468.407L521.018 77.0264ZM971.031 30.334H958.619C929.62 30.334 906.051 53.9251 906.051 82.9238V202.666H880.693V82.9238C880.693 39.9368 915.653 4.97656 958.619 4.97656H971.031V30.334ZM729.91 25.3682C686.54 25.3682 651.238 60.6698 651.238 104.04C651.238 147.41 686.54 182.711 729.91 182.711C773.28 182.711 808.581 147.41 808.581 104.04C808.581 60.6698 773.28 25.3683 729.91 25.3682ZM1095.97 25.3682C1052.58 25.3682 1017.3 60.6698 1017.3 104.04C1017.3 147.41 1052.58 182.711 1095.97 182.711C1139.23 182.711 1174.46 147.593 1174.64 104.378V103.701C1174.46 60.4859 1139.25 25.3682 1095.97 25.3682ZM340.319 30.3896C307.999 18.062 270.101 28.3243 248.831 57.6211C227.561 86.9178 229.562 126.137 251.258 153.027C251.26 153.03 251.262 153.032 251.264 153.034L340.322 30.3906C340.321 30.3903 340.32 30.39 340.319 30.3896Z" fill="white"/>
</g>
</svg>
