<svg width="148" height="163" viewBox="0 0 148 163" fill="none" xmlns="http://www.w3.org/2000/svg">
<g id="Group 5">
<path id="Vector" d="M90.1781 124.154C76.8741 124.154 63.6923 119.545 53.1993 110.763L50.8772 108.807L51.401 105.822C54.9801 85.6735 69.1047 68.8428 88.2576 61.859C107.41 54.8928 129.06 58.6989 144.738 71.8283L147.06 73.7663L146.537 76.7518C142.958 96.8999 128.833 113.731 109.68 120.714C103.342 123.019 96.7428 124.136 90.1781 124.136V124.154ZM62.3654 104.617C74.9536 113.8 91.4352 116.227 106.118 110.867C120.802 105.525 131.871 93.0763 135.59 77.9391C123.002 68.7555 106.537 66.3286 91.8542 71.6886C77.1709 77.0312 66.1017 89.4796 62.3829 104.599L62.3654 104.617Z" fill="#BA1819"/>
<path id="Vector_2" d="M39.5975 80.035C33.0153 80.035 26.4681 78.0621 20.9335 74.2035C11.4182 67.569 6.09309 56.2379 7.07081 44.6275L7.31524 41.607L10.0564 40.315C20.6018 35.3741 33.0677 36.4391 42.6005 43.0736C52.1158 49.7081 57.4409 61.0392 56.4632 72.6497L56.2187 75.6701L53.4776 76.9621C49.0779 79.0223 44.329 80.035 39.5975 80.035ZM17.4766 48.678C17.8781 55.4173 21.3351 61.7027 26.922 65.5961C32.5265 69.4895 39.6149 70.5546 46.0749 68.5991C45.6733 61.8598 42.2164 55.5745 36.6294 51.6811C31.0424 47.7876 23.9365 46.7226 17.4766 48.678Z" fill="#BA1819"/>
<path id="Vector_3" d="M99.2037 4.55688C94.8913 2.95062 90.3868 1.74593 85.7252 0.99518C81.8143 0.331727 77.7986 0 73.6957 0C33.0679 0 0 33.0679 0 73.6957C0 111.338 28.3539 142.468 64.8089 146.868C61.5964 142.939 58.6982 138.784 56.1317 134.437C29.803 126.807 10.4756 102.469 10.4756 73.6957C10.4756 38.8469 38.8469 10.4756 73.6957 10.4756H73.8878C75.5638 10.4756 77.2399 10.5454 78.8811 10.7026C80.4874 10.8248 82.0762 10.9994 83.63 11.2612C85.1665 11.5057 86.6854 11.8025 88.1695 12.1517C89.636 12.4834 91.0677 12.885 92.4819 13.3214C93.8437 13.7405 95.1881 14.2119 96.4975 14.7357C120.12 23.9018 136.916 46.8782 136.916 73.6957C136.916 106.764 111.425 133.983 79.0557 136.689C77.624 136.829 76.1924 136.898 74.7258 136.916C74.3941 136.933 74.0449 136.933 73.6957 136.933C72.5434 136.933 71.4085 136.898 70.2737 136.829C68.7373 136.759 67.2008 136.619 65.6993 136.427C64.1105 136.235 62.5392 135.973 60.9853 135.641C63.6042 139.744 66.5374 143.638 69.7674 147.322C71.0768 147.374 72.3863 147.409 73.6957 147.409H74.5687C76.14 147.391 77.7113 147.322 79.2652 147.199C80.7842 147.095 82.2857 146.92 83.7697 146.711C85.2538 146.518 86.7203 146.274 88.1869 145.977C121.918 139.22 147.391 109.383 147.391 73.6957C147.391 42.0245 127.313 14.9452 99.2037 4.55688Z" fill="#BA1819"/>
<path id="Vector_4" d="M88.99 162.981C87.925 162.981 86.86 162.667 85.9346 162.003C60.7059 143.898 45.656 114.567 45.656 83.5588C45.656 52.5511 61.5614 21.5259 88.2043 3.52539C90.5962 1.90168 93.8611 2.53021 95.4848 4.9396C97.1086 7.33152 96.48 10.5964 94.0706 12.2201C70.326 28.2652 56.1316 54.9256 56.1316 83.5588C56.1316 112.192 69.5578 137.351 92.0454 153.501C94.4024 155.194 94.9262 158.459 93.2501 160.816C92.22 162.248 90.6137 162.999 88.99 162.999V162.981Z" fill="#BA1819"/>
</g>
</svg>
