<svg width="155" height="28" viewBox="0 0 155 28" fill="none" xmlns="http://www.w3.org/2000/svg">
<g id="Group 1940685970">
<path id="Vector" d="M27.8011 7.79246L28 4.1976L26.962 4.0622C26.6842 4.02552 26.4063 3.99355 26.1285 3.9644C26.0718 1.76875 24.2895 0 22.1067 0C19.9239 0 18.1416 1.76875 18.085 3.9644C17.8071 3.99449 17.5293 4.02646 17.2514 4.0622L16.2135 4.1976L16.4067 7.6956C12.6944 7.65799 9.50896 6.31615 5.83751 4.46559C5.91836 4.19196 5.96296 3.9014 5.96296 3.6005C5.96296 1.93519 4.62857 0.584881 2.98288 0.584881C1.33718 0.584881 0 1.93613 0 3.60238C0 5.12758 1.11881 6.38667 2.57029 6.58884V12.07C1.11788 12.2722 0 13.5322 0 15.0565C0 16.5807 1.11881 17.8408 2.57029 18.0429V21.9979C1.11788 22.2001 0 23.4601 0 24.9844C0 26.6497 1.3344 28 2.98009 28C4.62578 28 5.87468 26.7343 5.95646 25.1433C8.97186 24.4484 11.255 23.8936 13.4146 22.7267C15.6401 23.7695 17.9316 24.6637 20.4982 25.6652C21.0706 25.889 21.657 26.1175 22.261 26.3544C22.3483 26.3883 22.4394 26.4052 22.5305 26.4052C22.6968 26.4052 22.8613 26.3488 22.9951 26.2407L26.7604 23.1921C26.7604 23.1921 26.7622 23.1902 26.7632 23.1893L26.7669 23.1865C26.7901 23.1677 26.8115 23.1479 26.8319 23.1272C26.8384 23.1197 26.8449 23.1122 26.8515 23.1047C26.8663 23.0887 26.8803 23.0718 26.8933 23.0539C26.8998 23.0445 26.9063 23.0351 26.9128 23.0257C26.9249 23.0078 26.9369 22.989 26.9472 22.9702C26.95 22.9646 26.9546 22.9599 26.9574 22.9542C26.9602 22.9486 26.962 22.9439 26.9648 22.9382C26.9704 22.9279 26.975 22.9176 26.9797 22.9072C26.9862 22.8922 26.9927 22.8781 26.9973 22.863C27.0011 22.8536 27.0038 22.8442 27.0076 22.8339C27.0131 22.8169 27.0178 22.8 27.0224 22.7831C27.0243 22.7746 27.0271 22.7662 27.0289 22.7577C27.0327 22.738 27.0364 22.7182 27.0392 22.6985C27.0392 22.6919 27.041 22.6853 27.0419 22.6787C27.0447 22.6524 27.0466 22.627 27.0466 22.6007C27.0466 22.6007 27.0466 22.5997 27.0466 22.5988C27.0466 22.5988 27.0466 22.5941 27.0466 22.5922V10.6934C27.4824 9.79629 27.7445 8.81083 27.8002 7.79058L27.8011 7.79246ZM14.0269 15.0931L18.6992 12.8138C18.8274 12.9379 18.9584 13.0592 19.096 13.1739L22.1058 15.6949L25.1156 13.1739C25.2699 13.0442 25.4176 12.9078 25.5598 12.7668V21.3453L14.026 15.0931H14.0269ZM23.1335 11.2745H21.1069L21.5241 9.139C21.0613 8.91802 20.7407 8.44316 20.7407 7.89119C20.7407 7.12859 21.3513 6.50986 22.1058 6.50986C22.8603 6.50986 23.4709 7.12765 23.4709 7.89119C23.4709 8.44316 23.1503 8.91802 22.6875 9.139L23.1345 11.2745H23.1335ZM22.1058 1.50452C23.4253 1.50452 24.5125 2.52853 24.6324 3.83276C22.9496 3.71898 21.262 3.71898 19.5792 3.83276C19.6991 2.52853 20.7863 1.50452 22.1058 1.50452ZM17.7049 11.628L12.0653 14.3794C11.8135 14.5026 11.6509 14.7584 11.6453 15.0414C11.6397 15.3244 11.7912 15.5868 12.0374 15.7203L16.732 18.2648C15.55 19.4807 14.4739 20.3608 13.37 21.0388C10.8582 19.8154 8.40688 18.3626 5.70184 16.2911C5.86911 15.914 5.96296 15.4975 5.96296 15.0574C5.96296 14.6173 5.86818 14.197 5.69999 13.8199C9.4244 11.0507 13.2659 9.39571 16.522 9.20106C16.5275 9.20106 16.5322 9.20012 16.5378 9.19918C16.5508 9.19824 16.5638 9.19636 16.5777 9.19448C16.5889 9.1926 16.601 9.19166 16.6121 9.18884C16.6158 9.18884 16.6195 9.1879 16.6233 9.18696C16.8379 10.0615 17.2059 10.8871 17.7068 11.6271L17.7049 11.628ZM5.06345 5.75854C7.51108 6.996 9.75335 8.02378 12.0932 8.62558C9.70503 9.46153 7.20536 10.8297 4.76981 12.6455C4.5533 12.4809 4.31448 12.3464 4.05801 12.2458V6.41488C4.43714 6.26631 4.77818 6.04158 5.06345 5.75948V5.75854ZM5.66282 23.6698C5.33572 22.9881 4.76145 22.4502 4.05801 22.1738V17.869C4.31541 17.7683 4.55516 17.6329 4.77167 17.4674C7.22581 19.3509 9.46807 20.7369 11.7243 21.8973C10.0358 22.6411 8.15226 23.0953 5.66282 23.6689V23.6698ZM22.4013 24.7973C21.9367 24.6148 21.4813 24.4371 21.0344 24.2632C18.846 23.4093 16.863 22.6355 14.9506 21.7779C15.9709 21.0604 16.9968 20.1633 18.0933 19.0039L24.9595 22.7257L22.4013 24.7973Z" fill="#1B152B"/>
<path id="Optivolve Digital" d="M51.2415 14.9091C51.2415 16.0194 51.031 16.964 50.6101 17.7429C50.1925 18.5218 49.6224 19.1167 48.8999 19.5277C48.1806 19.9354 47.3719 20.1392 46.4737 20.1392C45.5689 20.1392 44.7569 19.9337 44.0376 19.5227C43.3184 19.1117 42.75 18.5168 42.3324 17.7379C41.9148 16.959 41.706 16.0161 41.706 14.9091C41.706 13.7988 41.9148 12.8542 42.3324 12.0753C42.75 11.2964 43.3184 10.7031 44.0376 10.2955C44.7569 9.88447 45.5689 9.67898 46.4737 9.67898C47.3719 9.67898 48.1806 9.88447 48.8999 10.2955C49.6224 10.7031 50.1925 11.2964 50.6101 12.0753C51.031 12.8542 51.2415 13.7988 51.2415 14.9091ZM49.0589 14.9091C49.0589 14.1899 48.9512 13.5833 48.7358 13.0895C48.5237 12.5956 48.2237 12.2211 47.8359 11.9659C47.4482 11.7107 46.9941 11.5831 46.4737 11.5831C45.9534 11.5831 45.4993 11.7107 45.1115 11.9659C44.7237 12.2211 44.4221 12.5956 44.2067 13.0895C43.9946 13.5833 43.8885 14.1899 43.8885 14.9091C43.8885 15.6283 43.9946 16.2348 44.2067 16.7287C44.4221 17.2225 44.7237 17.5971 45.1115 17.8523C45.4993 18.1075 45.9534 18.2351 46.4737 18.2351C46.9941 18.2351 47.4482 18.1075 47.8359 17.8523C48.2237 17.5971 48.5237 17.2225 48.7358 16.7287C48.9512 16.2348 49.0589 15.6283 49.0589 14.9091ZM52.7963 22.8636V12.3636H54.8844V13.6463H54.9789C55.0717 13.4408 55.2059 13.232 55.3816 13.0199C55.5605 12.8045 55.7926 12.6255 56.0776 12.483C56.3659 12.3371 56.7239 12.2642 57.1515 12.2642C57.7083 12.2642 58.222 12.41 58.6926 12.7017C59.1633 12.9901 59.5395 13.4259 59.8212 14.0092C60.1029 14.5893 60.2438 15.3168 60.2438 16.1918C60.2438 17.0436 60.1062 17.7628 59.8311 18.3494C59.5594 18.9328 59.1882 19.3752 58.7175 19.6768C58.2502 19.9751 57.7265 20.1243 57.1465 20.1243C56.7355 20.1243 56.3858 20.0563 56.0975 19.9205C55.8124 19.7846 55.5788 19.6139 55.3965 19.4084C55.2142 19.1996 55.075 18.9891 54.9789 18.777H54.9142V22.8636H52.7963ZM54.8695 16.1818C54.8695 16.6359 54.9325 17.032 55.0584 17.37C55.1844 17.7081 55.3667 17.9716 55.6053 18.1605C55.8439 18.3461 56.1339 18.4389 56.4753 18.4389C56.82 18.4389 57.1117 18.3445 57.3503 18.1555C57.589 17.9633 57.7696 17.6982 57.8922 17.3601C58.0182 17.0187 58.0811 16.6259 58.0811 16.1818C58.0811 15.741 58.0198 15.3532 57.8972 15.0185C57.7746 14.6837 57.5939 14.4219 57.3553 14.233C57.1167 14.044 56.8233 13.9496 56.4753 13.9496C56.1306 13.9496 55.839 14.0407 55.6003 14.223C55.365 14.4053 55.1844 14.6638 55.0584 14.9986C54.9325 15.3333 54.8695 15.7277 54.8695 16.1818ZM65.7175 12.3636V13.9545H61.1188V12.3636H65.7175ZM62.1628 10.5341H64.2807V17.6534C64.2807 17.849 64.3105 18.0014 64.3702 18.1108C64.4299 18.2169 64.5127 18.2914 64.6188 18.3345C64.7282 18.3776 64.8541 18.3991 64.9966 18.3991C65.0961 18.3991 65.1955 18.3909 65.2949 18.3743C65.3944 18.3544 65.4706 18.3395 65.5236 18.3295L65.8567 19.9055C65.7507 19.9387 65.6015 19.9768 65.4093 20.0199C65.217 20.0663 64.9834 20.0945 64.7083 20.1044C64.1979 20.1243 63.7504 20.0563 63.3659 19.9006C62.9848 19.7448 62.6882 19.5028 62.476 19.1747C62.2639 18.8466 62.1595 18.4323 62.1628 17.9318V10.5341ZM67.0971 20V12.3636H69.215V20H67.0971ZM68.161 11.3793C67.8462 11.3793 67.5761 11.2749 67.3507 11.0661C67.1286 10.8539 67.0176 10.6004 67.0176 10.3054C67.0176 10.0137 67.1286 9.76349 67.3507 9.55469C67.5761 9.34257 67.8462 9.23651 68.161 9.23651C68.4759 9.23651 68.7444 9.34257 68.9664 9.55469C69.1918 9.76349 69.3045 10.0137 69.3045 10.3054C69.3045 10.6004 69.1918 10.8539 68.9664 11.0661C68.7444 11.2749 68.4759 11.3793 68.161 11.3793ZM78.0309 12.3636L75.3612 20H72.9748L70.305 12.3636H72.5423L74.1282 17.8274H74.2077L75.7887 12.3636H78.0309ZM82.3189 20.1491C81.5466 20.1491 80.8788 19.9851 80.3153 19.657C79.7552 19.3255 79.3227 18.8648 79.0178 18.2749C78.7128 17.6816 78.5604 16.9938 78.5604 16.2116C78.5604 15.4228 78.7128 14.7334 79.0178 14.1435C79.3227 13.5502 79.7552 13.0895 80.3153 12.7614C80.8788 12.4299 81.5466 12.2642 82.3189 12.2642C83.0911 12.2642 83.7573 12.4299 84.3175 12.7614C84.8809 13.0895 85.3151 13.5502 85.62 14.1435C85.925 14.7334 86.0774 15.4228 86.0774 16.2116C86.0774 16.9938 85.925 17.6816 85.62 18.2749C85.3151 18.8648 84.8809 19.3255 84.3175 19.657C83.7573 19.9851 83.0911 20.1491 82.3189 20.1491ZM82.3288 18.5085C82.6802 18.5085 82.9735 18.4091 83.2088 18.2102C83.4441 18.008 83.6214 17.733 83.7408 17.3849C83.8634 17.0369 83.9247 16.6409 83.9247 16.1967C83.9247 15.7526 83.8634 15.3565 83.7408 15.0085C83.6214 14.6605 83.4441 14.3854 83.2088 14.1832C82.9735 13.9811 82.6802 13.88 82.3288 13.88C81.9742 13.88 81.6759 13.9811 81.4339 14.1832C81.1953 14.3854 81.0147 14.6605 80.892 15.0085C80.7727 15.3565 80.7131 15.7526 80.7131 16.1967C80.7131 16.6409 80.7727 17.0369 80.892 17.3849C81.0147 17.733 81.1953 18.008 81.4339 18.2102C81.6759 18.4091 81.9742 18.5085 82.3288 18.5085ZM89.5724 9.81818V20H87.4545V9.81818H89.5724ZM98.3883 12.3636L95.7186 20H93.3322L90.6625 12.3636H92.8997L94.4856 17.8274H94.5652L96.1461 12.3636H98.3883ZM102.706 20.1491C101.921 20.1491 101.244 19.9901 100.678 19.6719C100.114 19.3504 99.6801 18.8963 99.3752 18.3097C99.0703 17.7197 98.9178 17.022 98.9178 16.2166C98.9178 15.4311 99.0703 14.7417 99.3752 14.1484C99.6801 13.5552 100.109 13.0928 100.663 12.7614C101.22 12.4299 101.873 12.2642 102.622 12.2642C103.125 12.2642 103.594 12.3454 104.029 12.5078C104.466 12.6669 104.847 12.9072 105.172 13.2287C105.5 13.5502 105.755 13.9545 105.938 14.4418C106.12 14.9257 106.211 15.4924 106.211 16.142V16.7237H99.763V15.4112H104.218C104.218 15.1063 104.151 14.8362 104.019 14.6009C103.886 14.3655 103.702 14.1816 103.467 14.049C103.235 13.9131 102.965 13.8452 102.656 13.8452C102.335 13.8452 102.05 13.9197 101.801 14.0689C101.556 14.2147 101.364 14.4119 101.225 14.6605C101.085 14.9058 101.014 15.1792 101.011 15.4808V16.7287C101.011 17.1065 101.08 17.433 101.22 17.7081C101.362 17.9832 101.563 18.1953 101.821 18.3445C102.08 18.4936 102.386 18.5682 102.741 18.5682C102.976 18.5682 103.192 18.535 103.387 18.4688C103.583 18.4025 103.75 18.303 103.889 18.1705C104.029 18.0379 104.135 17.8755 104.208 17.6832L106.166 17.8125C106.067 18.2831 105.863 18.6941 105.555 19.0455C105.25 19.3935 104.856 19.6652 104.372 19.8608C103.891 20.053 103.336 20.1491 102.706 20.1491ZM114.483 20H110.873V9.81818H114.512C115.537 9.81818 116.418 10.022 117.157 10.4297C117.896 10.834 118.465 11.4157 118.863 12.1747C119.264 12.9337 119.464 13.8419 119.464 14.8991C119.464 15.9598 119.264 16.8712 118.863 17.6335C118.465 18.3958 117.893 18.9808 117.147 19.3885C116.405 19.7962 115.517 20 114.483 20ZM113.026 18.1555H114.393C115.029 18.1555 115.565 18.0429 115.999 17.8175C116.436 17.5888 116.765 17.2358 116.983 16.7585C117.205 16.2779 117.316 15.6581 117.316 14.8991C117.316 14.1468 117.205 13.532 116.983 13.0547C116.765 12.5774 116.438 12.2261 116.004 12.0007C115.57 11.7753 115.034 11.6626 114.398 11.6626H113.026V18.1555ZM121.019 20V12.3636H123.137V20H121.019ZM122.083 11.3793C121.768 11.3793 121.498 11.2749 121.273 11.0661C121.05 10.8539 120.939 10.6004 120.939 10.3054C120.939 10.0137 121.05 9.76349 121.273 9.55469C121.498 9.34257 121.768 9.23651 122.083 9.23651C122.398 9.23651 122.666 9.34257 122.888 9.55469C123.114 9.76349 123.226 10.0137 123.226 10.3054C123.226 10.6004 123.114 10.8539 122.888 11.0661C122.666 11.2749 122.398 11.3793 122.083 11.3793ZM128.274 23.0227C127.588 23.0227 126.999 22.9283 126.509 22.7393C126.022 22.5537 125.634 22.3002 125.346 21.9787C125.057 21.6572 124.87 21.2959 124.784 20.8949L126.743 20.6314C126.802 20.7839 126.897 20.9264 127.026 21.0589C127.155 21.1915 127.326 21.2976 127.538 21.3771C127.753 21.46 128.015 21.5014 128.324 21.5014C128.784 21.5014 129.164 21.3887 129.462 21.1634C129.764 20.9413 129.914 20.5684 129.914 20.0447V18.6477H129.825C129.732 18.8598 129.593 19.0604 129.407 19.2493C129.222 19.4382 128.983 19.5923 128.691 19.7116C128.4 19.831 128.052 19.8906 127.647 19.8906C127.074 19.8906 126.552 19.758 126.081 19.4929C125.614 19.2244 125.241 18.8151 124.963 18.2649C124.688 17.7114 124.55 17.0121 124.55 16.1669C124.55 15.3018 124.691 14.5793 124.973 13.9993C125.254 13.4193 125.629 12.9851 126.096 12.6967C126.567 12.4084 127.082 12.2642 127.642 12.2642C128.07 12.2642 128.428 12.3371 128.716 12.483C129.005 12.6255 129.237 12.8045 129.412 13.0199C129.591 13.232 129.729 13.4408 129.825 13.6463H129.904V12.3636H132.007V20.0746C132.007 20.7242 131.848 21.2678 131.53 21.7053C131.212 22.1428 130.771 22.4709 130.208 22.6896C129.648 22.9117 129.003 23.0227 128.274 23.0227ZM128.319 18.2997C128.66 18.2997 128.948 18.2152 129.184 18.0462C129.422 17.8738 129.605 17.6286 129.73 17.3104C129.86 16.9889 129.924 16.6044 129.924 16.157C129.924 15.7095 129.861 15.3217 129.735 14.9936C129.609 14.6622 129.427 14.4053 129.189 14.223C128.95 14.0407 128.66 13.9496 128.319 13.9496C127.971 13.9496 127.677 14.044 127.439 14.233C127.2 14.4186 127.019 14.6771 126.897 15.0085C126.774 15.34 126.713 15.7228 126.713 16.157C126.713 16.5978 126.774 16.9789 126.897 17.3004C127.023 17.6186 127.203 17.8655 127.439 18.0412C127.677 18.2135 127.971 18.2997 128.319 18.2997ZM133.693 20V12.3636H135.811V20H133.693ZM134.757 11.3793C134.442 11.3793 134.172 11.2749 133.946 11.0661C133.724 10.8539 133.613 10.6004 133.613 10.3054C133.613 10.0137 133.724 9.76349 133.946 9.55469C134.172 9.34257 134.442 9.23651 134.757 9.23651C135.072 9.23651 135.34 9.34257 135.562 9.55469C135.788 9.76349 135.9 10.0137 135.9 10.3054C135.9 10.6004 135.788 10.8539 135.562 11.0661C135.34 11.2749 135.072 11.3793 134.757 11.3793ZM141.569 12.3636V13.9545H136.97V12.3636H141.569ZM138.014 10.5341H140.132V17.6534C140.132 17.849 140.162 18.0014 140.222 18.1108C140.281 18.2169 140.364 18.2914 140.47 18.3345C140.58 18.3776 140.706 18.3991 140.848 18.3991C140.948 18.3991 141.047 18.3909 141.146 18.3743C141.246 18.3544 141.322 18.3395 141.375 18.3295L141.708 19.9055C141.602 19.9387 141.453 19.9768 141.261 20.0199C141.069 20.0663 140.835 20.0945 140.56 20.1044C140.049 20.1243 139.602 20.0563 139.218 19.9006C138.836 19.7448 138.54 19.5028 138.328 19.1747C138.115 18.8466 138.011 18.4323 138.014 17.9318V10.5341ZM145.126 20.1442C144.639 20.1442 144.205 20.0597 143.824 19.8906C143.443 19.7183 143.141 19.4647 142.919 19.13C142.7 18.7919 142.591 18.371 142.591 17.8672C142.591 17.4429 142.669 17.0866 142.824 16.7983C142.98 16.5099 143.192 16.2779 143.461 16.1023C143.729 15.9266 144.034 15.794 144.376 15.7045C144.72 15.6151 145.081 15.5521 145.459 15.5156C145.903 15.4692 146.261 15.4261 146.533 15.3864C146.805 15.3433 147.002 15.2803 147.125 15.1974C147.247 15.1146 147.309 14.992 147.309 14.8295V14.7997C147.309 14.4848 147.209 14.2412 147.01 14.0689C146.815 13.8965 146.537 13.8104 146.175 13.8104C145.794 13.8104 145.491 13.8949 145.265 14.0639C145.04 14.2296 144.891 14.4384 144.818 14.6903L142.859 14.5312C142.959 14.0672 143.154 13.6662 143.446 13.3281C143.738 12.9867 144.114 12.7249 144.574 12.5426C145.038 12.357 145.575 12.2642 146.185 12.2642C146.609 12.2642 147.015 12.3139 147.403 12.4134C147.794 12.5128 148.141 12.6669 148.442 12.8757C148.747 13.0845 148.988 13.353 149.163 13.6811C149.339 14.0059 149.427 14.3954 149.427 14.8494V20H147.418V18.9411H147.358C147.236 19.1797 147.072 19.3902 146.866 19.5724C146.661 19.7514 146.414 19.8923 146.126 19.995C145.837 20.0945 145.504 20.1442 145.126 20.1442ZM145.733 18.6825C146.044 18.6825 146.319 18.6212 146.558 18.4986C146.797 18.3726 146.984 18.2036 147.12 17.9915C147.256 17.7794 147.324 17.5391 147.324 17.2706V16.4602C147.257 16.5033 147.166 16.5431 147.05 16.5795C146.938 16.6127 146.81 16.6442 146.667 16.674C146.525 16.7005 146.382 16.7254 146.24 16.7486C146.097 16.7685 145.968 16.7867 145.852 16.8033C145.604 16.8397 145.386 16.8977 145.201 16.9773C145.015 17.0568 144.871 17.1645 144.768 17.3004C144.666 17.433 144.614 17.5987 144.614 17.7976C144.614 18.0859 144.719 18.3063 144.927 18.4588C145.14 18.608 145.408 18.6825 145.733 18.6825ZM153.188 9.81818V20H151.07V9.81818H153.188Z" fill="black"/>
</g>
</svg>
