<svg width="110" height="28" viewBox="0 0 110 28" fill="none" xmlns="http://www.w3.org/2000/svg">
<g id="Group 1940685970">
<path id="Vector" d="M18.954 18.9601C17.6301 20.2839 15.8661 21.014 13.9939 21.014C12.1216 21.014 10.3612 20.2839 9.03381 18.9601C6.29878 16.225 6.29878 11.7749 9.03381 9.03992C10.3612 7.71607 12.1216 6.98603 13.9939 6.98603C15.8661 6.98603 17.6301 7.71607 18.954 9.03992C20.5153 10.6013 21.1825 12.7181 20.9624 14.758L26.9704 8.75C26.2893 7.05589 25.2624 5.47006 23.8931 4.1008C21.2489 1.45659 17.7349 0 13.9939 0C10.2529 0 6.7389 1.45659 4.09469 4.1008C-1.3649 9.55689 -1.3649 18.4396 4.09469 23.8992C6.7389 26.5434 10.2564 28 13.9939 28C17.7314 28 21.2489 26.5434 23.8931 23.8992L40.2963 7.49601L41.5573 8.75699C42.0009 9.2006 42.7589 8.88623 42.7589 8.25748V0.796407C42.7589 0.408683 42.4445 0.0908184 42.0533 0.0908184H34.5922C33.9634 0.0908184 33.6491 0.848802 34.0927 1.29242L35.3537 2.55339L18.9505 18.9566" fill="#1B152B"/>
<path id="Optivolve Digital" d="M58.7784 7.63636C58.7784 8.58807 58.598 9.39773 58.2372 10.0653C57.8793 10.733 57.3906 11.2429 56.7713 11.5952C56.1548 11.9446 55.4616 12.1193 54.6918 12.1193C53.9162 12.1193 53.2202 11.9432 52.6037 11.5909C51.9872 11.2386 51.5 10.7287 51.142 10.0611C50.7841 9.39347 50.6051 8.58523 50.6051 7.63636C50.6051 6.68466 50.7841 5.875 51.142 5.20739C51.5 4.53977 51.9872 4.03125 52.6037 3.68182C53.2202 3.32955 53.9162 3.15341 54.6918 3.15341C55.4616 3.15341 56.1548 3.32955 56.7713 3.68182C57.3906 4.03125 57.8793 4.53977 58.2372 5.20739C58.598 5.875 58.7784 6.68466 58.7784 7.63636ZM56.9077 7.63636C56.9077 7.01989 56.8153 6.5 56.6307 6.0767C56.4489 5.65341 56.1918 5.33239 55.8594 5.11364C55.527 4.89489 55.1378 4.78551 54.6918 4.78551C54.2457 4.78551 53.8565 4.89489 53.5241 5.11364C53.1918 5.33239 52.9332 5.65341 52.7486 6.0767C52.5668 6.5 52.4759 7.01989 52.4759 7.63636C52.4759 8.25284 52.5668 8.77273 52.7486 9.19602C52.9332 9.61932 53.1918 9.94034 53.5241 10.1591C53.8565 10.3778 54.2457 10.4872 54.6918 10.4872C55.1378 10.4872 55.527 10.3778 55.8594 10.1591C56.1918 9.94034 56.4489 9.61932 56.6307 9.19602C56.8153 8.77273 56.9077 8.25284 56.9077 7.63636ZM60.1112 14.4545V5.45455H61.9009V6.55398H61.9819C62.0614 6.37784 62.1765 6.19886 62.3271 6.01705C62.4805 5.83239 62.6793 5.67898 62.9237 5.55682C63.1708 5.43182 63.4776 5.36932 63.8441 5.36932C64.3214 5.36932 64.7617 5.49432 65.1651 5.74432C65.5685 5.99148 65.891 6.36506 66.1325 6.86506C66.3739 7.36222 66.4947 7.9858 66.4947 8.7358C66.4947 9.46591 66.3768 10.0824 66.141 10.5852C65.908 11.0852 65.5898 11.4645 65.1864 11.723C64.7859 11.9787 64.337 12.1065 63.8398 12.1065C63.4876 12.1065 63.1879 12.0483 62.9407 11.9318C62.6964 11.8153 62.4961 11.669 62.3398 11.4929C62.1836 11.3139 62.0643 11.1335 61.9819 10.9517H61.9265V14.4545H60.1112ZM61.8881 8.72727C61.8881 9.11648 61.9421 9.45597 62.0501 9.74574C62.158 10.0355 62.3143 10.2614 62.5188 10.4233C62.7234 10.5824 62.9719 10.6619 63.2646 10.6619C63.56 10.6619 63.81 10.581 64.0146 10.419C64.2191 10.2543 64.3739 10.027 64.479 9.73722C64.587 9.4446 64.641 9.10795 64.641 8.72727C64.641 8.34943 64.5884 8.01705 64.4833 7.73011C64.3782 7.44318 64.2234 7.21875 64.0188 7.05682C63.8143 6.89489 63.5629 6.81392 63.2646 6.81392C62.9691 6.81392 62.7191 6.89205 62.5146 7.0483C62.3129 7.20455 62.158 7.42614 62.0501 7.71307C61.9421 8 61.8881 8.33807 61.8881 8.72727ZM71.1864 5.45455V6.81818H67.2447V5.45455H71.1864ZM68.1396 3.88636H69.9549V9.98864C69.9549 10.1562 69.9805 10.2869 70.0316 10.3807C70.0827 10.4716 70.1538 10.5355 70.2447 10.5724C70.3384 10.6094 70.4464 10.6278 70.5685 10.6278C70.6538 10.6278 70.739 10.6207 70.8242 10.6065C70.9094 10.5895 70.9748 10.5767 71.0202 10.5682L71.3058 11.919C71.2148 11.9474 71.087 11.9801 70.9222 12.017C70.7575 12.0568 70.5572 12.081 70.3214 12.0895C69.8839 12.1065 69.5004 12.0483 69.1708 11.9148C68.8441 11.7812 68.5898 11.5739 68.408 11.2926C68.2262 11.0114 68.1367 10.6562 68.1396 10.2273V3.88636ZM72.369 12V5.45455H74.1843V12H72.369ZM73.2809 4.6108C73.011 4.6108 72.7795 4.52131 72.5863 4.34233C72.396 4.16051 72.3008 3.94318 72.3008 3.69034C72.3008 3.44034 72.396 3.22585 72.5863 3.04688C72.7795 2.86506 73.011 2.77415 73.2809 2.77415C73.5508 2.77415 73.7809 2.86506 73.9712 3.04688C74.1644 3.22585 74.261 3.44034 74.261 3.69034C74.261 3.94318 74.1644 4.16051 73.9712 4.34233C73.7809 4.52131 73.5508 4.6108 73.2809 4.6108ZM81.7408 5.45455L79.4524 12H77.407L75.1186 5.45455H77.0362L78.3956 10.1378H78.4638L79.8189 5.45455H81.7408ZM85.4162 12.1278C84.7543 12.1278 84.1818 11.9872 83.6989 11.706C83.2188 11.4219 82.848 11.027 82.5866 10.5213C82.3253 10.0128 82.1946 9.4233 82.1946 8.75284C82.1946 8.0767 82.3253 7.4858 82.5866 6.98011C82.848 6.47159 83.2188 6.0767 83.6989 5.79545C84.1818 5.51136 84.7543 5.36932 85.4162 5.36932C86.0781 5.36932 86.6491 5.51136 87.1293 5.79545C87.6122 6.0767 87.9844 6.47159 88.2457 6.98011C88.5071 7.4858 88.6378 8.0767 88.6378 8.75284C88.6378 9.4233 88.5071 10.0128 88.2457 10.5213C87.9844 11.027 87.6122 11.4219 87.1293 11.706C86.6491 11.9872 86.0781 12.1278 85.4162 12.1278ZM85.4247 10.7216C85.7259 10.7216 85.9773 10.6364 86.179 10.4659C86.3807 10.2926 86.5327 10.0568 86.6349 9.75852C86.7401 9.46023 86.7926 9.12074 86.7926 8.74006C86.7926 8.35938 86.7401 8.01989 86.6349 7.72159C86.5327 7.4233 86.3807 7.1875 86.179 7.0142C85.9773 6.84091 85.7259 6.75426 85.4247 6.75426C85.1207 6.75426 84.8651 6.84091 84.6577 7.0142C84.4531 7.1875 84.2983 7.4233 84.1932 7.72159C84.0909 8.01989 84.0398 8.35938 84.0398 8.74006C84.0398 9.12074 84.0909 9.46023 84.1932 9.75852C84.2983 10.0568 84.4531 10.2926 84.6577 10.4659C84.8651 10.6364 85.1207 10.7216 85.4247 10.7216ZM91.6335 3.27273V12H89.8182V3.27273H91.6335ZM99.19 5.45455L96.9016 12H94.8562L92.5678 5.45455H94.4854L95.8448 10.1378H95.913L97.2681 5.45455H99.19ZM102.891 12.1278C102.218 12.1278 101.638 11.9915 101.152 11.7188C100.669 11.4432 100.297 11.054 100.036 10.5511C99.7745 10.0455 99.6438 9.44744 99.6438 8.7571C99.6438 8.08381 99.7745 7.4929 100.036 6.98438C100.297 6.47585 100.665 6.07955 101.14 5.79545C101.617 5.51136 102.176 5.36932 102.819 5.36932C103.25 5.36932 103.652 5.43892 104.025 5.57812C104.4 5.71449 104.726 5.92045 105.005 6.19602C105.286 6.47159 105.505 6.81818 105.661 7.2358C105.817 7.65057 105.895 8.13636 105.895 8.69318V9.19176H100.368V8.06676H104.186C104.186 7.8054 104.13 7.57386 104.016 7.37216C103.902 7.17045 103.745 7.01278 103.543 6.89915C103.344 6.78267 103.113 6.72443 102.848 6.72443C102.573 6.72443 102.328 6.78835 102.115 6.91619C101.905 7.04119 101.74 7.21023 101.621 7.4233C101.502 7.63352 101.441 7.8679 101.438 8.12642V9.19602C101.438 9.51989 101.498 9.79972 101.617 10.0355C101.739 10.2713 101.911 10.4531 102.132 10.581C102.354 10.7088 102.617 10.7727 102.921 10.7727C103.123 10.7727 103.307 10.7443 103.475 10.6875C103.642 10.6307 103.786 10.5455 103.905 10.4318C104.025 10.3182 104.115 10.179 104.178 10.0142L105.857 10.125C105.772 10.5284 105.597 10.8807 105.333 11.1818C105.071 11.4801 104.733 11.7131 104.319 11.8807C103.907 12.0455 103.431 12.1278 102.891 12.1278ZM53.8523 25H50.7585V16.2727H53.8778C54.7557 16.2727 55.5114 16.4474 56.1449 16.7969C56.7784 17.1435 57.2656 17.642 57.6065 18.2926C57.9503 18.9432 58.1222 19.7216 58.1222 20.6278C58.1222 21.5369 57.9503 22.3182 57.6065 22.9716C57.2656 23.625 56.7756 24.1264 56.1364 24.4759C55.5 24.8253 54.7386 25 53.8523 25ZM52.6037 23.419H53.7756C54.321 23.419 54.7798 23.3224 55.152 23.1293C55.527 22.9332 55.8082 22.6307 55.9957 22.2216C56.1861 21.8097 56.2812 21.2784 56.2812 20.6278C56.2812 19.983 56.1861 19.456 55.9957 19.0469C55.8082 18.6378 55.5284 18.3366 55.1562 18.1435C54.7841 17.9503 54.3253 17.8537 53.7798 17.8537H52.6037V23.419ZM59.4549 25V18.4545H61.2702V25H59.4549ZM60.3668 17.6108C60.0969 17.6108 59.8654 17.5213 59.6722 17.3423C59.4819 17.1605 59.3867 16.9432 59.3867 16.6903C59.3867 16.4403 59.4819 16.2259 59.6722 16.0469C59.8654 15.8651 60.0969 15.7741 60.3668 15.7741C60.6367 15.7741 60.8668 15.8651 61.0572 16.0469C61.2504 16.2259 61.3469 16.4403 61.3469 16.6903C61.3469 16.9432 61.2504 17.1605 61.0572 17.3423C60.8668 17.5213 60.6367 17.6108 60.3668 17.6108ZM65.6733 27.5909C65.0852 27.5909 64.581 27.5099 64.1605 27.348C63.7429 27.1889 63.4105 26.9716 63.1634 26.696C62.9162 26.4205 62.7557 26.1108 62.6818 25.767L64.3608 25.5412C64.4119 25.6719 64.4929 25.794 64.6037 25.9077C64.7145 26.0213 64.8608 26.1122 65.0426 26.1804C65.2273 26.2514 65.4517 26.2869 65.7159 26.2869C66.1108 26.2869 66.4361 26.1903 66.6918 25.9972C66.9503 25.8068 67.0795 25.4872 67.0795 25.0384V23.8409H67.0028C66.9233 24.0227 66.804 24.1946 66.6449 24.3565C66.4858 24.5185 66.2812 24.6506 66.0312 24.7528C65.7812 24.8551 65.483 24.9062 65.1364 24.9062C64.6449 24.9062 64.1974 24.7926 63.794 24.5653C63.3935 24.3352 63.0739 23.9844 62.8352 23.5128C62.5994 23.0384 62.4815 22.4389 62.4815 21.7145C62.4815 20.973 62.6023 20.3537 62.8438 19.8565C63.0852 19.3594 63.4063 18.9872 63.8068 18.7401C64.2102 18.4929 64.652 18.3693 65.1321 18.3693C65.4986 18.3693 65.8054 18.4318 66.0526 18.5568C66.2997 18.679 66.4986 18.8324 66.6491 19.017C66.8026 19.1989 66.9205 19.3778 67.0028 19.554H67.071V18.4545H68.8736V25.0639C68.8736 25.6207 68.7372 26.0866 68.4645 26.4616C68.1918 26.8366 67.8139 27.1179 67.331 27.3054C66.8509 27.4957 66.2983 27.5909 65.6733 27.5909ZM65.7116 23.5426C66.0043 23.5426 66.2514 23.4702 66.4531 23.3253C66.6577 23.1776 66.8139 22.9673 66.9219 22.6946C67.0327 22.419 67.0881 22.0895 67.0881 21.706C67.0881 21.3224 67.0341 20.9901 66.9261 20.7088C66.8182 20.4247 66.6619 20.2045 66.4574 20.0483C66.2528 19.892 66.0043 19.8139 65.7116 19.8139C65.4134 19.8139 65.1619 19.8949 64.9574 20.0568C64.7528 20.2159 64.598 20.4375 64.4929 20.7216C64.3878 21.0057 64.3352 21.3338 64.3352 21.706C64.3352 22.0838 64.3878 22.4105 64.4929 22.6861C64.6009 22.9588 64.7557 23.1705 64.9574 23.321C65.1619 23.4687 65.4134 23.5426 65.7116 23.5426ZM70.3182 25V18.4545H72.1335V25H70.3182ZM71.2301 17.6108C70.9602 17.6108 70.7287 17.5213 70.5355 17.3423C70.3452 17.1605 70.25 16.9432 70.25 16.6903C70.25 16.4403 70.3452 16.2259 70.5355 16.0469C70.7287 15.8651 70.9602 15.7741 71.2301 15.7741C71.5 15.7741 71.7301 15.8651 71.9205 16.0469C72.1136 16.2259 72.2102 16.4403 72.2102 16.6903C72.2102 16.9432 72.1136 17.1605 71.9205 17.3423C71.7301 17.5213 71.5 17.6108 71.2301 17.6108ZM77.0692 18.4545V19.8182H73.1275V18.4545H77.0692ZM74.0224 16.8864H75.8377V22.9886C75.8377 23.1562 75.8633 23.2869 75.9144 23.3807C75.9656 23.4716 76.0366 23.5355 76.1275 23.5724C76.2212 23.6094 76.3292 23.6278 76.4513 23.6278C76.5366 23.6278 76.6218 23.6207 76.707 23.6065C76.7923 23.5895 76.8576 23.5767 76.9031 23.5682L77.1886 24.919C77.0977 24.9474 76.9698 24.9801 76.805 25.017C76.6403 25.0568 76.44 25.081 76.2042 25.0895C75.7667 25.1065 75.3832 25.0483 75.0536 24.9148C74.7269 24.7812 74.4727 24.5739 74.2908 24.2926C74.109 24.0114 74.0195 23.6562 74.0224 23.2273V16.8864ZM80.1183 25.1236C79.7006 25.1236 79.3285 25.0511 79.0018 24.9062C78.6751 24.7585 78.4165 24.5412 78.2262 24.2543C78.0387 23.9645 77.945 23.6037 77.945 23.1719C77.945 22.8082 78.0117 22.5028 78.1452 22.2557C78.2788 22.0085 78.4606 21.8097 78.6907 21.6591C78.9208 21.5085 79.1822 21.3949 79.4748 21.3182C79.7702 21.2415 80.0799 21.1875 80.4038 21.1562C80.7844 21.1165 81.0913 21.0795 81.3242 21.0455C81.5572 21.0085 81.7262 20.9545 81.8313 20.8835C81.9364 20.8125 81.989 20.7074 81.989 20.5682V20.5426C81.989 20.2727 81.9038 20.0639 81.7333 19.9162C81.5657 19.7685 81.3271 19.6946 81.0174 19.6946C80.6907 19.6946 80.4308 19.767 80.2376 19.9119C80.0444 20.054 79.9165 20.233 79.854 20.4489L78.1751 20.3125C78.2603 19.9148 78.4279 19.571 78.6779 19.2812C78.9279 18.9886 79.2504 18.7642 79.6452 18.608C80.043 18.4489 80.5032 18.3693 81.0259 18.3693C81.3896 18.3693 81.7376 18.4119 82.07 18.4972C82.4052 18.5824 82.7021 18.7145 82.9606 18.8935C83.2219 19.0724 83.4279 19.3026 83.5785 19.5838C83.729 19.8622 83.8043 20.196 83.8043 20.5852V25H82.0827V24.0923H82.0316C81.9265 24.2969 81.7859 24.4773 81.6097 24.6335C81.4336 24.7869 81.2219 24.9077 80.9748 24.9957C80.7276 25.081 80.4421 25.1236 80.1183 25.1236ZM80.6381 23.8707C80.9052 23.8707 81.141 23.8182 81.3455 23.7131C81.5501 23.6051 81.7106 23.4602 81.8271 23.2784C81.9435 23.0966 82.0018 22.8906 82.0018 22.6605V21.9659C81.945 22.0028 81.8668 22.0369 81.7674 22.0682C81.6708 22.0966 81.5614 22.1236 81.4393 22.1491C81.3171 22.1719 81.195 22.1932 81.0728 22.2131C80.9506 22.2301 80.8398 22.2457 80.7404 22.2599C80.5273 22.2912 80.3413 22.3409 80.1822 22.4091C80.0231 22.4773 79.8995 22.5696 79.8114 22.6861C79.7234 22.7997 79.6793 22.9418 79.6793 23.1122C79.6793 23.3594 79.7688 23.5483 79.9478 23.679C80.1296 23.8068 80.3597 23.8707 80.6381 23.8707ZM87.0281 16.2727V25H85.2127V16.2727H87.0281Z" fill="#1B152B"/>
</g>
</svg>
