<svg width="155" height="32" viewBox="0 0 155 32" fill="none" xmlns="http://www.w3.org/2000/svg">
<g id="Group 1940685971">
<g id="Group 1940685957">
<path id="Vector" d="M28.1581 6.91895L16.9913 19.9668L18.1913 21.6468L29.081 8.92285H33.4342L18.9757 26.2028L11.4967 15.7326H2.06836L9.51226 26.1463H13.9767L12.5445 24.1424H10.5425L5.96494 17.7385H10.4645L18.8488 29.475L37.7249 6.91895H28.1581Z" fill="white"/>
<path id="Vector_2" d="M28.1873 21.4439C27.0771 24.1307 25.1727 26.3902 22.7766 27.9102C21.0185 29.0263 18.9951 29.7424 16.8293 29.9356C16.4351 29.9707 16.0371 29.9883 15.6351 29.9883C9.37366 29.9883 4.08585 25.6293 2.49756 19.7132C2.17951 18.5288 2.00976 17.2839 2.00976 15.9961C2.00976 15.438 2.04098 14.8878 2.10341 14.3454C2.89951 7.40878 8.66341 2.0078 15.6351 2.0078C19.641 2.0078 23.2507 3.79317 25.7444 6.62829L26.3824 5.88098C26.6127 5.61171 26.8859 5.38927 27.1883 5.21756C27.0302 5.04 26.8663 4.86439 26.6985 4.69268C23.7444 1.66829 19.8146 0 15.6351 0C11.4556 0 7.5239 1.66829 4.56976 4.69463C1.62341 7.71512 0 11.7307 0 16C0 20.2693 1.62341 24.2829 4.56976 27.3054C7.5239 30.3337 11.4537 32 15.6332 32C19.8127 32 23.7424 30.3317 26.6966 27.3054C29.2039 24.7356 30.7532 21.4459 31.159 17.8907L28.1834 21.4459L28.1873 21.4439Z" fill="#47D7AC"/>
<path id="Vector_3" d="M15.6353 5.57129C10.7982 5.57129 6.73775 9.03275 5.6958 13.6591H7.76604C8.75531 10.1508 11.9085 7.57909 15.6353 7.57909C18.2714 7.57909 20.6207 8.8669 22.1212 10.863L23.4519 9.30787C21.5807 7.02495 18.7709 5.57129 15.6373 5.57129H15.6353Z" fill="#47D7AC"/>
</g>
<path id="Union" d="M111.184 6.43945C112.199 6.43945 113.175 6.5999 114.094 6.89453H114.092C117.93 8.12587 120.718 11.7799 120.718 15.9727C120.718 20.1658 117.996 23.7366 114.222 25.0088C113.268 25.3307 112.245 25.5068 111.184 25.5068C110.123 25.5068 109.101 25.3306 108.147 25.0088C104.375 23.7385 101.651 20.2146 101.651 15.9727C101.651 11.7311 104.437 8.12585 108.277 6.89453C109.194 6.59994 110.17 6.4395 111.184 6.43945ZM144.732 6.43945C145.747 6.43946 146.722 6.5999 147.639 6.89453C149.323 7.43502 150.806 8.43196 151.942 9.74121V6.89453H154.265V25.0117H151.942V22.2051L151.731 22.4404C150.657 23.6002 149.299 24.4947 147.77 25.0088C146.816 25.3307 145.793 25.5068 144.732 25.5068C143.67 25.5068 142.648 25.3307 141.694 25.0088C137.922 23.7385 135.199 20.2146 135.199 15.9727C135.199 11.7309 137.985 8.12571 141.825 6.89453C142.742 6.5999 143.717 6.43945 144.732 6.43945ZM67.2896 8.27539C70.0447 6.26173 73.7311 5.85395 76.8784 7.2998C77.4402 7.55538 77.9865 7.87157 78.5054 8.24805C78.6243 8.33581 78.7438 8.42396 78.8589 8.51758L78.8579 8.51855L78.8589 8.51953L77.9282 9.80078L77.563 10.3047L69.0581 22.0137C72.2366 24.0367 76.494 23.2586 78.7358 20.1719C80.1602 18.2109 80.447 15.7615 79.7212 13.625L81.3013 11.46C82.4914 13.6921 82.7565 16.3453 81.9917 18.79C81.6912 19.7481 81.2352 20.6756 80.6128 21.5342C79.9904 22.3906 79.2505 23.112 78.4292 23.6934C75.1921 25.9958 70.714 26.1011 67.3267 23.6406C63.9025 21.1528 62.6258 16.7901 63.8823 12.9697C64.1828 12.0566 64.6262 11.1769 65.2192 10.3574C65.8143 9.53796 66.513 8.84513 67.2896 8.27539ZM52.8677 19.9775H52.8687L58.8862 6.89453H61.4438L54.1479 22.7578V22.7598L53.1118 25.0117H52.6245L51.5903 22.7598L44.2925 6.89453H46.8481L52.8677 19.9775ZM87.2192 6.89453L92.0415 13.4971L96.8589 6.89453H99.7368L93.4771 15.4678L100.445 25.0117H97.5649L92.0405 17.4385L86.5132 25.0117H83.6353L90.6011 15.4678L84.3413 6.89453H87.2192ZM133.282 9.21875H132.144C129.487 9.21894 127.327 11.3806 127.327 14.0381V25.0117H125.003V14.0381C125.003 10.0987 128.207 6.89472 132.144 6.89453H133.282V9.21875ZM111.184 8.76367C107.21 8.76392 103.975 11.9984 103.975 15.9727C103.975 19.9471 107.21 23.1824 111.184 23.1826C115.159 23.1826 118.394 19.9473 118.394 15.9727C118.394 11.9982 115.159 8.76367 111.184 8.76367ZM144.732 8.76367C140.756 8.76367 137.522 11.9982 137.522 15.9727C137.522 19.9473 140.755 23.1826 144.732 23.1826C148.707 23.1826 151.942 19.9473 151.942 15.9727C151.942 11.9982 148.708 8.76369 144.732 8.76367ZM75.481 9.22363C72.519 8.09389 69.0455 9.03396 67.0962 11.7188C65.2077 14.3199 65.3214 17.7746 67.1382 20.2285L67.3188 20.4629L75.481 9.22363Z" fill="white"/>
</g>
</svg>
