<svg width="1920" height="1436" viewBox="0 0 1920 1436" fill="none" xmlns="http://www.w3.org/2000/svg">
<g id="Group 1171276519">
<g id="Hero Section&#39;s Grid">
<path id="Vector" d="M720.387 237.532H597.811V360.108H720.387V237.532Z" fill="url(#paint0_linear_153_1094)" fill-opacity="0.02"/>
<path id="Vector_2" d="M600.875 954.604H478.299V1077.18H600.875V954.604Z" fill="url(#paint1_linear_153_1094)" fill-opacity="0.02"/>
<path id="Vector_3" d="M1796 357.044H1673.42V479.62H1796V357.044Z" fill="url(#paint2_linear_153_1094)" fill-opacity="0.02"/>
<path id="Vector_4" d="M240.807 0.0400391H121.295V119.552M240.807 0.0400391V119.552M240.807 0.0400391H360.319M240.807 119.552H121.295M240.807 119.552H360.319M240.807 119.552V239.064M121.295 119.552V239.064M360.319 0.0400391V119.552M360.319 0.0400391H479.831M360.319 119.552H479.831M360.319 119.552V239.064M479.831 0.0400391V119.552M479.831 0.0400391H599.343M479.831 119.552H599.343M479.831 119.552V239.064M599.343 0.0400391V119.552M599.343 0.0400391H718.855M599.343 119.552H718.855M599.343 119.552V239.064M718.855 0.0400391V119.552M718.855 0.0400391H838.367M718.855 119.552H838.367M718.855 119.552V239.064M838.367 0.0400391V119.552M838.367 0.0400391H957.879M838.367 119.552H957.879M838.367 119.552V239.064M957.879 0.0400391V119.552M957.879 0.0400391H1077.39M957.879 119.552H1077.39M957.879 119.552V239.064M1077.39 0.0400391V119.552M1077.39 0.0400391H1196.9M1077.39 119.552H1196.9M1077.39 119.552V239.064M1196.9 0.0400391V119.552M1196.9 0.0400391H1316.42M1196.9 119.552H1316.42M1196.9 119.552V239.064M1316.42 0.0400391V119.552M1316.42 0.0400391H1435.93M1316.42 119.552H1435.93M1316.42 119.552V239.064M1435.93 0.0400391V119.552M1435.93 0.0400391H1555.44M1435.93 119.552H1555.44M1435.93 119.552V239.064M1555.44 0.0400391V119.552M1555.44 0.0400391H1674.95M1555.44 119.552H1674.95M1555.44 119.552V239.064M1674.95 0.0400391V119.552M1674.95 0.0400391H1794.46M1674.95 119.552H1794.46M1674.95 119.552V239.064M1794.46 0.0400391V119.552M1794.46 0.0400391H1913.98M1794.46 119.552H1913.98M1794.46 119.552V239.064M1913.98 0.0400391V119.552M1913.98 0.0400391H2033.49M1913.98 119.552H2033.49M1913.98 119.552V239.064M2033.49 0.0400391V119.552M2033.49 0.0400391H2153V119.552M2033.49 119.552H2153M2033.49 119.552V239.064M2153 119.552V239.064M240.807 239.064H121.295M240.807 239.064H360.319M240.807 239.064V358.576M121.295 239.064V358.576M360.319 239.064H479.831M360.319 239.064V358.576M479.831 239.064H599.343M479.831 239.064V358.576M599.343 239.064H718.855M599.343 239.064V358.576M718.855 239.064H838.367M718.855 239.064V358.576M838.367 239.064H957.879M838.367 239.064V358.576M957.879 239.064H1077.39M957.879 239.064V358.576M1077.39 239.064H1196.9M1077.39 239.064V358.576M1196.9 239.064H1316.42M1196.9 239.064V358.576M1316.42 239.064H1435.93M1316.42 239.064V358.576M1435.93 239.064H1555.44M1435.93 239.064V358.576M1555.44 239.064H1674.95M1555.44 239.064V358.576M1674.95 239.064H1794.46M1674.95 239.064V358.576M1794.46 239.064H1913.98M1794.46 239.064V358.576M1913.98 239.064H2033.49M1913.98 239.064V358.576M2033.49 239.064H2153M2033.49 239.064V358.576M2153 239.064V358.576M240.807 358.576H121.295M240.807 358.576H360.319M240.807 358.576V478.088M121.295 358.576V478.088M360.319 358.576H479.831M360.319 358.576V478.088M479.831 358.576H599.343M479.831 358.576V478.088M599.343 358.576H718.855M599.343 358.576V478.088M718.855 358.576H838.367M718.855 358.576V478.088M838.367 358.576H957.879M838.367 358.576V478.088M957.879 358.576H1077.39M957.879 358.576V478.088M1077.39 358.576H1196.9M1077.39 358.576V478.088M1196.9 358.576H1316.42M1196.9 358.576V478.088M1316.42 358.576H1435.93M1316.42 358.576V478.088M1435.93 358.576H1555.44M1435.93 358.576V478.088M1555.44 358.576H1674.95M1555.44 358.576V478.088M1674.95 358.576H1794.46M1674.95 358.576V478.088M1794.46 358.576H1913.98M1794.46 358.576V478.088M1913.98 358.576H2033.49M1913.98 358.576V478.088M2033.49 358.576H2153M2033.49 358.576V478.088M2153 358.576V478.088M240.807 478.088H121.295M240.807 478.088H360.319M240.807 478.088V597.6M121.295 478.088V597.6M360.319 478.088H479.831M360.319 478.088V597.6M479.831 478.088H599.343M479.831 478.088V597.6M599.343 478.088H718.855M599.343 478.088V597.6M718.855 478.088H838.367M718.855 478.088V597.6M838.367 478.088H957.879M838.367 478.088V597.6M957.879 478.088H1077.39M957.879 478.088V597.6M1077.39 478.088H1196.9M1077.39 478.088V597.6M1196.9 478.088H1316.42M1196.9 478.088V597.6M1316.42 478.088H1435.93M1316.42 478.088V597.6M1435.93 478.088H1555.44M1435.93 478.088V597.6M1555.44 478.088H1674.95M1555.44 478.088V597.6M1674.95 478.088H1794.46M1674.95 478.088V597.6M1794.46 478.088H1913.98M1794.46 478.088V597.6M1913.98 478.088H2033.49M1913.98 478.088V597.6M2033.49 478.088H2153M2033.49 478.088V597.6M2153 478.088V597.6M240.807 597.6H121.295M240.807 597.6H360.319M240.807 597.6V717.112M121.295 597.6V717.112M360.319 597.6H479.831M360.319 597.6V717.112M479.831 597.6H599.343M479.831 597.6V717.112M599.343 597.6H718.855M599.343 597.6V717.112M718.855 597.6H838.367M718.855 597.6V717.112M838.367 597.6H957.879M838.367 597.6V717.112M957.879 597.6H1077.39M957.879 597.6V717.112M1077.39 597.6H1196.9M1077.39 597.6V717.112M1196.9 597.6H1316.42M1196.9 597.6V717.112M1316.42 597.6H1435.93M1316.42 597.6V717.112M1435.93 597.6H1555.44M1435.93 597.6V717.112M1555.44 597.6H1674.95M1555.44 597.6V717.112M1674.95 597.6H1794.46M1674.95 597.6V717.112M1794.46 597.6H1913.98M1794.46 597.6V717.112M1913.98 597.6H2033.49M1913.98 597.6V717.112M2033.49 597.6H2153M2033.49 597.6V717.112M2153 597.6V717.112M240.807 717.112H121.295M240.807 717.112H360.319M240.807 717.112V836.624M121.295 717.112V836.624M360.319 717.112H479.831M360.319 717.112V836.624M479.831 717.112H599.343M479.831 717.112V836.624M599.343 717.112H718.855M599.343 717.112V836.624M718.855 717.112H838.367M718.855 717.112V836.624M838.367 717.112H957.879M838.367 717.112V836.624M957.879 717.112H1077.39M957.879 717.112V836.624M1077.39 717.112H1196.9M1077.39 717.112V836.624M1196.9 717.112H1316.42M1196.9 717.112V836.624M1316.42 717.112H1435.93M1316.42 717.112V836.624M1435.93 717.112H1555.44M1435.93 717.112V836.624M1555.44 717.112H1674.95M1555.44 717.112V836.624M1674.95 717.112H1794.46M1674.95 717.112V836.624M1794.46 717.112H1913.98M1794.46 717.112V836.624M1913.98 717.112H2033.49M1913.98 717.112V836.624M2033.49 717.112H2153M2033.49 717.112V836.624M2153 717.112V836.624M240.807 836.624H121.295M240.807 836.624H360.319M240.807 836.624V956.136M121.295 836.624V956.136M360.319 836.624H479.831M360.319 836.624V956.136M479.831 836.624H599.343M479.831 836.624V956.136M599.343 836.624H718.855M599.343 836.624V956.136M718.855 836.624H838.367M718.855 836.624V956.136M838.367 836.624H957.879M838.367 836.624V956.136M957.879 836.624H1077.39M957.879 836.624V956.136M1077.39 836.624H1196.9M1077.39 836.624V956.136M1196.9 836.624H1316.42M1196.9 836.624V956.136M1316.42 836.624H1435.93M1316.42 836.624V956.136M1435.93 836.624H1555.44M1435.93 836.624V956.136M1555.44 836.624H1674.95M1555.44 836.624V956.136M1674.95 836.624H1794.46M1674.95 836.624V956.136M1794.46 836.624H1913.98M1794.46 836.624V956.136M1913.98 836.624H2033.49M1913.98 836.624V956.136M2033.49 836.624H2153M2033.49 836.624V956.136M2153 836.624V956.136M240.807 956.136H121.295M240.807 956.136H360.319M240.807 956.136V1075.65M121.295 956.136V1075.65M360.319 956.136H479.831M360.319 956.136V1075.65M479.831 956.136H599.343M479.831 956.136V1075.65M599.343 956.136H718.855M599.343 956.136V1075.65M718.855 956.136H838.367M718.855 956.136V1075.65M838.367 956.136H957.879M838.367 956.136V1075.65M957.879 956.136H1077.39M957.879 956.136V1075.65M1077.39 956.136H1196.9M1077.39 956.136V1075.65M1196.9 956.136H1316.42M1196.9 956.136V1075.65M1316.42 956.136H1435.93M1316.42 956.136V1075.65M1435.93 956.136H1555.44M1435.93 956.136V1075.65M1555.44 956.136H1674.95M1555.44 956.136V1075.65M1674.95 956.136H1794.46M1674.95 956.136V1075.65M1794.46 956.136H1913.98M1794.46 956.136V1075.65M1913.98 956.136H2033.49M1913.98 956.136V1075.65M2033.49 956.136H2153M2033.49 956.136V1075.65M2153 956.136V1075.65M240.807 1075.65H121.295M240.807 1075.65H360.319M240.807 1075.65V1195.16M121.295 1075.65V1195.16M360.319 1075.65H479.831M360.319 1075.65V1195.16M479.831 1075.65H599.343M479.831 1075.65V1195.16M599.343 1075.65H718.855M599.343 1075.65V1195.16M718.855 1075.65H838.367M718.855 1075.65V1195.16M838.367 1075.65H957.879M838.367 1075.65V1195.16M957.879 1075.65H1077.39M957.879 1075.65V1195.16M1077.39 1075.65H1196.9M1077.39 1075.65V1195.16M1196.9 1075.65H1316.42M1196.9 1075.65V1195.16M1316.42 1075.65H1435.93M1316.42 1075.65V1195.16M1435.93 1075.65H1555.44M1435.93 1075.65V1195.16M1555.44 1075.65H1674.95M1555.44 1075.65V1195.16M1674.95 1075.65H1794.46M1674.95 1075.65V1195.16M1794.46 1075.65H1913.98M1794.46 1075.65V1195.16M1913.98 1075.65H2033.49M1913.98 1075.65V1195.16M2033.49 1075.65H2153M2033.49 1075.65V1195.16M2153 1075.65V1195.16M240.807 1195.16H121.295M240.807 1195.16H360.319M240.807 1195.16V1314.67M121.295 1195.16V1314.67M360.319 1195.16H479.831M360.319 1195.16V1314.67M479.831 1195.16H599.343M479.831 1195.16V1314.67M599.343 1195.16H718.855M599.343 1195.16V1314.67M718.855 1195.16H838.367M718.855 1195.16V1314.67M838.367 1195.16H957.879M838.367 1195.16V1314.67M957.879 1195.16H1077.39M957.879 1195.16V1314.67M1077.39 1195.16H1196.9M1077.39 1195.16V1314.67M1196.9 1195.16H1316.42M1196.9 1195.16V1314.67M1316.42 1195.16H1435.93M1316.42 1195.16V1314.67M1435.93 1195.16H1555.44M1435.93 1195.16V1314.67M1555.44 1195.16H1674.95M1555.44 1195.16V1314.67M1674.95 1195.16H1794.46M1674.95 1195.16V1314.67M1794.46 1195.16H1913.98M1794.46 1195.16V1314.67M1913.98 1195.16H2033.49M1913.98 1195.16V1314.67M2033.49 1195.16H2153M2033.49 1195.16V1314.67M2153 1195.16V1314.67M240.807 1314.67H121.295M240.807 1314.67H360.319M240.807 1314.67V1434.18M121.295 1314.67V1434.18H240.807M360.319 1314.67H479.831M360.319 1314.67V1434.18M479.831 1314.67H599.343M479.831 1314.67V1434.18M599.343 1314.67H718.855M599.343 1314.67V1434.18M718.855 1314.67H838.367M718.855 1314.67V1434.18M838.367 1314.67H957.879M838.367 1314.67V1434.18M957.879 1314.67H1077.39M957.879 1314.67V1434.18M1077.39 1314.67H1196.9M1077.39 1314.67V1434.18M1196.9 1314.67H1316.42M1196.9 1314.67V1434.18M1316.42 1314.67H1435.93M1316.42 1314.67V1434.18M1435.93 1314.67H1555.44M1435.93 1314.67V1434.18M1555.44 1314.67H1674.95M1555.44 1314.67V1434.18M1674.95 1314.67H1794.46M1674.95 1314.67V1434.18M1794.46 1314.67H1913.98M1794.46 1314.67V1434.18M1913.98 1314.67H2033.49M1913.98 1314.67V1434.18M2033.49 1314.67H2153M2033.49 1314.67V1434.18M2153 1314.67V1434.18H2033.49M240.807 1434.18H360.319M360.319 1434.18H479.831M479.831 1434.18H599.343M599.343 1434.18H718.855M718.855 1434.18H838.367M838.367 1434.18H957.879M957.879 1434.18H1077.39M1077.39 1434.18H1196.9M1196.9 1434.18H1316.42M1316.42 1434.18H1435.93M1435.93 1434.18H1555.44M1555.44 1434.18H1674.95M1674.95 1434.18H1794.46M1794.46 1434.18H1913.98M1913.98 1434.18H2033.49" stroke="url(#paint3_radial_153_1094)" stroke-opacity="0.08" stroke-width="3.06441"/>
</g>
<g id="Hero Section&#39;s Stars">
<path id="Vector_5" d="M257.542 820.027C257.899 819.231 257.132 818.462 256.338 818.82C256.166 818.9 256.034 819.032 255.954 819.205C255.584 820.001 256.364 820.77 257.158 820.412C257.33 820.332 257.462 820.199 257.542 820.027Z" fill="white" fill-opacity="0.1"/>
<path id="Vector_6" d="M894.207 866.112C894.565 865.316 893.795 864.547 892.999 864.905C892.827 864.984 892.694 865.117 892.615 865.289C892.257 866.085 893.026 866.855 893.822 866.497C893.994 866.417 894.127 866.284 894.207 866.112Z" fill="white" fill-opacity="0.1"/>
<path id="Vector_7" d="M756.769 790.152C757.126 789.356 756.359 788.587 755.565 788.945C755.393 789.024 755.261 789.157 755.182 789.329C754.811 790.125 755.592 790.895 756.386 790.537C756.558 790.457 756.69 790.324 756.769 790.152Z" fill="white" fill-opacity="0.1"/>
<path id="Vector_8" d="M570.097 425.181C570.467 424.385 569.686 423.616 568.893 423.974C568.721 424.053 568.588 424.186 568.509 424.359C568.152 425.154 568.919 425.924 569.713 425.566C569.885 425.486 570.017 425.353 570.097 425.181Z" fill="white" fill-opacity="0.1"/>
<path id="Vector_9" d="M685.218 404.751C685.588 403.957 684.808 403.176 684.014 403.547C683.842 403.626 683.709 403.759 683.63 403.931C683.273 404.724 684.04 405.492 684.834 405.135C685.006 405.055 685.138 404.923 685.218 404.751Z" fill="white" fill-opacity="0.1"/>
<path id="Vector_10" d="M1433.87 898.276C1434.23 897.48 1433.46 896.71 1432.67 897.068C1432.49 897.148 1432.36 897.281 1432.28 897.453C1431.92 898.249 1432.69 899.018 1433.49 898.66C1433.66 898.581 1433.79 898.448 1433.87 898.276Z" fill="white" fill-opacity="0.8"/>
<path id="Vector_11" d="M1591.57 943.693C1591.94 942.897 1591.16 942.127 1590.37 942.485C1590.19 942.565 1590.06 942.698 1589.98 942.87C1589.62 943.666 1590.39 944.435 1591.19 944.077C1591.36 943.998 1591.49 943.865 1591.57 943.693Z" fill="white" fill-opacity="0.1"/>
<path id="Vector_12" d="M1917.23 762.488C1917.6 761.693 1916.82 760.923 1916.02 761.281C1915.85 761.361 1915.72 761.494 1915.64 761.666C1915.28 762.462 1916.05 763.231 1916.84 762.873C1917.02 762.794 1917.15 762.661 1917.23 762.488Z" fill="white" fill-opacity="0.1"/>
<path id="Vector_13" d="M1915.62 257.035C1915.98 256.239 1915.21 255.47 1914.42 255.828C1914.24 255.908 1914.11 256.04 1914.03 256.213C1913.66 257.009 1914.44 257.778 1915.24 257.42C1915.41 257.34 1915.54 257.208 1915.62 257.035Z" fill="white" fill-opacity="0.1"/>
<path id="Vector_14" d="M1903.58 352.342C1903.95 351.546 1903.17 350.777 1902.38 351.135C1902.21 351.214 1902.07 351.347 1902 351.52C1901.64 352.315 1902.41 353.085 1903.2 352.727C1903.37 352.647 1903.5 352.514 1903.58 352.342Z" fill="white" fill-opacity="0.1"/>
<path id="Vector_15" d="M1907.13 542.001C1907.5 541.205 1906.72 540.435 1905.92 540.793C1905.75 540.873 1905.62 541.006 1905.54 541.178C1905.18 541.974 1905.95 542.743 1906.74 542.385C1906.91 542.306 1907.05 542.173 1907.13 542.001Z" fill="white" fill-opacity="0.1"/>
<path id="Vector_16" d="M700.051 588.086C700.408 587.29 699.64 586.521 698.847 586.879C698.675 586.959 698.542 587.091 698.463 587.264C698.093 588.06 698.873 588.829 699.667 588.471C699.839 588.391 699.971 588.259 700.051 588.086Z" fill="white" fill-opacity="0.1"/>
<path id="Vector_17" d="M1148.5 852.19C1148.85 851.395 1148.08 850.625 1147.29 850.983C1147.12 851.063 1146.98 851.196 1146.9 851.368C1146.55 852.164 1147.31 852.933 1148.11 852.575C1148.28 852.496 1148.42 852.363 1148.5 852.19Z" fill="white" fill-opacity="0.1"/>
<path id="Vector_18" d="M908.099 783.135C908.469 782.339 907.688 781.57 906.895 781.928C906.723 782.008 906.59 782.14 906.511 782.313C906.154 783.109 906.921 783.878 907.715 783.52C907.887 783.44 908.019 783.308 908.099 783.135Z" fill="white" fill-opacity="0.1"/>
<path id="Vector_19" d="M456.955 889.018C457.312 888.222 456.545 887.453 455.751 887.811C455.579 887.89 455.447 888.023 455.367 888.196C454.997 888.991 455.777 889.761 456.571 889.403C456.743 889.323 456.875 889.19 456.955 889.018Z" fill="white" fill-opacity="0.1"/>
<path id="Vector_20" d="M1524.26 244.218C1524.63 243.423 1523.85 242.653 1523.06 243.011C1522.89 243.091 1522.76 243.224 1522.68 243.396C1522.32 244.192 1523.09 244.961 1523.88 244.603C1524.05 244.524 1524.19 244.391 1524.26 244.218Z" fill="white" fill-opacity="0.8"/>
<path id="Vector_21" d="M703.599 947.905C703.957 947.109 703.189 946.34 702.395 946.698C702.223 946.778 702.091 946.91 702.012 947.083C701.641 947.879 702.422 948.648 703.216 948.29C703.388 948.21 703.52 948.078 703.599 947.905Z" fill="white" fill-opacity="0.8"/>
<path id="Vector_22" d="M469.622 325.754C469.992 324.958 469.212 324.189 468.418 324.547C468.246 324.627 468.114 324.759 468.034 324.932C467.677 325.728 468.445 326.497 469.238 326.139C469.41 326.059 469.543 325.927 469.622 325.754Z" fill="white" fill-opacity="0.1"/>
<path id="Vector_23" d="M687.644 260.171C688.001 259.375 687.234 258.606 686.44 258.964C686.268 259.044 686.136 259.176 686.057 259.349C685.686 260.145 686.467 260.914 687.261 260.556C687.433 260.476 687.565 260.344 687.644 260.171Z" fill="white" fill-opacity="0.8"/>
<path id="Vector_24" d="M175.388 722.797C175.746 722.001 174.977 721.232 174.181 721.59C174.009 721.669 173.876 721.802 173.796 721.974C173.438 722.77 174.208 723.54 175.003 723.182C175.176 723.102 175.309 722.969 175.388 722.797Z" fill="white" fill-opacity="0.8"/>
<path id="Vector_25" d="M281.064 687.606C281.435 686.81 280.654 686.041 279.86 686.399C279.688 686.478 279.556 686.611 279.477 686.784C279.12 687.579 279.887 688.349 280.681 687.991C280.853 687.911 280.985 687.778 281.064 687.606Z" fill="white" fill-opacity="0.1"/>
<path id="Vector_26" d="M295.917 481.735C296.276 480.939 295.506 480.17 294.71 480.528C294.538 480.607 294.405 480.74 294.326 480.912C293.967 481.708 294.737 482.478 295.533 482.12C295.705 482.04 295.838 481.907 295.917 481.735Z" fill="white" fill-opacity="0.1"/>
<path id="Vector_27" d="M283.51 575.679C283.868 574.883 283.1 574.113 282.307 574.472C282.135 574.551 282.002 574.684 281.923 574.856C281.552 575.652 282.333 576.421 283.127 576.063C283.299 575.984 283.431 575.851 283.51 575.679Z" fill="white" fill-opacity="0.1"/>
<path id="Vector_28" d="M442.859 955.31C443.216 954.515 442.449 953.745 441.655 954.103C441.483 954.183 441.351 954.316 441.272 954.488C440.901 955.284 441.682 956.053 442.475 955.695C442.647 955.616 442.78 955.483 442.859 955.31Z" fill="white" fill-opacity="0.8"/>
<path id="Vector_29" d="M684.613 690.413C684.971 689.617 684.202 688.848 683.406 689.206C683.233 689.285 683.101 689.418 683.021 689.591C682.663 690.386 683.432 691.156 684.228 690.798C684.401 690.718 684.533 690.585 684.613 690.413Z" fill="white" fill-opacity="0.1"/>
<path id="Vector_30" d="M625.039 619.331C625.397 618.535 624.627 617.765 623.831 618.123C623.659 618.203 623.526 618.336 623.447 618.508C623.089 619.304 623.858 620.073 624.654 619.715C624.826 619.636 624.959 619.503 625.039 619.331Z" fill="white" fill-opacity="0.8"/>
<path id="Vector_31" d="M388.655 489.21C389.451 489.568 390.22 488.8 389.862 488.007C389.782 487.835 389.65 487.702 389.477 487.623C388.681 487.252 387.912 488.033 388.27 488.827C388.35 488.999 388.482 489.131 388.655 489.21Z" fill="white" fill-opacity="0.8"/>
<path id="Vector_32" d="M463.23 755.66C463.587 754.864 462.82 754.095 462.026 754.453C461.854 754.533 461.722 754.665 461.643 754.838C461.272 755.634 462.053 756.403 462.847 756.045C463.019 755.965 463.151 755.833 463.23 755.66Z" fill="white" fill-opacity="0.1"/>
<path id="Vector_33" d="M1022.65 832.692C1023.01 831.897 1022.24 831.127 1021.44 831.485C1021.27 831.565 1021.14 831.698 1021.06 831.87C1020.69 832.666 1021.47 833.435 1022.26 833.077C1022.44 832.998 1022.57 832.865 1022.65 832.692Z" fill="white" fill-opacity="0.1"/>
<path id="Vector_34" d="M1269.03 969.173C1269.39 968.379 1268.62 967.611 1267.83 967.969C1267.65 968.048 1267.52 968.18 1267.44 968.352C1267.07 969.146 1267.85 969.927 1268.65 969.556C1268.82 969.477 1268.95 969.344 1269.03 969.173Z" fill="white" fill-opacity="0.1"/>
<path id="Vector_35" d="M1148.5 914.228C1148.85 913.432 1148.08 912.663 1147.29 913.021C1147.12 913.1 1146.98 913.233 1146.9 913.406C1146.55 914.201 1147.31 914.971 1148.11 914.613C1148.28 914.533 1148.42 914.4 1148.5 914.228Z" fill="white" fill-opacity="0.8"/>
<path id="Vector_36" d="M1684.6 667.783C1684.96 666.987 1684.19 666.218 1683.4 666.576C1683.23 666.656 1683.09 666.788 1683.01 666.961C1682.64 667.757 1683.42 668.526 1684.22 668.168C1684.39 668.088 1684.52 667.956 1684.6 667.783Z" fill="white" fill-opacity="0.8"/>
<path id="Vector_37" d="M672.488 385.647C672.845 384.851 672.078 384.082 671.284 384.44C671.112 384.519 670.98 384.652 670.9 384.824C670.53 385.62 671.311 386.39 672.104 386.031C672.276 385.952 672.409 385.819 672.488 385.647Z" fill="white" fill-opacity="0.1"/>
<path id="Vector_38" d="M1811.95 419.74C1812.3 418.944 1811.54 418.175 1810.74 418.533C1810.57 418.612 1810.44 418.745 1810.36 418.917C1809.99 419.713 1810.77 420.483 1811.56 420.125C1811.74 420.045 1811.87 419.912 1811.95 419.74Z" fill="white" fill-opacity="0.1"/>
<path id="Vector_39" d="M1838.05 273.35C1838.4 272.556 1837.64 271.789 1836.84 272.146C1836.67 272.225 1836.54 272.357 1836.46 272.529C1836.09 273.323 1836.87 274.104 1837.66 273.733C1837.83 273.654 1837.97 273.522 1838.05 273.35Z" fill="white" fill-opacity="0.1"/>
<path id="Vector_40" d="M1715.87 596.04C1716.23 595.245 1715.46 594.475 1714.67 594.833C1714.5 594.913 1714.36 595.046 1714.29 595.218C1713.91 596.014 1714.7 596.783 1715.49 596.425C1715.66 596.346 1715.79 596.213 1715.87 596.04Z" fill="white" fill-opacity="0.1"/>
<path id="Vector_41" d="M171.843 244.215C172.201 243.421 171.433 242.654 170.64 243.011C170.468 243.09 170.335 243.223 170.256 243.395C169.885 244.189 170.666 244.969 171.46 244.599C171.632 244.519 171.764 244.387 171.843 244.215Z" fill="white" fill-opacity="0.1"/>
<path id="Vector_42" d="M1164.44 263.716C1164.81 262.92 1164.03 262.151 1163.24 262.509C1163.07 262.589 1162.94 262.721 1162.86 262.894C1162.5 263.69 1163.27 264.459 1164.06 264.101C1164.23 264.021 1164.36 263.889 1164.44 263.716Z" fill="white" fill-opacity="0.1"/>
<path id="Vector_43" d="M894.406 727.143C894.764 726.347 893.995 725.577 893.199 725.936C893.026 726.015 892.894 726.148 892.814 726.32C892.456 727.116 893.225 727.885 894.021 727.527C894.193 727.448 894.326 727.315 894.406 727.143Z" fill="white" fill-opacity="0.1"/>
<path id="Vector_44" d="M1001.52 285.573C1001.88 284.779 1001.11 284.012 1000.32 284.369C1000.14 284.449 1000.01 284.581 999.932 284.753C999.561 285.547 1000.34 286.327 1001.14 285.957C1001.31 285.877 1001.44 285.745 1001.52 285.573Z" fill="white" fill-opacity="0.1"/>
<path id="Vector_45" d="M1763.55 783.063C1763.92 782.267 1763.14 781.497 1762.35 781.855C1762.18 781.935 1762.05 782.068 1761.97 782.24C1761.61 783.036 1762.38 783.805 1763.17 783.447C1763.34 783.368 1763.47 783.235 1763.55 783.063Z" fill="white" fill-opacity="0.8"/>
<path id="Vector_46" d="M255.433 311.842C255.804 311.046 255.023 310.277 254.23 310.635C254.058 310.714 253.925 310.847 253.846 311.019C253.489 311.815 254.256 312.585 255.05 312.227C255.222 312.147 255.354 312.014 255.433 311.842Z" fill="white" fill-opacity="0.8"/>
<path id="Vector_47" d="M1.68211 331.072C2.04028 330.276 1.27088 329.507 0.474966 329.865C0.302517 329.945 0.169893 330.077 0.0903015 330.25C-0.267862 331.046 0.50149 331.815 1.29741 331.457C1.46986 331.377 1.60252 331.245 1.68211 331.072Z" fill="white" fill-opacity="0.1"/>
<path id="Vector_48" d="M262.879 396.944C263.238 396.148 262.468 395.379 261.672 395.737C261.5 395.817 261.367 395.95 261.288 396.122C260.929 396.918 261.699 397.687 262.495 397.329C262.667 397.249 262.8 397.117 262.879 396.944Z" fill="white" fill-opacity="0.1"/>
<path id="Vector_49" d="M798.675 286.759C799.033 285.963 798.264 285.194 797.468 285.552C797.296 285.631 797.163 285.764 797.083 285.936C796.725 286.732 797.495 287.502 798.291 287.144C798.463 287.064 798.596 286.931 798.675 286.759Z" fill="white" fill-opacity="0.1"/>
<path id="Vector_50" d="M842.548 986.132C842.918 985.336 842.138 984.567 841.344 984.925C841.172 985.004 841.04 985.137 840.96 985.31C840.603 986.105 841.37 986.875 842.164 986.517C842.336 986.437 842.468 986.304 842.548 986.132Z" fill="white" fill-opacity="0.1"/>
<path id="Vector_51" d="M1417.36 349.592C1417.71 348.796 1416.95 348.026 1416.15 348.385C1415.98 348.464 1415.85 348.597 1415.77 348.769C1415.4 349.565 1416.18 350.335 1416.97 349.976C1417.14 349.897 1417.28 349.764 1417.36 349.592Z" fill="white" fill-opacity="0.1"/>
<path id="Vector_52" d="M1488.95 296.735C1489.32 295.939 1488.54 295.17 1487.74 295.528C1487.57 295.608 1487.44 295.74 1487.36 295.913C1487 296.709 1487.77 297.478 1488.56 297.12C1488.73 297.04 1488.87 296.908 1488.95 296.735Z" fill="white" fill-opacity="0.1"/>
<path id="Vector_53" d="M324.279 641.261C324.636 640.465 323.869 639.696 323.075 640.054C322.903 640.133 322.771 640.266 322.691 640.438C322.321 641.234 323.102 642.004 323.895 641.646C324.067 641.566 324.2 641.433 324.279 641.261Z" fill="white" fill-opacity="0.1"/>
<path id="Vector_54" d="M764.986 382.289C765.344 381.493 764.575 380.723 763.779 381.082C763.606 381.161 763.474 381.294 763.394 381.466C763.036 382.262 763.805 383.032 764.601 382.673C764.774 382.594 764.906 382.461 764.986 382.289Z" fill="white" fill-opacity="0.1"/>
<path id="Vector_55" d="M1585.96 785.669C1586.33 784.873 1585.55 784.104 1584.75 784.462C1584.58 784.542 1584.45 784.674 1584.37 784.847C1584.01 785.643 1584.78 786.412 1585.57 786.054C1585.74 785.974 1585.88 785.842 1585.96 785.669Z" fill="white" fill-opacity="0.1"/>
<path id="Vector_56" d="M639.968 526.048C639.61 525.252 640.379 524.483 641.175 524.841C641.348 524.921 641.48 525.053 641.56 525.226C641.918 526.022 641.149 526.791 640.353 526.433C640.18 526.353 640.048 526.221 639.968 526.048Z" fill="white" fill-opacity="0.1"/>
<path id="Vector_57" d="M1205.4 891.185C1205.04 890.389 1205.81 889.62 1206.61 889.978C1206.78 890.057 1206.91 890.19 1206.99 890.362C1207.35 891.158 1206.58 891.928 1205.78 891.57C1205.61 891.49 1205.48 891.357 1205.4 891.185Z" fill="white" fill-opacity="0.1"/>
<path id="Vector_58" d="M535.388 864.556C535.031 863.76 535.798 862.991 536.592 863.349C536.764 863.429 536.896 863.561 536.975 863.734C537.346 864.53 536.565 865.299 535.772 864.941C535.6 864.861 535.467 864.729 535.388 864.556Z" fill="white" fill-opacity="0.1"/>
<path id="Vector_59" d="M1038.78 894.731C1038.42 893.935 1039.19 893.166 1039.99 893.524C1040.16 893.603 1040.29 893.736 1040.37 893.908C1040.73 894.704 1039.96 895.474 1039.17 895.116C1038.99 895.036 1038.86 894.903 1038.78 894.731Z" fill="white" fill-opacity="0.1"/>
<path id="Vector_60" d="M1267.44 919.542C1267.08 918.748 1267.85 917.981 1268.64 918.338C1268.81 918.418 1268.94 918.55 1269.02 918.722C1269.39 919.516 1268.61 920.296 1267.82 919.926C1267.65 919.846 1267.52 919.714 1267.44 919.542Z" fill="white" fill-opacity="0.1"/>
<path id="Vector_61" d="M460.779 712.273C460.421 711.477 461.189 710.707 461.982 711.066C462.154 711.145 462.287 711.278 462.366 711.45C462.737 712.246 461.956 713.016 461.162 712.657C460.99 712.578 460.858 712.445 460.779 712.273Z" fill="white" fill-opacity="0.1"/>
<path id="Vector_62" d="M360.293 423.812C361.089 423.442 361.859 424.222 361.501 425.016C361.421 425.188 361.288 425.32 361.116 425.4C360.32 425.757 359.551 424.99 359.909 424.196C359.988 424.024 360.121 423.891 360.293 423.812Z" fill="white" fill-opacity="0.1"/>
<path id="Vector_63" d="M202.158 691.322C201.801 690.526 202.569 689.756 203.362 690.114C203.534 690.194 203.667 690.327 203.746 690.499C204.116 691.295 203.336 692.064 202.542 691.706C202.37 691.627 202.238 691.494 202.158 691.322Z" fill="white" fill-opacity="0.1"/>
<path id="Vector_64" d="M1629.54 285.283C1629.17 284.487 1629.95 283.718 1630.74 284.076C1630.92 284.155 1631.05 284.288 1631.13 284.46C1631.48 285.256 1630.72 286.026 1629.92 285.668C1629.75 285.588 1629.62 285.455 1629.54 285.283Z" fill="white" fill-opacity="0.8"/>
<path id="Vector_65" d="M1833.76 762.6C1833.39 761.806 1834.17 761.025 1834.96 761.396C1835.13 761.475 1835.26 761.608 1835.34 761.78C1835.7 762.573 1834.93 763.341 1834.14 762.983C1833.97 762.904 1833.84 762.772 1833.76 762.6Z" fill="white" fill-opacity="0.1"/>
<path id="Vector_66" d="M1898.95 841.5C1898.57 840.704 1899.36 839.934 1900.15 840.292C1900.32 840.372 1900.45 840.505 1900.53 840.677C1900.89 841.473 1900.12 842.242 1899.33 841.884C1899.16 841.805 1899.02 841.672 1898.95 841.5Z" fill="white" fill-opacity="0.8"/>
<path id="Vector_67" d="M1894.91 643.034C1894.54 642.238 1895.32 641.469 1896.11 641.827C1896.28 641.907 1896.42 642.039 1896.5 642.212C1896.85 643.008 1896.09 643.777 1895.29 643.419C1895.12 643.339 1894.99 643.207 1894.91 643.034Z" fill="white" fill-opacity="0.1"/>
<path id="Vector_68" d="M1350.74 230.039C1350.39 229.243 1351.15 228.473 1351.95 228.832C1352.12 228.911 1352.25 229.044 1352.33 229.216C1352.7 230.012 1351.92 230.782 1351.13 230.423C1350.96 230.344 1350.82 230.211 1350.74 230.039Z" fill="white" fill-opacity="0.1"/>
<path id="Vector_69" d="M1308.85 248.61C1308.49 247.814 1309.26 247.045 1310.05 247.403C1310.22 247.483 1310.36 247.615 1310.44 247.788C1310.8 248.584 1310.03 249.353 1309.23 248.995C1309.06 248.915 1308.92 248.782 1308.85 248.61Z" fill="white" fill-opacity="0.1"/>
<path id="Vector_70" d="M331.486 832.69C331.128 831.894 331.897 831.125 332.693 831.483C332.865 831.562 332.998 831.695 333.078 831.868C333.436 832.663 332.666 833.433 331.871 833.075C331.698 832.995 331.565 832.862 331.486 832.69Z" fill="white" fill-opacity="0.1"/>
<path id="Vector_71" d="M115.308 614.675C114.937 613.881 115.718 613.101 116.512 613.471C116.684 613.551 116.816 613.683 116.895 613.855C117.252 614.649 116.485 615.416 115.691 615.059C115.519 614.979 115.387 614.847 115.308 614.675Z" fill="white" fill-opacity="0.1"/>
<path id="Vector_72" d="M177.333 578.201C176.963 577.405 177.743 576.635 178.537 576.994C178.709 577.073 178.841 577.206 178.921 577.378C179.278 578.174 178.511 578.944 177.717 578.585C177.545 578.506 177.412 578.373 177.333 578.201Z" fill="white" fill-opacity="0.8"/>
<path id="Vector_73" d="M487.818 618.486C487.46 617.69 488.228 616.921 489.021 617.279C489.193 617.358 489.326 617.491 489.405 617.664C489.776 618.459 488.995 619.229 488.201 618.871C488.029 618.791 487.897 618.658 487.818 618.486Z" fill="white" fill-opacity="0.1"/>
<path id="Vector_74" d="M40.8576 428.56C40.5004 427.764 41.2678 426.995 42.0616 427.353C42.2336 427.432 42.3658 427.565 42.4452 427.737C42.8156 428.533 42.0351 429.303 41.2413 428.945C41.0693 428.865 40.937 428.732 40.8576 428.56Z" fill="white" fill-opacity="0.1"/>
<path id="Vector_75" d="M1437.29 262.706C1436.93 261.91 1437.7 261.141 1438.5 261.499C1438.67 261.579 1438.8 261.711 1438.88 261.884C1439.24 262.68 1438.47 263.449 1437.68 263.091C1437.5 263.011 1437.37 262.879 1437.29 262.706Z" fill="white" fill-opacity="0.1"/>
<path id="Vector_76" d="M372.794 591.47C372.437 590.674 373.204 589.905 373.998 590.263C374.17 590.342 374.302 590.475 374.382 590.647C374.752 591.443 373.972 592.213 373.178 591.855C373.006 591.775 372.874 591.642 372.794 591.47Z" fill="white" fill-opacity="0.1"/>
<path id="Vector_77" d="M896.982 249.536C896.624 248.74 897.393 247.971 898.189 248.329C898.361 248.408 898.494 248.541 898.574 248.714C898.932 249.509 898.162 250.279 897.367 249.921C897.194 249.841 897.061 249.708 896.982 249.536Z" fill="white" fill-opacity="0.1"/>
<path id="Vector_78" d="M803.654 352.337C803.296 351.541 804.064 350.772 804.857 351.13C805.029 351.21 805.162 351.342 805.241 351.515C805.612 352.311 804.831 353.08 804.037 352.722C803.865 352.642 803.733 352.51 803.654 352.337Z" fill="white" fill-opacity="0.1"/>
<path id="Vector_79" d="M970.855 352.84C970.497 352.044 971.266 351.275 972.062 351.633C972.235 351.712 972.367 351.845 972.447 352.018C972.805 352.813 972.036 353.583 971.24 353.225C971.067 353.145 970.935 353.012 970.855 352.84Z" fill="white" fill-opacity="0.1"/>
<path id="Vector_80" d="M679.896 871.328C679.538 870.532 680.307 869.763 681.103 870.121C681.276 870.201 681.408 870.333 681.488 870.506C681.846 871.302 681.077 872.071 680.281 871.713C680.108 871.633 679.976 871.501 679.896 871.328Z" fill="white" fill-opacity="0.1"/>
<path id="Vector_81" d="M1886.94 880.519C1886.57 879.723 1887.35 878.954 1888.14 879.312C1888.32 879.391 1888.45 879.524 1888.53 879.696C1888.88 880.492 1888.12 881.262 1887.32 880.904C1887.15 880.824 1887.02 880.691 1886.94 880.519Z" fill="white" fill-opacity="0.8"/>
<path id="Vector_82" d="M982.064 914.228C981.706 913.432 982.475 912.663 983.271 913.021C983.443 913.1 983.576 913.233 983.656 913.406C984.014 914.202 983.245 914.971 982.449 914.613C982.276 914.533 982.144 914.4 982.064 914.228Z" fill="white" fill-opacity="0.1"/>
<path id="Vector_83" d="M1102.59 965.631C1102.24 964.835 1103 964.065 1103.8 964.424C1103.97 964.503 1104.11 964.636 1104.19 964.808C1104.54 965.604 1103.77 966.374 1102.98 966.015C1102.81 965.936 1102.67 965.803 1102.59 965.631Z" fill="white" fill-opacity="0.8"/>
<path id="Vector_84" d="M1318.1 844.676C1317.74 843.88 1318.51 843.11 1319.3 843.468C1319.48 843.548 1319.61 843.681 1319.69 843.853C1320.05 844.649 1319.28 845.418 1318.48 845.06C1318.31 844.981 1318.18 844.848 1318.1 844.676Z" fill="white" fill-opacity="0.8"/>
<path id="Vector_85" d="M889.888 923.091C889.53 922.295 890.299 921.526 891.095 921.884C891.268 921.963 891.4 922.096 891.48 922.268C891.838 923.064 891.069 923.834 890.273 923.476C890.1 923.396 889.968 923.263 889.888 923.091Z" fill="white" fill-opacity="0.8"/>
<path id="Vector_86" d="M962.564 985.128C962.206 984.332 962.974 983.563 963.768 983.921C963.94 984 964.072 984.133 964.151 984.306C964.522 985.101 963.741 985.871 962.947 985.513C962.775 985.433 962.643 985.3 962.564 985.128Z" fill="white" fill-opacity="0.1"/>
<path id="Vector_87" d="M476.896 378.93C476.539 378.134 477.306 377.364 478.1 377.722C478.272 377.802 478.404 377.935 478.483 378.107C478.854 378.903 478.073 379.672 477.279 379.314C477.107 379.235 476.975 379.102 476.896 378.93Z" fill="white" fill-opacity="0.1"/>
<path id="Vector_88" d="M1519.73 855.706C1519.37 854.91 1520.14 854.14 1520.94 854.498C1521.11 854.578 1521.24 854.711 1521.32 854.883C1521.69 855.679 1520.91 856.448 1520.12 856.09C1519.94 856.011 1519.81 855.878 1519.73 855.706Z" fill="white" fill-opacity="0.1"/>
<path id="Vector_89" d="M1458.68 833.113C1458.31 832.317 1459.09 831.548 1459.88 831.906C1460.05 831.986 1460.18 832.118 1460.26 832.291C1460.62 833.087 1459.85 833.856 1459.06 833.498C1458.89 833.418 1458.76 833.286 1458.68 833.113Z" fill="white" fill-opacity="0.1"/>
<path id="Vector_90" d="M1769.06 513.642C1768.69 512.849 1769.47 512.068 1770.26 512.438C1770.44 512.518 1770.57 512.65 1770.65 512.822C1771.01 513.616 1770.24 514.383 1769.44 514.026C1769.27 513.947 1769.14 513.814 1769.06 513.642Z" fill="white" fill-opacity="0.1"/>
<path id="Vector_91" d="M1647.89 331.972C1647.53 331.176 1648.3 330.407 1649.09 330.765C1649.27 330.844 1649.4 330.977 1649.48 331.149C1649.84 331.945 1649.07 332.715 1648.27 332.357C1648.1 332.277 1647.97 332.144 1647.89 331.972Z" fill="white" fill-opacity="0.8"/>
<path id="Vector_92" d="M1554.58 355.887C1554.22 355.091 1554.99 354.322 1555.79 354.68C1555.96 354.76 1556.09 354.892 1556.17 355.065C1556.54 355.861 1555.76 356.63 1554.96 356.272C1554.79 356.192 1554.66 356.06 1554.58 355.887Z" fill="white" fill-opacity="0.1"/>
<path id="Vector_93" d="M1681.93 855.141C1681.57 854.346 1682.34 853.576 1683.13 853.934C1683.31 854.014 1683.44 854.147 1683.52 854.319C1683.88 855.115 1683.11 855.884 1682.31 855.526C1682.14 855.447 1682.01 855.314 1681.93 855.141Z" fill="white" fill-opacity="0.1"/>
<path id="Vector_94" d="M1658.13 394.631C1657.76 393.836 1658.54 393.066 1659.33 393.424C1659.5 393.504 1659.64 393.637 1659.72 393.809C1660.07 394.605 1659.31 395.374 1658.51 395.016C1658.34 394.937 1658.21 394.804 1658.13 394.631Z" fill="white" fill-opacity="0.1"/>
<path id="Vector_95" d="M1758.42 325.751C1758.06 324.957 1758.83 324.19 1759.62 324.547C1759.8 324.626 1759.93 324.759 1760.01 324.93C1760.38 325.724 1759.6 326.505 1758.8 326.134C1758.63 326.055 1758.5 325.923 1758.42 325.751Z" fill="white" fill-opacity="0.1"/>
<path id="Vector_96" d="M1840.93 661.227C1840.58 660.431 1841.34 659.661 1842.14 660.02C1842.31 660.099 1842.44 660.232 1842.52 660.404C1842.89 661.2 1842.11 661.97 1841.32 661.611C1841.14 661.532 1841.01 661.399 1840.93 661.227Z" fill="white" fill-opacity="0.1"/>
<path id="Vector_97" d="M1795.21 576.604C1794.86 575.808 1795.63 575.038 1796.42 575.396C1796.59 575.476 1796.73 575.609 1796.81 575.781C1797.16 576.577 1796.39 577.346 1795.6 576.988C1795.43 576.909 1795.29 576.776 1795.21 576.604Z" fill="white" fill-opacity="0.1"/>
<path id="Vector_98" d="M1754.87 710.389C1754.52 709.593 1755.28 708.823 1756.08 709.182C1756.25 709.261 1756.38 709.394 1756.46 709.566C1756.83 710.362 1756.05 711.132 1755.26 710.773C1755.08 710.694 1754.95 710.561 1754.87 710.389Z" fill="white" fill-opacity="0.1"/>
<path id="Vector_99" d="M364.956 724.138C364.599 723.342 365.366 722.572 366.16 722.931C366.332 723.01 366.464 723.143 366.544 723.315C366.914 724.111 366.134 724.881 365.34 724.522C365.168 724.443 365.036 724.31 364.956 724.138Z" fill="white" fill-opacity="0.1"/>
<path id="Vector_100" d="M1771.12 862.899C1770.77 862.103 1771.54 861.334 1772.33 861.692C1772.5 861.772 1772.64 861.904 1772.72 862.077C1773.07 862.873 1772.31 863.642 1771.51 863.284C1771.34 863.204 1771.2 863.072 1771.12 862.899Z" fill="white" fill-opacity="0.1"/>
<path id="Vector_101" d="M1347.2 914.228C1346.84 913.432 1347.61 912.663 1348.4 913.021C1348.58 913.1 1348.71 913.233 1348.79 913.406C1349.15 914.201 1348.38 914.971 1347.58 914.613C1347.41 914.533 1347.28 914.4 1347.2 914.228Z" fill="white" fill-opacity="0.1"/>
<path id="Vector_102" d="M1743.98 948.221C1743.61 947.425 1744.39 946.655 1745.19 947.013C1745.36 947.093 1745.49 947.226 1745.57 947.398C1745.93 948.194 1745.16 948.963 1744.37 948.605C1744.19 948.526 1744.06 948.393 1743.98 948.221Z" fill="white" fill-opacity="0.8"/>
<path id="Vector_103" d="M1513.89 412.607C1514.26 411.812 1513.48 411.042 1512.69 411.4C1512.52 411.48 1512.38 411.613 1512.3 411.785C1511.95 412.581 1512.71 413.35 1513.51 412.992C1513.68 412.913 1513.81 412.78 1513.89 412.607Z" fill="white" fill-opacity="0.8"/>
<path id="Vector_104" d="M1728.37 591.631C1728.73 590.835 1727.96 590.066 1727.16 590.424C1726.99 590.503 1726.86 590.636 1726.78 590.808C1726.42 591.604 1727.19 592.374 1727.99 592.016C1728.16 591.936 1728.29 591.803 1728.37 591.631Z" fill="white" fill-opacity="0.1"/>
<path id="Vector_105" d="M1649.29 471.045C1648.91 470.249 1649.7 469.48 1650.49 469.838C1650.66 469.917 1650.79 470.05 1650.87 470.223C1651.23 471.018 1650.46 471.788 1649.67 471.43C1649.5 471.35 1649.36 471.217 1649.29 471.045Z" fill="white" fill-opacity="0.8"/>
<path id="Vector_106" d="M1637.28 510.065C1636.91 509.269 1637.69 508.499 1638.48 508.858C1638.66 508.937 1638.79 509.07 1638.87 509.242C1639.22 510.038 1638.46 510.808 1637.66 510.449C1637.49 510.37 1637.36 510.237 1637.28 510.065Z" fill="white" fill-opacity="0.8"/>
<path id="Vector_107" d="M1746.28 409.062C1745.91 408.266 1746.69 407.497 1747.49 407.855C1747.66 407.935 1747.79 408.067 1747.87 408.24C1748.23 409.036 1747.46 409.805 1746.66 409.447C1746.49 409.367 1746.36 409.235 1746.28 409.062Z" fill="white" fill-opacity="0.1"/>
<path id="Vector_108" d="M1521.46 492.443C1521.11 491.647 1521.88 490.878 1522.67 491.236C1522.84 491.316 1522.98 491.448 1523.06 491.621C1523.41 492.417 1522.64 493.186 1521.85 492.828C1521.68 492.748 1521.54 492.616 1521.46 492.443Z" fill="white" fill-opacity="0.1"/>
<path id="Vector_109" d="M1494.32 577.766C1493.95 576.97 1494.73 576.201 1495.52 576.559C1495.7 576.638 1495.83 576.771 1495.91 576.943C1496.27 577.739 1495.5 578.509 1494.7 578.151C1494.53 578.071 1494.4 577.938 1494.32 577.766Z" fill="white" fill-opacity="0.8"/>
<path id="Vector_110" d="M1645.3 745.86C1644.93 745.064 1645.71 744.295 1646.51 744.653C1646.68 744.732 1646.81 744.865 1646.89 745.037C1647.25 745.833 1646.48 746.603 1645.69 746.245C1645.52 746.165 1645.38 746.032 1645.3 745.86Z" fill="white" fill-opacity="0.1"/>
<path id="Vector_111" d="M1375.94 478.19C1376.3 477.394 1375.53 476.625 1374.73 476.983C1374.56 477.063 1374.43 477.195 1374.35 477.368C1373.99 478.164 1374.76 478.933 1375.55 478.575C1375.73 478.495 1375.86 478.363 1375.94 478.19Z" fill="white" fill-opacity="0.8"/>
<path id="Vector_112" d="M1340.71 711.927C1341.08 711.131 1340.3 710.362 1339.51 710.72C1339.34 710.799 1339.2 710.932 1339.12 711.104C1338.77 711.9 1339.53 712.67 1340.33 712.312C1340.5 712.232 1340.63 712.099 1340.71 711.927Z" fill="white" fill-opacity="0.1"/>
<path id="Vector_113" d="M1263.9 494.551C1264.26 493.755 1263.49 492.986 1262.69 493.344C1262.52 493.423 1262.39 493.556 1262.31 493.728C1261.94 494.524 1262.72 495.294 1263.51 494.936C1263.69 494.856 1263.82 494.723 1263.9 494.551Z" fill="white" fill-opacity="0.1"/>
<path id="Vector_114" d="M1397.21 547.319C1397.57 546.523 1396.8 545.753 1396 546.112C1395.83 546.191 1395.7 546.324 1395.62 546.496C1395.26 547.292 1396.03 548.062 1396.82 547.703C1397 547.624 1397.13 547.491 1397.21 547.319Z" fill="white" fill-opacity="0.1"/>
<path id="Vector_115" d="M955.288 651.896C955.658 651.1 954.878 650.331 954.084 650.689C953.912 650.769 953.78 650.901 953.7 651.074C953.343 651.87 954.111 652.639 954.904 652.281C955.076 652.201 955.209 652.068 955.288 651.896Z" fill="white" fill-opacity="0.1"/>
<path id="Vector_116" d="M1255.4 779.517C1255.77 778.721 1254.99 777.952 1254.2 778.31C1254.03 778.39 1253.89 778.522 1253.81 778.695C1253.46 779.491 1254.22 780.26 1255.02 779.902C1255.19 779.822 1255.32 779.69 1255.4 779.517Z" fill="white" fill-opacity="0.1"/>
<path id="Vector_117" d="M1535.46 809.649C1535.82 808.854 1535.05 808.084 1534.26 808.442C1534.09 808.522 1533.96 808.655 1533.88 808.827C1533.51 809.623 1534.29 810.392 1535.08 810.034C1535.25 809.955 1535.39 809.822 1535.46 809.649Z" fill="white" fill-opacity="0.1"/>
<path id="Vector_118" d="M872.542 481.735C872.912 480.939 872.132 480.17 871.338 480.528C871.166 480.607 871.034 480.74 870.954 480.912C870.597 481.708 871.364 482.478 872.158 482.12C872.33 482.04 872.463 481.907 872.542 481.735Z" fill="white" fill-opacity="0.8"/>
<path id="Vector_119" d="M863.656 719.294C864.013 718.498 863.246 717.729 862.452 718.087C862.28 718.167 862.148 718.299 862.068 718.472C861.698 719.268 862.479 720.037 863.272 719.679C863.444 719.599 863.577 719.467 863.656 719.294Z" fill="white" fill-opacity="0.1"/>
<path id="Vector_120" d="M1186.32 510.865C1186.68 510.072 1185.91 509.304 1185.12 509.661C1184.95 509.741 1184.81 509.873 1184.73 510.045C1184.36 510.839 1185.14 511.619 1185.94 511.249C1186.11 511.17 1186.24 511.037 1186.32 510.865Z" fill="white" fill-opacity="0.1"/>
<path id="Vector_121" d="M1064.15 833.556C1064.51 832.76 1063.74 831.991 1062.95 832.349C1062.77 832.429 1062.64 832.561 1062.56 832.734C1062.19 833.53 1062.97 834.299 1063.77 833.941C1063.94 833.861 1064.07 833.729 1064.15 833.556Z" fill="white" fill-opacity="0.1"/>
<path id="Vector_122" d="M1405.69 604.608C1404.89 604.238 1404.12 605.018 1404.48 605.812C1404.56 605.984 1404.69 606.116 1404.87 606.196C1405.66 606.553 1406.43 605.785 1406.07 604.992C1405.99 604.82 1405.86 604.687 1405.69 604.608Z" fill="white" fill-opacity="0.1"/>
<path id="Vector_123" d="M765.633 587.108C765.99 586.312 765.222 585.543 764.429 585.901C764.257 585.98 764.124 586.113 764.045 586.286C763.675 587.081 764.455 587.851 765.249 587.493C765.421 587.413 765.553 587.28 765.633 587.108Z" fill="white" fill-opacity="0.1"/>
<path id="Vector_124" d="M837.222 534.251C837.592 533.455 836.811 532.686 836.018 533.044C835.846 533.123 835.713 533.256 835.634 533.428C835.277 534.224 836.044 534.994 836.838 534.635C837.01 534.556 837.142 534.423 837.222 534.251Z" fill="white" fill-opacity="0.1"/>
<path id="Vector_125" d="M1337.06 826.509C1337.42 825.713 1336.65 824.943 1335.86 825.301C1335.68 825.381 1335.55 825.514 1335.47 825.686C1335.11 826.482 1335.88 827.251 1336.68 826.893C1336.85 826.814 1336.98 826.681 1337.06 826.509Z" fill="white" fill-opacity="0.1"/>
<path id="Vector_126" d="M977.815 522.799C977.444 522.003 978.225 521.234 979.018 521.592C979.19 521.672 979.323 521.804 979.402 521.977C979.759 522.773 978.992 523.542 978.198 523.184C978.026 523.104 977.894 522.972 977.815 522.799Z" fill="white" fill-opacity="0.8"/>
<path id="Vector_127" d="M1408.02 690.891C1407.67 690.095 1408.43 689.326 1409.23 689.684C1409.4 689.763 1409.53 689.896 1409.61 690.068C1409.98 690.864 1409.2 691.634 1408.41 691.275C1408.24 691.196 1408.1 691.063 1408.02 690.891Z" fill="white" fill-opacity="0.1"/>
<path id="Vector_128" d="M1366.25 640.679C1365.88 639.883 1366.66 639.113 1367.45 639.472C1367.63 639.551 1367.76 639.684 1367.84 639.856C1368.19 640.652 1367.43 641.422 1366.63 641.063C1366.46 640.984 1366.33 640.851 1366.25 640.679Z" fill="white" fill-opacity="0.8"/>
<path id="Vector_129" d="M1443.35 768.804C1442.99 768.008 1443.76 767.239 1444.55 767.597C1444.72 767.676 1444.86 767.809 1444.94 767.982C1445.31 768.777 1444.53 769.547 1443.73 769.189C1443.56 769.109 1443.43 768.976 1443.35 768.804Z" fill="white" fill-opacity="0.1"/>
<path id="Vector_130" d="M1523.27 707.641C1522.48 707.999 1521.71 707.23 1522.07 706.434C1522.15 706.261 1522.28 706.129 1522.45 706.049C1523.25 705.691 1524.02 706.46 1523.66 707.256C1523.58 707.429 1523.45 707.561 1523.27 707.641Z" fill="white" fill-opacity="0.8"/>
<path id="Vector_131" d="M1480.13 650.504C1479.34 650.874 1478.57 650.093 1478.93 649.3C1479 649.128 1479.14 648.995 1479.31 648.916C1480.11 648.559 1480.88 649.326 1480.52 650.12C1480.44 650.292 1480.3 650.424 1480.13 650.504Z" fill="white" fill-opacity="0.1"/>
<path id="Vector_132" d="M785.568 500.223C785.21 499.427 785.979 498.657 786.775 499.016C786.947 499.095 787.08 499.228 787.16 499.4C787.518 500.196 786.748 500.966 785.953 500.607C785.78 500.528 785.647 500.395 785.568 500.223Z" fill="white" fill-opacity="0.1"/>
<path id="Vector_133" d="M1117.34 751.158C1116.97 750.364 1117.75 749.584 1118.54 749.954C1118.71 750.034 1118.84 750.166 1118.92 750.338C1119.28 751.132 1118.51 751.899 1117.72 751.542C1117.55 751.462 1117.42 751.33 1117.34 751.158Z" fill="white" fill-opacity="0.1"/>
<path id="Vector_134" d="M996.162 569.488C995.803 568.692 996.573 567.923 997.369 568.281C997.541 568.361 997.674 568.493 997.753 568.666C998.112 569.462 997.342 570.231 996.546 569.873C996.374 569.793 996.241 569.661 996.162 569.488Z" fill="white" fill-opacity="0.8"/>
<path id="Vector_135" d="M902.859 593.403C902.501 592.607 903.269 591.838 904.063 592.196C904.234 592.275 904.367 592.408 904.446 592.58C904.817 593.376 904.036 594.146 903.242 593.788C903.07 593.708 902.938 593.575 902.859 593.403Z" fill="white" fill-opacity="0.1"/>
<path id="Vector_136" d="M1006.41 632.148C1006.04 631.352 1006.82 630.582 1007.61 630.941C1007.78 631.02 1007.92 631.153 1008 631.325C1008.35 632.121 1007.59 632.891 1006.79 632.532C1006.62 632.453 1006.49 632.32 1006.41 632.148Z" fill="white" fill-opacity="0.1"/>
<path id="Vector_137" d="M810.128 625.306C809.771 624.512 810.538 623.744 811.332 624.102C811.504 624.181 811.636 624.313 811.716 624.485C812.086 625.279 811.306 626.06 810.512 625.689C810.34 625.61 810.208 625.478 810.128 625.306Z" fill="white" fill-opacity="0.1"/>
<path id="Vector_138" d="M1143.49 814.12C1143.13 813.324 1143.9 812.555 1144.7 812.913C1144.87 812.992 1145 813.125 1145.08 813.297C1145.44 814.093 1144.67 814.863 1143.88 814.505C1143.7 814.425 1143.57 814.292 1143.49 814.12Z" fill="white" fill-opacity="0.1"/>
<path id="Vector_139" d="M1591.8 602.646C1591 603.016 1590.24 602.235 1590.59 601.442C1590.67 601.27 1590.81 601.137 1590.98 601.058C1591.77 600.701 1592.54 601.468 1592.19 602.262C1592.11 602.434 1591.97 602.566 1591.8 602.646Z" fill="white" fill-opacity="0.1"/>
<path id="Vector_140" d="M404.227 662.531C403.856 661.735 404.637 660.966 405.431 661.324C405.603 661.403 405.735 661.536 405.814 661.708C406.171 662.504 405.404 663.274 404.61 662.916C404.438 662.836 404.306 662.703 404.227 662.531Z" fill="white" fill-opacity="0.1"/>
<path id="Vector_141" d="M767.592 921.318C767.221 920.522 768.002 919.753 768.796 920.111C768.968 920.19 769.1 920.323 769.179 920.495C769.537 921.291 768.769 922.061 767.976 921.703C767.804 921.623 767.671 921.49 767.592 921.318Z" fill="white" fill-opacity="0.1"/>
<path id="Vector_142" d="M595.658 912.455C595.288 911.659 596.068 910.89 596.862 911.248C597.034 911.328 597.166 911.46 597.246 911.633C597.603 912.429 596.836 913.198 596.042 912.84C595.87 912.76 595.738 912.628 595.658 912.455Z" fill="white" fill-opacity="0.8"/>
<path id="Vector_143" d="M760.502 855.735C760.132 854.939 760.912 854.17 761.706 854.528C761.878 854.607 762.01 854.74 762.09 854.912C762.447 855.708 761.679 856.478 760.886 856.12C760.714 856.04 760.581 855.907 760.502 855.735Z" fill="white" fill-opacity="0.1"/>
<path id="Vector_144" d="M553.406 714.202C553.036 713.406 553.816 712.637 554.61 712.995C554.782 713.074 554.915 713.207 554.994 713.38C555.351 714.175 554.584 714.945 553.79 714.587C553.618 714.507 553.486 714.374 553.406 714.202Z" fill="white" fill-opacity="0.1"/>
<path id="Vector_145" d="M758.508 710.51C758.137 709.714 758.918 708.945 759.712 709.303C759.884 709.383 760.016 709.515 760.095 709.688C760.453 710.484 759.685 711.253 758.892 710.895C758.72 710.815 758.587 710.683 758.508 710.51Z" fill="white" fill-opacity="0.1"/>
<path id="Vector_146" d="M639.138 817.438C638.78 816.642 639.549 815.873 640.345 816.231C640.518 816.31 640.65 816.443 640.73 816.616C641.088 817.411 640.319 818.181 639.523 817.823C639.35 817.743 639.218 817.61 639.138 817.438Z" fill="white" fill-opacity="0.1"/>
<path id="Vector_147" d="M1281.43 304.484C1281.79 303.688 1281.02 302.919 1280.23 303.277C1280.06 303.356 1279.93 303.489 1279.85 303.662C1279.48 304.457 1280.26 305.227 1281.05 304.869C1281.22 304.789 1281.35 304.656 1281.43 304.484Z" fill="white" fill-opacity="0.1"/>
<path id="Vector_148" d="M1228.26 462.238C1228.62 461.442 1227.85 460.673 1227.06 461.031C1226.88 461.11 1226.75 461.243 1226.67 461.415C1226.3 462.211 1227.08 462.981 1227.88 462.623C1228.05 462.543 1228.18 462.41 1228.26 462.238Z" fill="white" fill-opacity="0.8"/>
<path id="Vector_149" d="M1060.05 378.888C1059.69 378.092 1060.46 377.323 1061.26 377.681C1061.43 377.761 1061.56 377.893 1061.64 378.066C1062.01 378.862 1061.23 379.631 1060.44 379.273C1060.26 379.193 1060.13 379.061 1060.05 378.888Z" fill="white" fill-opacity="0.1"/>
<path id="Vector_150" d="M1204.55 385.66C1204.2 384.864 1204.97 384.094 1205.76 384.452C1205.93 384.532 1206.07 384.665 1206.15 384.837C1206.5 385.633 1205.73 386.402 1204.94 386.044C1204.77 385.965 1204.63 385.832 1204.55 385.66Z" fill="white" fill-opacity="0.1"/>
<path id="Vector_151" d="M1292.26 435.65C1291.89 434.854 1292.67 434.085 1293.46 434.443C1293.63 434.522 1293.76 434.655 1293.84 434.827C1294.2 435.623 1293.43 436.393 1292.64 436.035C1292.47 435.955 1292.34 435.822 1292.26 435.65Z" fill="white" fill-opacity="0.1"/>
<path id="Vector_152" d="M1120.32 426.787C1119.95 425.991 1120.73 425.222 1121.53 425.58C1121.7 425.66 1121.83 425.792 1121.91 425.965C1122.27 426.761 1121.5 427.53 1120.71 427.172C1120.53 427.092 1120.4 426.959 1120.32 426.787Z" fill="white" fill-opacity="0.8"/>
<path id="Vector_153" d="M1285.16 370.067C1284.79 369.271 1285.57 368.502 1286.37 368.86C1286.54 368.94 1286.67 369.072 1286.75 369.245C1287.11 370.041 1286.34 370.81 1285.55 370.452C1285.38 370.372 1285.24 370.24 1285.16 370.067Z" fill="white" fill-opacity="0.1"/>
<path id="Vector_154" d="M1163.8 331.77C1163.44 330.974 1164.21 330.205 1165.01 330.563C1165.18 330.642 1165.31 330.775 1165.39 330.948C1165.75 331.743 1164.98 332.513 1164.19 332.155C1164.01 332.075 1163.88 331.942 1163.8 331.77Z" fill="white" fill-opacity="0.1"/>
<path id="Vector_155" d="M353.287 785.78C352.928 784.984 353.698 784.215 354.494 784.573C354.666 784.653 354.799 784.785 354.878 784.958C355.237 785.754 354.467 786.523 353.671 786.165C353.499 786.085 353.366 785.953 353.287 785.78Z" fill="white" fill-opacity="0.8"/>
<path id="Vector_156" d="M147.208 366.522C146.85 365.726 147.62 364.957 148.416 365.315C148.588 365.395 148.721 365.527 148.8 365.7C149.158 366.496 148.389 367.265 147.593 366.907C147.421 366.827 147.288 366.695 147.208 366.522Z" fill="white" fill-opacity="0.1"/>
<path id="Vector_157" d="M577.55 277.863C577.193 277.07 577.96 276.302 578.754 276.659C578.926 276.739 579.058 276.871 579.138 277.043C579.508 277.837 578.727 278.617 577.934 278.247C577.762 278.168 577.629 278.035 577.55 277.863Z" fill="white" fill-opacity="0.1"/>
<path id="Vector_158" d="M387.257 244.978C386.899 244.182 387.669 243.413 388.464 243.771C388.637 243.85 388.77 243.983 388.849 244.155C389.207 244.951 388.438 245.721 387.642 245.363C387.47 245.283 387.337 245.15 387.257 244.978Z" fill="white" fill-opacity="0.1"/>
<path id="Vector_159" d="M386.502 315.119C386.132 314.323 386.912 313.554 387.706 313.912C387.878 313.992 388.01 314.124 388.09 314.297C388.447 315.093 387.679 315.862 386.886 315.504C386.714 315.424 386.581 315.292 386.502 315.119Z" fill="white" fill-opacity="0.1"/>
<path id="Vector_160" d="M680.738 327.527C680.368 326.731 681.148 325.961 681.942 326.32C682.114 326.399 682.247 326.532 682.326 326.704C682.683 327.5 681.916 328.27 681.122 327.911C680.95 327.832 680.818 327.699 680.738 327.527Z" fill="white" fill-opacity="0.1"/>
<path id="Vector_161" d="M225.197 485.28C224.839 484.484 225.608 483.715 226.404 484.073C226.576 484.153 226.709 484.285 226.789 484.458C227.147 485.254 226.377 486.023 225.581 485.665C225.409 485.585 225.276 485.453 225.197 485.28Z" fill="white" fill-opacity="0.1"/>
<path id="Vector_162" d="M132.53 463.014C132.173 462.218 132.941 461.448 133.734 461.807C133.906 461.886 134.039 462.019 134.118 462.191C134.488 462.987 133.708 463.757 132.914 463.398C132.742 463.319 132.61 463.186 132.53 463.014Z" fill="white" fill-opacity="0.1"/>
</g>
</g>
<defs>
<linearGradient id="paint0_linear_153_1094" x1="659.099" y1="237.532" x2="659.099" y2="360.108" gradientUnits="userSpaceOnUse">
<stop stop-color="white" stop-opacity="0"/>
<stop offset="1" stop-color="white"/>
</linearGradient>
<linearGradient id="paint1_linear_153_1094" x1="539.587" y1="954.604" x2="539.587" y2="1077.18" gradientUnits="userSpaceOnUse">
<stop stop-color="white" stop-opacity="0"/>
<stop offset="1" stop-color="white"/>
</linearGradient>
<linearGradient id="paint2_linear_153_1094" x1="1734.71" y1="357.044" x2="1734.71" y2="479.62" gradientUnits="userSpaceOnUse">
<stop stop-color="white" stop-opacity="0"/>
<stop offset="1" stop-color="white"/>
</linearGradient>
<radialGradient id="paint3_radial_153_1094" cx="0" cy="0" r="1" gradientUnits="userSpaceOnUse" gradientTransform="translate(1137.15 755.417) rotate(90) scale(677.235 1017.38)">
<stop stop-color="white"/>
<stop offset="1" stop-color="white" stop-opacity="0"/>
</radialGradient>
</defs>
</svg>
