<svg width="40" height="48" viewBox="0 0 40 48" fill="none" xmlns="http://www.w3.org/2000/svg">
<g id="Frame 40">
<g id="fa6-solid:hand-holding-dollar">
<rect y="4" width="40" height="40" rx="8" fill="#070606"/>
<g id="&#232;&#153;&#154;&#230;&#139;&#159;&#232;&#186;&#171;&#228;&#187;&#189; 1" clip-path="url(#clip0_155_1405)">
<path id="Vector" opacity="0.01" d="M8 12H32V36H8V12Z" fill="white"/>
<path id="Vector_2" d="M29.483 28.1467C29.6304 28.1467 29.75 28.266 29.75 28.4134V32.6828C29.75 32.9658 29.6376 33.2373 29.4374 33.4374C29.2373 33.6376 28.9658 33.75 28.6828 33.75H24.4134C24.3426 33.7499 24.2748 33.7217 24.2248 33.6717C24.1748 33.6216 24.1467 33.5537 24.1467 33.483V32.4667C24.1467 32.3197 24.266 32.2001 24.4134 32.2001H27.6665C27.9613 32.2001 28.2001 31.9613 28.2001 31.6665V28.4134C28.2001 28.266 28.3197 28.1467 28.4671 28.1467H29.4834H29.483ZM11.5329 28.1467C11.6802 28.1467 11.7999 28.266 11.7999 28.4134V31.6665C11.7999 31.9613 12.0387 32.2001 12.3335 32.2001H15.5866C15.734 32.2001 15.8532 32.3197 15.8532 32.4671V33.4834C15.8532 33.5541 15.825 33.6218 15.775 33.6718C15.7251 33.7218 15.6573 33.7499 15.5866 33.75H11.3172C11.1771 33.75 11.0383 33.7224 10.9088 33.6688C10.7793 33.6151 10.6617 33.5365 10.5626 33.4374C10.4635 33.3383 10.3849 33.2207 10.3312 33.0912C10.2776 32.9617 10.25 32.8229 10.25 32.6828V28.4134C10.25 28.266 10.3696 28.1467 10.517 28.1467H11.5332H11.5329ZM20.0007 24.375C22.2537 24.375 26.7515 25.7164 26.75 28.3755V29.8755C26.75 30.1508 26.5351 30.375 26.2685 30.375H13.7315C13.4664 30.375 13.25 30.1522 13.25 29.8755V28.3755C13.25 25.7149 17.7477 24.375 20.0007 24.375ZM20 16.875C20.4756 16.8749 20.9458 16.9754 21.3799 17.1698C21.8139 17.3642 22.202 17.6481 22.5186 18.0029C22.8353 18.3578 23.0734 18.7755 23.2173 19.2288C23.3612 19.6821 23.4076 20.1607 23.3536 20.6332C23.183 22.1801 21.9305 23.433 20.3836 23.6036C19.9112 23.6577 19.4326 23.6113 18.9794 23.4675C18.5261 23.3237 18.1083 23.0857 17.7535 22.7692C17.3986 22.4526 17.1146 22.0647 16.9201 21.6307C16.7257 21.1968 16.6251 20.7267 16.625 20.2511C16.6248 19.8078 16.7119 19.3688 16.8814 18.9591C17.0509 18.5495 17.2995 18.1772 17.6129 17.8637C17.9263 17.5502 18.2985 17.3015 18.7081 17.1318C19.1177 16.9622 19.5567 16.8749 20 16.875ZM15.5862 14.25C15.734 14.25 15.8532 14.3696 15.8532 14.517V15.5332C15.8532 15.6039 15.825 15.6717 15.775 15.7217C15.7251 15.7717 15.6573 15.7998 15.5866 15.7999H12.3335C12.0387 15.7999 11.7999 16.0387 11.7999 16.3335V19.5866C11.7998 19.6574 11.7716 19.7252 11.7215 19.7752C11.6715 19.8252 11.6036 19.8533 11.5329 19.8532H10.5166C10.4459 19.8532 10.3782 19.825 10.3282 19.775C10.2782 19.7251 10.2501 19.6573 10.25 19.5866V15.3172C10.25 15.0342 10.3624 14.7627 10.5626 14.5626C10.7627 14.3624 11.0342 14.25 11.3172 14.25H15.5866H15.5862ZM28.6828 14.25C28.9658 14.25 29.2373 14.3624 29.4374 14.5626C29.6376 14.7627 29.75 15.0342 29.75 15.3172V19.5866C29.7499 19.6574 29.7217 19.7252 29.6717 19.7752C29.6216 19.8252 29.5537 19.8533 29.483 19.8532H28.4667C28.3961 19.8532 28.3283 19.825 28.2783 19.775C28.2283 19.7251 28.2002 19.6573 28.2001 19.5866V16.3335C28.2001 16.0387 27.9613 15.7999 27.6665 15.7999H24.4134C24.3426 15.7998 24.2748 15.7716 24.2248 15.7215C24.1748 15.6715 24.1467 15.6036 24.1467 15.5329V14.5166C24.1467 14.3696 24.266 14.25 24.4134 14.25H28.6828Z" fill="#C9D5FF"/>
</g>
</g>
</g>
<defs>
<clipPath id="clip0_155_1405">
<rect width="24" height="24" fill="white" transform="translate(8 12)"/>
</clipPath>
</defs>
</svg>
