<svg width="40" height="40" viewBox="0 0 40 40" fill="none" xmlns="http://www.w3.org/2000/svg">
<g id="calendar-clock">
<path id="Vector" d="M25 21.6667H27.5V26.3667L31.5667 28.7167L30.3167 30.8834L25 27.8167V21.6667ZM31.6667 13.3334H8.33333V31.6667H16.1167C15.4 30.15 15 28.45 15 26.6667C15 23.5725 16.2292 20.605 18.4171 18.4171C20.605 16.2292 23.5725 15 26.6667 15C28.45 15 30.15 15.4 31.6667 16.1167V13.3334ZM8.33333 35C6.48333 35 5 33.5 5 31.6667V8.33335C5 6.48335 6.48333 5.00002 8.33333 5.00002H10V1.66669H13.3333V5.00002H26.6667V1.66669H30V5.00002H31.6667C32.5507 5.00002 33.3986 5.35121 34.0237 5.97633C34.6488 6.60145 35 7.4493 35 8.33335V18.5C37.0667 20.6 38.3333 23.4834 38.3333 26.6667C38.3333 29.7609 37.1042 32.7283 34.9162 34.9163C32.7283 37.1042 29.7609 38.3334 26.6667 38.3334C23.4833 38.3334 20.6 37.0667 18.5 35H8.33333ZM26.6667 18.5834C24.5228 18.5834 22.4668 19.435 20.9509 20.9509C19.435 22.4668 18.5833 24.5229 18.5833 26.6667C18.5833 31.1334 22.2 34.75 26.6667 34.75C27.7282 34.75 28.7793 34.5409 29.76 34.1347C30.7407 33.7285 31.6318 33.1331 32.3824 32.3825C33.1331 31.6319 33.7285 30.7408 34.1347 29.76C34.5409 28.7793 34.75 27.7282 34.75 26.6667C34.75 22.2 31.1333 18.5834 26.6667 18.5834Z" fill="#C9D5FF"/>
</g>
</svg>
