<svg width="40" height="48" viewBox="0 0 40 48" fill="none" xmlns="http://www.w3.org/2000/svg">
<g id="Frame 40">
<g id="fa6-solid:hand-holding-dollar">
<rect y="4" width="40" height="40" rx="8" fill="#070606"/>
<g id="Gc_30_face-DeletePerson 1">
<g id="Group 1948758192">
<path id="Vector" d="M22.0517 31.2154L22.8133 30.4538L22.0517 29.6923C21.0449 28.6855 21.0449 27.0462 22.0517 26.0394C23.0585 25.0326 24.6978 25.0326 25.7046 26.0394L26.4661 26.801L27.1889 26.0782C25.7899 24.6308 23.9854 23.6408 22.013 23.2385C23.691 22.477 24.8527 20.799 24.8527 18.837C24.8527 16.1652 22.6842 13.9967 20.0123 13.9967C17.3405 13.9967 15.172 16.1652 15.172 18.837C15.172 20.7861 16.3466 22.464 18.0117 23.2385C13.4424 24.1678 9.99609 28.2079 9.99609 33.0353C9.99609 33.5645 10.435 34.0034 10.9642 34.0034H21.4838C21.1095 33.074 21.2902 31.964 22.0517 31.2154Z" fill="#C9D5FF"/>
<path id="Vector_2" d="M27.8218 30.4538L29.7192 28.5564C30.0935 28.1821 30.0935 27.5625 29.7192 27.1882C29.3449 26.8139 28.7253 26.8139 28.351 27.1882L26.4536 29.0856L24.5562 27.1882C24.1818 26.8139 23.5623 26.8139 23.188 27.1882C22.8136 27.5625 22.8136 28.1821 23.188 28.5564L25.0854 30.4538L23.188 32.3512C22.8136 32.7255 22.8136 33.3451 23.188 33.7194C23.3816 33.913 23.6268 34.0034 23.8721 34.0034C24.1173 34.0034 24.3626 33.913 24.5562 33.7194L26.4536 31.822L28.351 33.7194C28.5446 33.913 28.7898 34.0034 29.0351 34.0034C29.2803 34.0034 29.5256 33.913 29.7192 33.7194C30.0935 33.3451 30.0935 32.7255 29.7192 32.3512L27.8218 30.4538Z" fill="#C9D5FF"/>
</g>
</g>
</g>
</g>
</svg>
