<svg width="40" height="48" viewBox="0 0 40 48" fill="none" xmlns="http://www.w3.org/2000/svg">
<g id="Frame 40">
<g id="fa6-solid:hand-holding-dollar">
<rect y="4" width="40" height="40" rx="8" fill="#070606"/>
<g id="&#228;&#188;&#152;&#230;&#131;&#160;&#229;&#136;&#184; 1">
<path id="Vector" d="M16.25 31.5H11.25C10.9185 31.5 10.6005 31.3683 10.3661 31.1339C10.1317 30.8995 10 30.5815 10 30.25V26.5C10.3283 26.5 10.6534 26.4353 10.9567 26.3097C11.26 26.1841 11.5356 25.9999 11.7678 25.7678C11.9999 25.5356 12.1841 25.26 12.3097 24.9567C12.4353 24.6534 12.5 24.3283 12.5 24C12.5 23.6717 12.4353 23.3466 12.3097 23.0433C12.1841 22.74 11.9999 22.4644 11.7678 22.2322C11.5356 22.0001 11.26 21.8159 10.9567 21.6903C10.6534 21.5647 10.3283 21.5 10 21.5V17.75C10 17.4185 10.1317 17.1005 10.3661 16.8661C10.6005 16.6317 10.9185 16.5 11.25 16.5H16.25V17.125C16.25 17.2908 16.3158 17.4497 16.4331 17.5669C16.5503 17.6842 16.7092 17.75 16.875 17.75C17.0408 17.75 17.1997 17.6842 17.3169 17.5669C17.4342 17.4497 17.5 17.2908 17.5 17.125V16.5H28.75C29.0815 16.5 29.3995 16.6317 29.6339 16.8661C29.8683 17.1005 30 17.4185 30 17.75V21.5C29.6717 21.5 29.3466 21.5647 29.0433 21.6903C28.74 21.8159 28.4644 22.0001 28.2322 22.2322C28.0001 22.4644 27.8159 22.74 27.6903 23.0433C27.5647 23.3466 27.5 23.6717 27.5 24C27.5 24.3283 27.5647 24.6534 27.6903 24.9567C27.8159 25.26 28.0001 25.5356 28.2322 25.7678C28.4644 25.9999 28.74 26.1841 29.0433 26.3097C29.3466 26.4353 29.6717 26.5 30 26.5V30.25C30 30.5815 29.8683 30.8995 29.6339 31.1339C29.3995 31.3683 29.0815 31.5 28.75 31.5H17.5V30.875C17.5 30.7092 17.4342 30.5503 17.3169 30.4331C17.1997 30.3159 17.0408 30.25 16.875 30.25C16.7092 30.25 16.5503 30.3159 16.4331 30.4331C16.3158 30.5503 16.25 30.7092 16.25 30.875V31.5ZM16.875 20.25C16.7092 20.25 16.5503 20.3158 16.4331 20.4331C16.3158 20.5503 16.25 20.7092 16.25 20.875V22.125C16.25 22.2908 16.3158 22.4497 16.4331 22.5669C16.5503 22.6842 16.7092 22.75 16.875 22.75C17.0408 22.75 17.1997 22.6842 17.3169 22.5669C17.4342 22.4497 17.5 22.2908 17.5 22.125V20.875C17.5 20.7929 17.4838 20.7117 17.4524 20.6358C17.421 20.56 17.375 20.4911 17.3169 20.4331C17.2589 20.375 17.19 20.329 17.1142 20.2976C17.0383 20.2662 16.9571 20.25 16.875 20.25ZM16.875 25.25C16.7092 25.25 16.5503 25.3158 16.4331 25.4331C16.3158 25.5503 16.25 25.7092 16.25 25.875V27.125C16.25 27.2908 16.3158 27.4497 16.4331 27.5669C16.5503 27.6842 16.7092 27.75 16.875 27.75C17.0408 27.75 17.1997 27.6842 17.3169 27.5669C17.4342 27.4497 17.5 27.2908 17.5 27.125V25.875C17.5 25.7929 17.4838 25.7117 17.4524 25.6358C17.421 25.56 17.375 25.4911 17.3169 25.4331C17.2589 25.375 17.19 25.329 17.1142 25.2976C17.0383 25.2662 16.9571 25.25 16.875 25.25Z" fill="#C9D5FF"/>
</g>
</g>
</g>
</svg>
