<svg width="40" height="48" viewBox="0 0 40 48" fill="none" xmlns="http://www.w3.org/2000/svg">
<g id="Frame 40">
<g id="fa6-solid:hand-holding-dollar">
<rect y="4" width="40" height="40" rx="8" fill="#070606"/>
<g id="&#231;&#159;&#173;&#228;&#191;&#161;&#232;&#144;&#165;&#233;&#148;&#128; 1">
<g id="Group 1948758193">
<path id="Vector" d="M24.4927 30.6001H13.4301V15.4444H26.2996V14.4667C26.2996 13.6566 25.6596 13 24.8698 13H13.4301C12.64 13 12 13.6566 12 14.4667V33.5332C12 34.343 12.64 34.9998 13.4301 34.9998H24.8701C25.6598 34.9998 26.3 34.3432 26.2996 33.5334V30.6038H24.4927V30.6001ZM17.4816 14.2223C17.4816 14.0873 17.5886 13.9777 17.7201 13.9777H20.1032C20.2347 13.9777 20.3417 14.0873 20.3417 14.2223V14.4666C20.3417 14.6015 20.2347 14.7111 20.1032 14.7111H17.7201C17.5886 14.7111 17.4816 14.6015 17.4816 14.4666V14.2223ZM19.15 33.5332C18.6235 33.5332 18.1967 33.0956 18.1967 32.5557C18.1967 32.0157 18.6237 31.5779 19.15 31.5779C19.6764 31.5779 20.1032 32.0157 20.1032 32.5557C20.1032 33.0956 19.6767 33.5332 19.15 33.5332Z" fill="#C9D5FF"/>
<path id="Vector_2" d="M29.666 22.0714C29.666 19.4858 27.1866 17.3961 24.1407 17.3961C21.0946 17.3961 18.6152 19.4858 18.6152 22.0714C18.6152 24.1256 19.7132 25.2944 20.953 25.9319V28.1987L23.3613 26.6758C23.7864 26.7467 24.1051 26.7467 24.1406 26.7467C27.1866 26.7467 29.666 24.6571 29.666 22.0714ZM21.2363 22.9569C20.7404 22.9569 20.3509 22.5674 20.3509 22.0714C20.3509 21.5754 20.7404 21.1858 21.2363 21.1858C21.7321 21.1858 22.1218 21.5754 22.1218 22.0714C22.0863 22.5672 21.6968 22.9569 21.2363 22.9569ZM24.1407 22.9569C23.6448 22.9569 23.2553 22.5674 23.2553 22.0714C23.2553 21.5754 23.6448 21.1858 24.1407 21.1858C24.6364 21.1858 25.026 21.5754 25.026 22.0714C25.026 22.5674 24.6364 22.9569 24.1407 22.9569ZM27.045 22.9569C26.5492 22.9569 26.1595 22.5674 26.1595 22.0714C26.1595 21.5754 26.5492 21.1858 27.045 21.1858C27.5409 21.1858 27.9304 21.5754 27.9304 22.0714C27.9304 22.5674 27.5409 22.9569 27.045 22.9569Z" fill="#C9D5FF"/>
</g>
</g>
</g>
</g>
</svg>
