<svg width="864" height="854" viewBox="0 0 864 854" fill="none" xmlns="http://www.w3.org/2000/svg">
<g id="Group 14">
<circle id="Ellipse 7" opacity="0.3" cx="411.166" cy="382.892" r="248.678" stroke="url(#paint0_linear_155_1286)" stroke-width="0.897755"/>
<circle id="Ellipse 9" opacity="0.3" cx="411.165" cy="382.892" r="201.995" stroke="url(#paint1_linear_155_1286)" stroke-width="0.897755"/>
<circle id="Ellipse 8" opacity="0.3" cx="411.166" cy="382.893" r="287.282" stroke="url(#paint2_linear_155_1286)" stroke-width="0.897755"/>
<g id="Group 12">
<g id="Ellipse 2" opacity="0.3" filter="url(#filter0_f_155_1286)">
<circle cx="475.622" cy="465.158" r="159.279" transform="rotate(27.9416 475.622 465.158)" fill="#C9D5FF"/>
</g>
<g id="Card">
<g clip-path="url(#clip0_155_1286)">
<rect x="383.753" y="171.575" width="294.932" height="431.348" rx="15.242" transform="rotate(12.9416 383.753 171.575)" fill="#C9D5FF"/>
<rect id="Rectangle 1" opacity="0.3" x="306.265" y="508.779" width="294.932" height="85.3551" transform="rotate(12.9416 306.265 508.779)" fill="url(#paint3_linear_155_1286)"/>
<g id="Frame 4">
<g id="Frame 2">
<g id="graph_6">
<mask id="mask0_155_1286" style="mask-type:alpha" maskUnits="userSpaceOnUse" x="397" y="208" width="31" height="31">
<rect id="Bounding box" x="402.722" y="208.137" width="25.1493" height="25.1493" transform="rotate(12.9416 402.722 208.137)" fill="#D9D9D9"/>
</mask>
<g mask="url(#mask0_155_1286)">
<path id="graph_6_2" d="M409.697 233.931C408.846 233.736 408.191 233.272 407.732 232.539C407.273 231.806 407.141 231.015 407.337 230.164C407.532 229.312 407.997 228.658 408.729 228.199C409.462 227.74 410.254 227.608 411.105 227.804C411.956 227.999 412.611 228.463 413.07 229.196C413.528 229.929 413.66 230.721 413.464 231.572C413.269 232.423 412.805 233.078 412.072 233.536C411.339 233.995 410.548 234.127 409.697 233.931ZM410.166 231.889C410.455 231.955 410.72 231.913 410.961 231.762C411.202 231.612 411.355 231.392 411.422 231.102C411.488 230.813 411.446 230.548 411.296 230.307C411.145 230.066 410.925 229.913 410.635 229.846C410.346 229.78 410.081 229.822 409.84 229.973C409.599 230.123 409.446 230.344 409.379 230.633C409.313 230.922 409.355 231.187 409.506 231.428C409.657 231.669 409.877 231.822 410.166 231.889ZM403.938 228.576C403.087 228.381 402.432 227.917 401.974 227.184C401.515 226.451 401.383 225.659 401.579 224.808C401.774 223.957 402.238 223.302 402.971 222.843C403.704 222.385 404.495 222.253 405.346 222.449C406.198 222.644 406.852 223.108 407.311 223.841C407.77 224.574 407.902 225.365 407.706 226.216C407.511 227.067 407.047 227.722 406.314 228.181C405.581 228.64 404.789 228.772 403.938 228.576ZM417.215 231.627C416.364 231.431 415.709 230.967 415.25 230.235C414.791 229.502 414.66 228.71 414.855 227.859C415.051 227.008 415.515 226.353 416.247 225.894C416.98 225.436 417.772 225.304 418.623 225.499C419.474 225.695 420.129 226.159 420.588 226.892C421.047 227.624 421.178 228.416 420.983 229.267C420.787 230.118 420.323 230.773 419.59 231.232C418.858 231.691 418.066 231.823 417.215 231.627ZM404.408 226.534C404.697 226.6 404.962 226.558 405.203 226.407C405.444 226.256 405.597 226.036 405.664 225.747C405.73 225.458 405.688 225.193 405.537 224.952C405.387 224.711 405.166 224.558 404.877 224.491C404.588 224.425 404.323 224.467 404.082 224.618C403.841 224.768 403.688 224.988 403.621 225.278C403.555 225.567 403.597 225.832 403.748 226.073C403.898 226.314 404.118 226.467 404.408 226.534ZM417.684 229.585C417.974 229.651 418.239 229.609 418.479 229.458C418.72 229.307 418.874 229.087 418.94 228.798C419.007 228.509 418.965 228.244 418.814 228.003C418.663 227.762 418.443 227.608 418.154 227.542C417.864 227.475 417.599 227.518 417.359 227.668C417.118 227.819 416.964 228.039 416.898 228.329C416.831 228.618 416.873 228.883 417.024 229.124C417.175 229.364 417.395 229.518 417.684 229.585ZM405.699 220.917C404.847 220.721 404.193 220.257 403.734 219.524C403.275 218.792 403.143 218 403.339 217.149C403.534 216.298 403.998 215.643 404.731 215.184C405.464 214.725 406.256 214.593 407.107 214.789C407.958 214.985 408.613 215.449 409.071 216.181C409.53 216.914 409.662 217.706 409.466 218.557C409.271 219.408 408.807 220.063 408.074 220.522C407.341 220.981 406.55 221.112 405.699 220.917ZM418.975 223.968C418.124 223.772 417.469 223.308 417.01 222.575C416.551 221.843 416.42 221.051 416.615 220.2C416.811 219.349 417.275 218.694 418.008 218.235C418.74 217.776 419.532 217.644 420.383 217.84C421.234 218.035 421.889 218.5 422.348 219.232C422.807 219.965 422.938 220.757 422.743 221.608C422.547 222.459 422.083 223.114 421.351 223.573C420.618 224.031 419.826 224.163 418.975 223.968ZM406.168 218.874C406.457 218.941 406.722 218.898 406.963 218.748C407.204 218.597 407.357 218.377 407.424 218.088C407.49 217.798 407.448 217.533 407.297 217.292C407.147 217.052 406.927 216.898 406.637 216.832C406.348 216.765 406.083 216.807 405.842 216.958C405.601 217.109 405.448 217.329 405.381 217.618C405.315 217.908 405.357 218.173 405.508 218.413C405.658 218.654 405.879 218.808 406.168 218.874ZM419.444 221.925C419.734 221.991 419.999 221.949 420.239 221.799C420.48 221.648 420.634 221.428 420.7 221.138C420.767 220.849 420.725 220.584 420.574 220.343C420.423 220.103 420.203 219.949 419.914 219.882C419.624 219.816 419.359 219.858 419.119 220.009C418.878 220.16 418.724 220.38 418.658 220.669C418.591 220.958 418.633 221.223 418.784 221.464C418.935 221.705 419.155 221.858 419.444 221.925ZM413.217 218.612C412.366 218.417 411.711 217.953 411.252 217.22C410.793 216.487 410.661 215.696 410.857 214.844C411.053 213.993 411.517 213.338 412.249 212.88C412.982 212.421 413.774 212.289 414.625 212.485C415.476 212.68 416.131 213.144 416.59 213.877C417.049 214.61 417.18 215.402 416.985 216.253C416.789 217.104 416.325 217.759 415.592 218.217C414.86 218.676 414.068 218.808 413.217 218.612ZM413.686 216.57C413.976 216.636 414.241 216.594 414.481 216.443C414.722 216.293 414.876 216.073 414.942 215.783C415.009 215.494 414.966 215.229 414.816 214.988C414.665 214.747 414.445 214.594 414.156 214.527C413.866 214.461 413.601 214.503 413.36 214.654C413.12 214.804 412.966 215.024 412.9 215.314C412.833 215.603 412.875 215.868 413.026 216.109C413.177 216.35 413.397 216.503 413.686 216.57Z" fill="#191919"/>
</g>
</g>
<path id="GiroF&#195;&#161;cil" d="M440.98 239.315C439.189 238.904 437.726 238.192 436.591 237.181C435.459 236.153 434.686 234.908 434.272 233.445C433.873 231.985 433.876 230.376 434.28 228.617C434.68 226.874 435.382 225.417 436.385 224.247C437.408 223.064 438.63 222.244 440.053 221.787C441.48 221.314 443.009 221.265 444.641 221.64C445.941 221.938 447.057 222.453 447.99 223.185C448.942 223.904 449.653 224.768 450.121 225.777C450.606 226.789 450.783 227.872 450.651 229.026L448.132 228.447C448.224 227.317 447.916 226.337 447.206 225.507C446.499 224.661 445.504 224.09 444.221 223.795C443.048 223.526 441.963 223.568 440.964 223.922C439.965 224.277 439.105 224.897 438.385 225.782C437.68 226.671 437.171 227.797 436.858 229.16C436.541 230.538 436.513 231.783 436.775 232.894C437.041 233.989 437.579 234.914 438.39 235.667C439.221 236.409 440.301 236.932 441.632 237.238C442.583 237.457 443.454 237.515 444.245 237.413C445.035 237.311 445.76 237.061 446.419 236.662L448.654 238.151C447.556 238.866 446.373 239.328 445.107 239.538C443.845 239.732 442.469 239.657 440.98 239.315ZM446.135 237.572L447.342 232.319L447.909 233.226L442.799 232.051L443.28 229.96L450.172 231.544L448.654 238.151L446.135 237.572ZM451.153 241.403L453.938 229.281L456.41 229.849L453.625 241.971L451.153 241.403ZM454.366 226.877L455.005 224.096L457.738 224.724L457.099 227.505L454.366 226.877ZM457.095 242.768L459.88 230.647L462.233 231.187L461.54 234.206L461.658 234.233L459.567 243.336L457.095 242.768ZM461.019 237.014L461.371 234.067C461.893 233.103 462.565 232.431 463.386 232.053C464.207 231.674 465.1 231.596 466.067 231.818C466.431 231.902 466.678 231.992 466.806 232.088L466.27 234.417C466.198 234.367 466.091 234.326 465.949 234.293C465.81 234.244 465.637 234.196 465.431 234.149C464.243 233.876 463.277 233.979 462.532 234.459C461.804 234.942 461.3 235.794 461.019 237.014ZM471.346 246.293C470.11 246.009 469.086 245.49 468.275 244.737C467.468 243.967 466.912 243.047 466.607 241.976C466.307 240.89 466.296 239.736 466.577 238.516C466.861 237.28 467.372 236.255 468.109 235.44C468.863 234.629 469.759 234.068 470.798 233.756C471.857 233.432 473.004 233.412 474.24 233.696C475.492 233.984 476.523 234.504 477.334 235.258C478.149 235.996 478.703 236.89 478.995 237.942C479.303 238.997 479.315 240.142 479.031 241.378C478.751 242.598 478.238 243.631 477.493 244.478C476.767 245.312 475.874 245.899 474.811 246.239C473.753 246.563 472.597 246.581 471.346 246.293ZM471.81 244.273C472.555 244.444 473.238 244.409 473.861 244.169C474.499 243.932 475.051 243.525 475.517 242.948C475.984 242.371 476.317 241.647 476.517 240.775C476.816 239.476 476.702 238.374 476.176 237.469C475.669 236.552 474.869 235.968 473.776 235.716C472.699 235.469 471.724 235.645 470.852 236.246C469.996 236.85 469.42 237.793 469.125 239.077C468.925 239.948 468.901 240.743 469.053 241.462C469.22 242.185 469.539 242.792 470.01 243.284C470.497 243.779 471.097 244.109 471.81 244.273ZM480.19 248.075L484.122 230.962L486.642 231.541L482.709 248.654L480.19 248.075ZM483.059 241.253L483.534 239.185L492.946 241.348L492.471 243.416L483.059 241.253ZM484.883 233.314L485.358 231.246L495.412 233.557L494.937 235.625L484.883 233.314ZM500.721 252.793C500.711 252.474 500.732 252.128 500.784 251.757C500.852 251.389 500.946 250.943 501.066 250.42L500.947 250.393L502.275 244.617C502.453 243.841 502.388 243.217 502.079 242.746C501.79 242.262 501.225 241.924 500.386 241.731C499.577 241.545 498.891 241.555 498.327 241.759C497.779 241.966 497.398 242.354 497.184 242.922L494.831 242.381C495.204 241.266 495.929 240.473 497.004 240.003C498.08 239.533 499.386 239.475 500.923 239.828C502.508 240.192 503.61 240.837 504.232 241.764C504.856 242.675 505.005 243.843 504.677 245.27L503.372 250.95C503.288 251.314 503.226 251.692 503.186 252.084C503.147 252.475 503.125 252.895 503.122 253.345L500.721 252.793ZM496.483 252.07C495.248 251.786 494.334 251.259 493.744 250.489C493.157 249.704 492.984 248.788 493.224 247.742C493.472 246.665 494.047 245.905 494.949 245.461C495.871 245.006 497.079 244.833 498.572 244.943L502.712 245.218L502.313 246.953L498.57 246.694C497.732 246.635 497.073 246.708 496.592 246.915C496.127 247.125 495.829 247.515 495.697 248.086C495.57 248.64 495.656 249.102 495.955 249.471C496.273 249.828 496.789 250.088 497.502 250.252C498.452 250.47 499.29 250.421 500.013 250.103C500.753 249.789 501.202 249.284 501.363 248.587L501.267 250.416C500.789 251.191 500.133 251.724 499.298 252.016C498.468 252.292 497.529 252.31 496.483 252.07ZM501.457 238.374L499.199 237.855L502.624 234.714L506.141 235.522L501.457 238.374ZM511.077 255.423C509.92 255.157 508.952 254.651 508.173 253.905C507.397 253.143 506.857 252.226 506.552 251.155C506.264 250.088 506.26 248.945 506.54 247.724C506.82 246.504 507.321 245.485 508.043 244.667C508.785 243.836 509.669 243.255 510.696 242.924C511.723 242.593 512.807 242.559 513.948 242.821C514.914 243.043 515.736 243.423 516.413 243.963C517.089 244.502 517.599 245.153 517.941 245.915C518.283 246.678 518.423 247.519 518.362 248.439L516.032 247.904C516.038 247.155 515.82 246.504 515.38 245.952C514.955 245.404 514.339 245.038 513.531 244.852C512.834 244.692 512.184 244.726 511.581 244.954C510.978 245.183 510.461 245.581 510.03 246.149C509.599 246.718 509.283 247.437 509.083 248.309C508.887 249.165 508.856 249.95 508.992 250.665C509.128 251.38 509.416 251.98 509.855 252.465C510.297 252.934 510.875 253.25 511.588 253.414C512.365 253.592 513.07 253.537 513.703 253.249C514.356 252.949 514.844 252.46 515.166 251.784L517.495 252.319C517.136 253.154 516.629 253.838 515.973 254.371C515.332 254.908 514.59 255.271 513.745 255.461C512.901 255.65 512.012 255.638 511.077 255.423ZM518.858 256.961L521.644 244.839L524.116 245.407L521.33 257.529L518.858 256.961ZM522.071 242.435L522.71 239.655L525.443 240.283L524.804 243.063L522.071 242.435ZM524.8 258.326L528.733 241.214L531.205 241.782L527.272 258.894L524.8 258.326Z" fill="#191919"/>
</g>
</g>
<g id="Frame 3">
<path id="Your Full Name" d="M328.676 553.511L330.011 547.7L326.759 539.558L328.542 539.968L331.349 547.107L330.672 546.951L336.314 541.754L337.954 542.131L331.473 548.036L330.138 553.847L328.676 553.511ZM338.869 556.041C337.978 555.836 337.241 555.448 336.659 554.877C336.078 554.305 335.678 553.619 335.462 552.819C335.26 552.009 335.263 551.153 335.471 550.25C335.681 549.334 336.057 548.57 336.598 547.956C337.139 547.343 337.789 546.91 338.548 546.659C339.318 546.411 340.149 546.389 341.04 546.594C341.943 546.801 342.681 547.183 343.254 547.74C343.838 548.3 344.234 548.973 344.441 549.759C344.661 550.547 344.665 551.399 344.455 552.314C344.247 553.217 343.87 553.988 343.323 554.625C342.791 555.253 342.138 555.698 341.365 555.958C340.604 556.221 339.772 556.249 338.869 556.041ZM339.148 554.829C339.765 554.971 340.334 554.945 340.854 554.752C341.377 554.547 341.824 554.206 342.197 553.728C342.569 553.251 342.836 552.661 342.997 551.96C343.237 550.915 343.151 550.013 342.737 549.254C342.335 548.499 341.676 548.016 340.761 547.806C339.858 547.598 339.055 547.745 338.352 548.247C337.648 548.748 337.177 549.522 336.936 550.568C336.775 551.269 336.758 551.915 336.885 552.507C337.011 553.1 337.265 553.602 337.646 554.015C338.041 554.418 338.541 554.69 339.148 554.829ZM348.459 558.245C347.865 558.108 347.363 557.868 346.954 557.524C346.548 557.168 346.265 556.74 346.105 556.24C345.947 555.728 345.935 555.181 346.069 554.599L347.523 548.271L348.949 548.599L347.581 554.553C347.423 555.242 347.47 555.797 347.724 556.218C347.989 556.642 348.437 556.926 349.067 557.071C349.637 557.202 350.172 557.187 350.672 557.027C351.172 556.867 351.6 556.583 351.956 556.177C352.326 555.762 352.581 555.251 352.721 554.645L352.457 556.855C352.004 557.464 351.418 557.893 350.698 558.14C349.978 558.388 349.231 558.422 348.459 558.245ZM351.851 558.837L352.343 556.698L352.254 556.677L353.851 549.725L355.277 550.053L353.188 559.144L351.851 558.837ZM356.038 559.799L358.127 550.708L359.464 551.015L358.931 553.332L359.021 553.353L357.464 560.127L356.038 559.799ZM358.554 555.385L358.817 553.175C359.209 552.451 359.724 551.951 360.364 551.672C361.003 551.394 361.68 551.336 362.393 551.5C362.69 551.569 362.886 551.639 362.982 551.711L362.667 553.083C362.613 553.046 362.532 553.015 362.426 552.99C362.321 552.954 362.192 552.918 362.037 552.883C361.134 552.675 360.382 552.79 359.781 553.227C359.195 553.656 358.786 554.375 358.554 555.385ZM366.398 562.18L369.347 549.345L370.809 549.681L367.86 562.516L366.398 562.18ZM368.413 556.844L368.707 555.56L375.624 557.149L375.329 558.433L368.413 556.844ZM369.801 550.801L370.096 549.517L377.512 551.221L377.217 552.505L369.801 550.801ZM379.062 565.277C378.468 565.141 377.967 564.901 377.558 564.556C377.152 564.2 376.868 563.772 376.708 563.273C376.55 562.761 376.538 562.214 376.672 561.632L378.126 555.303L379.552 555.631L378.184 561.585C378.026 562.274 378.073 562.829 378.327 563.251C378.592 563.674 379.04 563.959 379.67 564.103C380.24 564.234 380.775 564.22 381.275 564.059C381.775 563.899 382.203 563.616 382.559 563.21C382.93 562.794 383.185 562.284 383.324 561.678L383.06 563.888C382.607 564.497 382.021 564.925 381.301 565.173C380.581 565.42 379.835 565.455 379.062 565.277ZM382.454 565.869L382.946 563.73L382.857 563.71L384.454 556.758L385.88 557.085L383.791 566.176L382.454 565.869ZM386.641 566.831L389.59 553.997L391.016 554.324L388.067 567.159L386.641 566.831ZM390.923 567.815L393.873 554.981L395.299 555.309L392.35 568.143L390.923 567.815ZM398.881 569.644L401.831 556.81L403.346 557.158L408.226 569.652L408.004 569.638L410.494 558.8L411.885 559.12L408.935 571.954L407.42 571.606L402.54 559.112L402.762 559.126L400.272 569.964L398.881 569.644ZM417.48 573.918C417.478 573.705 417.496 573.465 417.532 573.198C417.581 572.934 417.651 572.6 417.744 572.196L417.655 572.175L418.654 567.826C418.813 567.136 418.768 566.595 418.521 566.2C418.289 565.796 417.822 565.514 417.121 565.353C416.431 565.194 415.846 565.21 415.365 565.4C414.898 565.58 414.582 565.92 414.417 566.42L413.044 566.105C413.306 565.239 413.833 564.635 414.625 564.291C415.417 563.948 416.359 563.902 417.453 564.153C418.582 564.412 419.358 564.872 419.782 565.533C420.206 566.193 420.295 567.058 420.049 568.127L419.045 572.495C418.985 572.756 418.94 573.034 418.91 573.327C418.883 573.609 418.864 573.911 418.852 574.233L417.48 573.918ZM414.319 573.379C413.38 573.164 412.683 572.766 412.229 572.186C411.789 571.597 411.66 570.904 411.843 570.108C412.026 569.312 412.441 568.756 413.089 568.442C413.737 568.128 414.604 568.002 415.691 568.064L418.986 568.259L418.716 569.435L415.651 569.219C414.96 569.173 414.414 569.235 414.012 569.405C413.61 569.576 413.355 569.898 413.246 570.374C413.139 570.837 413.213 571.223 413.467 571.532C413.734 571.843 414.176 572.07 414.794 572.212C415.59 572.395 416.279 572.366 416.86 572.124C417.455 571.873 417.82 571.456 417.954 570.874L417.895 572.193C417.565 572.755 417.083 573.139 416.448 573.343C415.825 573.55 415.115 573.562 414.319 573.379ZM421.405 574.82L423.494 565.729L424.831 566.036L424.339 568.175L424.428 568.196L422.831 575.148L421.405 574.82ZM427.537 576.229L428.921 570.204C429.08 569.515 429.041 568.974 428.806 568.582C428.571 568.19 428.162 567.927 427.58 567.794C427.033 567.668 426.51 567.685 426.01 567.846C425.51 568.006 425.077 568.288 424.709 568.692C424.353 569.098 424.104 569.61 423.962 570.228L424.225 568.017C424.69 567.411 425.276 566.983 425.985 566.733C426.693 566.482 427.409 566.441 428.134 566.607C429.013 566.809 429.666 567.235 430.093 567.883C430.522 568.52 430.636 569.278 430.434 570.157L428.963 576.557L427.537 576.229ZM433.669 577.638L435.054 571.613C435.212 570.924 435.174 570.383 434.938 569.991C434.703 569.599 434.294 569.337 433.712 569.203C433.165 569.077 432.642 569.095 432.142 569.255C431.643 569.415 431.209 569.697 430.841 570.101C430.485 570.507 430.236 571.019 430.094 571.637L430.233 569.398C430.697 568.792 431.296 568.366 432.027 568.121C432.759 567.877 433.494 567.839 434.23 568.008C435.11 568.21 435.769 568.637 436.207 569.288C436.648 569.928 436.768 570.687 436.566 571.566L435.095 577.966L433.669 577.638ZM441.523 579.63C440.655 579.431 439.935 579.053 439.362 578.496C438.792 577.927 438.399 577.242 438.183 576.442C437.966 575.642 437.965 574.778 438.178 573.851C438.391 572.924 438.762 572.152 439.292 571.536C439.836 570.91 440.491 570.479 441.259 570.243C442.026 570.006 442.85 569.989 443.729 570.191C444.573 570.385 445.262 570.737 445.795 571.247C446.34 571.761 446.703 572.388 446.882 573.13C447.074 573.875 447.066 574.699 446.859 575.602C446.831 575.721 446.799 575.832 446.763 575.936C446.738 576.043 446.699 576.16 446.645 576.285L439.141 574.56L439.415 573.366L446.046 574.89L445.431 575.443C445.683 574.349 445.632 573.456 445.278 572.761C444.939 572.058 444.33 571.605 443.451 571.403C442.548 571.196 441.744 571.343 441.041 571.844C440.352 572.336 439.887 573.111 439.644 574.169C439.395 575.251 439.469 576.181 439.865 576.96C440.277 577.73 440.946 578.222 441.873 578.435C442.455 578.569 442.995 578.561 443.492 578.413C443.991 578.252 444.397 577.958 444.708 577.529L446.063 577.84C445.575 578.604 444.924 579.148 444.111 579.475C443.312 579.792 442.45 579.843 441.523 579.63Z" fill="#191919"/>
<path id="Exp 10/11/28" d="M319.796 572.58L321.763 564.023L322.737 564.247L320.771 572.804L319.796 572.58ZM320.296 572.694L320.492 571.839L325.721 573.04L325.524 573.896L320.296 572.694ZM321.221 568.666L321.418 567.81L326.219 568.913L326.022 569.769L321.221 568.666ZM322.065 564.994L322.262 564.138L327.396 565.318L327.199 566.173L322.065 564.994ZM331.079 575.172L329.718 571.894L328.062 568.098L329.168 568.352L330.424 571.381L332.184 575.426L331.079 575.172ZM329.913 571.314L332.424 569.101L333.493 569.346L330.265 572.07L329.913 571.314ZM330.167 572.06L327.478 574.345L326.396 574.096L329.86 571.276L330.167 572.06ZM336.482 576.527C335.912 576.395 335.465 576.147 335.14 575.78C334.816 575.414 334.64 574.961 334.614 574.421L334.81 574.441L333.903 578.386L332.952 578.168L334.905 569.671L335.796 569.875L335.471 571.29L335.349 571.224C335.607 570.791 335.976 570.492 336.456 570.327C336.937 570.154 337.456 570.132 338.01 570.259C338.549 570.383 338.986 570.621 339.322 570.974C339.666 571.328 339.896 571.764 340.01 572.283C340.124 572.801 340.11 573.373 339.966 573.999C339.82 574.633 339.578 575.161 339.239 575.584C338.9 576.006 338.494 576.301 338.022 576.468C337.55 576.634 337.037 576.654 336.482 576.527ZM336.531 575.662C337.133 575.8 337.652 575.703 338.087 575.369C338.524 575.027 338.826 574.496 338.991 573.775C339.155 573.062 339.113 572.464 338.865 571.982C338.619 571.492 338.195 571.177 337.593 571.039C336.991 570.901 336.468 571.001 336.022 571.341C335.579 571.673 335.275 572.2 335.109 572.92C334.947 573.626 334.993 574.224 335.247 574.716C335.501 575.208 335.929 575.524 336.531 575.662ZM344.419 578.238L346.071 571.048L346.265 571.243C346.099 571.455 345.873 571.641 345.586 571.8C345.301 571.951 344.983 572.066 344.631 572.143C344.28 572.221 343.914 572.25 343.535 572.229L343.877 570.744C344.205 570.769 344.549 570.74 344.91 570.656C345.272 570.572 345.608 570.454 345.918 570.3C346.231 570.138 346.47 569.951 346.635 569.739L347.895 570.028L345.929 578.585L344.419 578.238ZM350.651 579.795C349.954 579.635 349.379 579.307 348.926 578.81C348.475 578.306 348.171 577.686 348.015 576.95C347.869 576.207 347.895 575.404 348.093 574.54C348.291 573.677 348.616 572.955 349.066 572.374C349.518 571.786 350.056 571.371 350.678 571.131C351.31 570.884 351.975 570.841 352.672 571.001C353.377 571.163 353.957 571.492 354.41 571.988C354.865 572.477 355.167 573.084 355.317 573.811C355.477 574.531 355.457 575.324 355.259 576.187C355.059 577.059 354.728 577.792 354.266 578.386C353.812 578.982 353.272 579.409 352.646 579.665C352.021 579.914 351.357 579.957 350.651 579.795ZM350.949 578.5C351.385 578.6 351.777 578.544 352.126 578.332C352.475 578.121 352.775 577.793 353.027 577.351C353.287 576.91 353.485 576.393 353.622 575.798C353.758 575.204 353.808 574.661 353.771 574.169C353.734 573.676 353.599 573.266 353.366 572.937C353.141 572.61 352.81 572.396 352.375 572.296C351.947 572.198 351.555 572.25 351.2 572.452C350.855 572.648 350.558 572.959 350.31 573.386C350.062 573.813 349.87 574.319 349.736 574.905C349.597 575.507 349.545 576.063 349.578 576.571C349.612 577.079 349.743 577.505 349.972 577.85C350.204 578.187 350.529 578.403 350.949 578.5ZM354.272 581.415L359.656 572.193L360.964 572.493L355.579 581.716L354.272 581.415ZM361.34 582.126L362.992 574.936L363.185 575.131C363.02 575.343 362.793 575.529 362.507 575.688C362.222 575.839 361.903 575.954 361.552 576.032C361.2 576.109 360.835 576.138 360.456 576.118L360.797 574.632C361.125 574.657 361.47 574.628 361.831 574.544C362.192 574.461 362.528 574.342 362.839 574.188C363.151 574.026 363.39 573.839 363.556 573.627L364.815 573.917L362.849 582.473L361.34 582.126ZM365.912 583.177L367.565 575.987L367.758 576.182C367.592 576.394 367.366 576.579 367.079 576.739C366.794 576.89 366.476 577.005 366.124 577.082C365.773 577.16 365.408 577.189 365.029 577.168L365.37 575.683C365.698 575.708 366.042 575.679 366.403 575.595C366.765 575.511 367.101 575.393 367.411 575.239C367.724 575.077 367.963 574.89 368.128 574.678L369.388 574.967L367.422 583.524L365.912 583.177ZM367.966 584.562L373.351 575.34L374.658 575.64L369.273 584.862L367.966 584.562ZM372.887 584.779L373.168 583.555C374.129 583.076 374.935 582.656 375.584 582.297C376.244 581.931 376.779 581.599 377.189 581.302C377.6 581.004 377.908 580.716 378.113 580.438C378.329 580.154 378.471 579.861 378.54 579.56C378.631 579.164 378.591 578.83 378.421 578.557C378.25 578.284 377.966 578.102 377.57 578.011C377.158 577.916 376.793 577.962 376.475 578.147C376.159 578.325 375.923 578.625 375.768 579.048L374.199 578.688C374.47 577.908 374.937 577.347 375.599 577.007C376.261 576.668 377.035 576.599 377.923 576.803C378.802 577.005 379.438 577.394 379.832 577.968C380.235 578.536 380.344 579.224 380.158 580.032C380.066 580.436 379.904 580.812 379.674 581.159C379.454 581.501 379.134 581.84 378.715 582.178C378.305 582.509 377.774 582.858 377.122 583.226C376.481 583.587 375.689 583.984 374.746 584.419L374.487 583.859L379.193 584.94L378.912 586.164L372.887 584.779ZM382.73 587.166C382.096 587.021 381.566 586.786 381.14 586.463C380.713 586.14 380.408 585.761 380.225 585.327C380.051 584.887 380.02 584.421 380.133 583.93C380.231 583.502 380.415 583.14 380.683 582.843C380.951 582.546 381.27 582.339 381.638 582.224C382.017 582.102 382.42 582.091 382.847 582.189L382.921 582.469C382.493 582.37 382.139 582.205 381.858 581.974C381.58 581.735 381.391 581.45 381.292 581.118C381.195 580.779 381.191 580.415 381.28 580.027C381.387 579.56 381.6 579.179 381.918 578.885C382.243 578.593 382.646 578.402 383.125 578.312C383.615 578.216 384.152 578.235 384.739 578.37C385.333 578.506 385.825 578.724 386.215 579.022C386.607 579.312 386.882 579.659 387.04 580.062C387.205 580.467 387.235 580.899 387.129 581.359C387.038 581.755 386.875 582.084 386.64 582.347C386.406 582.602 386.111 582.776 385.756 582.87C385.403 582.956 385.008 582.948 384.573 582.848L384.773 582.631C385.2 582.73 385.554 582.915 385.833 583.188C386.122 583.454 386.323 583.78 386.435 584.164C386.547 584.549 386.553 584.955 386.455 585.383C386.342 585.874 386.111 586.279 385.763 586.6C385.414 586.92 384.977 587.132 384.452 587.237C383.938 587.336 383.363 587.312 382.73 587.166ZM382.999 585.94C383.474 586.049 383.871 586.011 384.189 585.825C384.517 585.634 384.73 585.32 384.831 584.884C384.931 584.448 384.87 584.076 384.649 583.767C384.437 583.459 384.1 583.253 383.641 583.147C383.173 583.04 382.777 583.078 382.451 583.261C382.125 583.445 381.912 583.755 381.812 584.191C381.71 584.634 381.766 585.01 381.978 585.317C382.191 585.625 382.532 585.832 382.999 585.94ZM383.9 582.018C384.288 582.107 384.626 582.072 384.913 581.913C385.201 581.746 385.389 581.476 385.474 581.103C385.561 580.723 385.507 580.398 385.311 580.128C385.122 579.859 384.834 579.68 384.445 579.591C384.065 579.504 383.731 579.543 383.442 579.711C383.155 579.87 382.969 580.136 382.883 580.508C382.798 580.881 382.848 581.205 383.035 581.481C383.232 581.752 383.52 581.931 383.9 582.018Z" fill="#191919"/>
</g>
<g id="Frame 5">
<path id="Card Number" d="M538.728 532.454C538.577 533.113 538.316 533.696 537.946 534.202C537.57 534.697 537.116 535.1 536.585 535.409C536.045 535.717 535.451 535.914 534.803 535.999C534.146 536.083 533.456 536.042 532.734 535.876C532.012 535.71 531.378 535.447 530.832 535.087C530.277 534.725 529.828 534.293 529.483 533.792C529.132 533.279 528.899 532.719 528.785 532.111C528.665 531.492 528.68 530.853 528.832 530.193C528.998 529.472 529.293 528.859 529.719 528.356C530.146 527.845 530.669 527.467 531.288 527.225C531.908 526.973 532.586 526.885 533.319 526.96L533.067 528.056C532.249 527.981 531.553 528.154 530.977 528.575C530.395 528.986 530.011 529.596 529.824 530.407C529.667 531.094 529.698 531.734 529.918 532.329C530.129 532.922 530.5 533.429 531.032 533.852C531.554 534.272 532.208 534.572 532.992 534.753C533.776 534.933 534.5 534.949 535.163 534.801C535.816 534.651 536.372 534.356 536.83 533.917C537.278 533.476 537.58 532.917 537.736 532.24C537.926 531.411 537.85 530.68 537.508 530.048C537.167 529.406 536.616 528.947 535.854 528.668L536.106 527.572C536.799 527.825 537.369 528.2 537.818 528.697C538.269 529.186 538.575 529.753 538.736 530.4C538.899 531.038 538.896 531.723 538.728 532.454ZM540.836 522.669C540.676 522.67 540.496 522.657 540.296 522.63C540.098 522.594 539.847 522.541 539.544 522.471L539.529 522.538L536.267 521.788C535.75 521.67 535.343 521.703 535.048 521.888C534.745 522.063 534.533 522.413 534.412 522.939C534.293 523.455 534.305 523.894 534.447 524.256C534.583 524.606 534.838 524.843 535.213 524.966L534.976 525.996C534.327 525.8 533.873 525.405 533.616 524.811C533.358 524.216 533.324 523.509 533.512 522.689C533.707 521.843 534.052 521.26 534.547 520.943C535.042 520.625 535.691 520.558 536.493 520.742L539.769 521.495C539.965 521.54 540.173 521.574 540.393 521.596C540.604 521.617 540.831 521.631 541.072 521.64L540.836 522.669ZM540.432 525.04C540.27 525.744 539.972 526.266 539.537 526.607C539.095 526.938 538.576 527.034 537.978 526.897C537.381 526.76 536.965 526.448 536.729 525.962C536.494 525.477 536.399 524.826 536.446 524.011L536.592 521.539L537.474 521.742L537.312 524.041C537.277 524.559 537.324 524.968 537.451 525.27C537.579 525.571 537.821 525.763 538.178 525.845C538.526 525.925 538.815 525.869 539.047 525.678C539.28 525.479 539.45 525.147 539.557 524.684C539.694 524.087 539.672 523.57 539.49 523.134C539.302 522.688 538.99 522.414 538.553 522.314L539.542 522.358C539.964 522.605 540.252 522.967 540.405 523.443C540.56 523.91 540.569 524.443 540.432 525.04ZM541.512 519.725L534.694 518.159L534.924 517.156L536.663 517.555L536.678 517.488L541.758 518.656L541.512 519.725ZM538.202 517.839L536.544 517.641C536.002 517.347 535.626 516.961 535.417 516.481C535.209 516.001 535.166 515.494 535.288 514.959C535.34 514.736 535.392 514.589 535.446 514.517L536.476 514.754C536.448 514.794 536.425 514.854 536.406 514.935C536.379 515.013 536.352 515.11 536.325 515.226C536.17 515.903 536.256 516.467 536.584 516.918C536.905 517.358 537.444 517.665 538.202 517.839ZM543.753 509.974L542.162 509.608L542.233 509.484C542.711 509.772 543.05 510.178 543.248 510.702C543.449 511.217 543.477 511.787 543.334 512.411C543.193 513.026 542.922 513.531 542.521 513.927C542.122 514.314 541.631 514.577 541.045 514.714C540.462 514.843 539.818 514.826 539.114 514.665C538.401 514.501 537.807 514.228 537.332 513.847C536.856 513.465 536.525 513.009 536.337 512.478C536.15 511.947 536.127 511.37 536.271 510.746C536.418 510.104 536.698 509.601 537.11 509.236C537.523 508.87 538.033 508.673 538.64 508.644L538.617 508.864L534.112 507.829L534.358 506.759L543.984 508.971L543.753 509.974ZM542.444 511.995C542.602 511.309 542.493 510.721 542.118 510.231C541.735 509.731 541.139 509.387 540.328 509.201C539.534 509.018 538.861 509.07 538.307 509.356C537.754 509.641 537.399 510.123 537.244 510.8C537.088 511.478 537.198 512.061 537.573 512.551C537.949 513.041 538.546 513.38 539.366 513.568C540.168 513.753 540.845 513.706 541.397 513.43C541.939 513.151 542.289 512.673 542.444 511.995ZM545.11 504.069L535.484 501.857L535.745 500.721L545.116 497.061L545.106 497.228L536.977 495.36L537.217 494.317L546.843 496.529L546.582 497.665L537.211 501.325L537.221 501.159L545.35 503.027L545.11 504.069ZM547.997 492.117C547.895 492.562 547.715 492.939 547.457 493.245C547.19 493.55 546.869 493.762 546.494 493.883C546.11 494.001 545.7 494.01 545.263 493.909L540.517 492.819L540.763 491.749L545.228 492.775C545.745 492.894 546.161 492.858 546.477 492.668C546.795 492.469 547.008 492.133 547.117 491.661C547.215 491.233 547.204 490.832 547.084 490.457C546.964 490.082 546.751 489.761 546.447 489.494C546.135 489.216 545.752 489.025 545.298 488.921L546.955 489.118C547.412 489.458 547.733 489.898 547.919 490.438C548.104 490.978 548.131 491.537 547.997 492.117ZM548.441 489.573L546.837 489.204L546.822 489.271L541.608 488.073L541.853 487.003L548.672 488.57L548.441 489.573ZM549.163 486.433L542.345 484.866L542.575 483.863L544.179 484.232L544.195 484.165L549.409 485.363L549.163 486.433ZM550.22 481.834L545.701 480.795C545.184 480.676 544.779 480.705 544.485 480.882C544.191 481.058 543.994 481.365 543.893 481.801C543.799 482.211 543.812 482.604 543.932 482.979C544.053 483.353 544.264 483.679 544.567 483.955C544.871 484.222 545.255 484.409 545.719 484.515L544.061 484.317C543.606 483.969 543.285 483.529 543.098 482.998C542.91 482.467 542.879 481.929 543.003 481.386C543.155 480.726 543.474 480.236 543.96 479.917C544.438 479.595 545.006 479.509 545.666 479.661L550.466 480.764L550.22 481.834ZM551.277 477.234L546.758 476.196C546.241 476.077 545.835 476.106 545.541 476.283C545.248 476.459 545.05 476.766 544.95 477.202C544.856 477.612 544.869 478.005 544.989 478.38C545.11 478.754 545.321 479.08 545.624 479.356C545.928 479.623 546.312 479.81 546.776 479.916L545.096 479.812C544.642 479.463 544.323 479.015 544.139 478.466C543.955 477.917 543.927 477.366 544.054 476.813C544.206 476.154 544.526 475.66 545.014 475.331C545.494 475 546.063 474.91 546.723 475.062L551.522 476.165L551.277 477.234ZM552.89 470.766C552.742 471.408 552.462 471.911 552.05 472.276C551.638 472.641 551.128 472.839 550.521 472.868L550.528 472.715L552.226 473.105L551.995 474.108L542.369 471.896L542.615 470.826L547.013 471.837L546.94 471.975C546.453 471.685 546.113 471.283 545.922 470.77C545.723 470.245 545.695 469.671 545.839 469.048C545.978 468.441 546.246 467.949 546.642 467.571C547.041 467.184 547.532 466.926 548.115 466.798C548.698 466.669 549.342 466.686 550.046 466.847C550.759 467.011 551.353 467.284 551.829 467.665C552.304 468.047 552.636 468.503 552.823 469.034C553.011 469.565 553.033 470.142 552.89 470.766ZM551.917 470.712C552.073 470.034 551.963 469.451 551.587 468.961C551.203 468.469 550.605 468.13 549.794 467.944C548.992 467.759 548.32 467.807 547.777 468.085C547.225 468.362 546.872 468.839 546.716 469.517C546.561 470.194 546.674 470.783 547.056 471.284C547.429 471.782 548.022 472.125 548.833 472.311C549.626 472.494 550.299 472.442 550.853 472.156C551.407 471.871 551.761 471.389 551.917 470.712ZM554.634 463.236C554.484 463.887 554.201 464.427 553.783 464.857C553.356 465.284 552.843 465.579 552.243 465.741C551.642 465.904 550.995 465.905 550.299 465.745C549.604 465.585 549.025 465.307 548.563 464.91C548.094 464.502 547.771 464.01 547.593 463.434C547.416 462.859 547.403 462.241 547.554 461.581C547.7 460.949 547.964 460.432 548.347 460.032C548.732 459.623 549.202 459.352 549.759 459.217C550.317 459.073 550.935 459.079 551.613 459.234C551.702 459.255 551.785 459.279 551.864 459.306C551.944 459.325 552.031 459.354 552.125 459.394L550.831 465.023L549.936 464.817L551.078 459.844L551.493 460.305C550.673 460.116 550.003 460.155 549.482 460.42C548.955 460.674 548.615 461.131 548.464 461.79C548.308 462.468 548.418 463.07 548.794 463.598C549.163 464.114 549.745 464.464 550.538 464.646C551.349 464.832 552.047 464.777 552.631 464.479C553.209 464.171 553.577 463.669 553.737 462.974C553.838 462.537 553.832 462.133 553.721 461.76C553.6 461.385 553.379 461.081 553.058 460.847L553.291 459.831C553.864 460.198 554.272 460.686 554.517 461.295C554.755 461.894 554.794 462.541 554.634 463.236ZM555.592 458.454L548.774 456.887L549.004 455.884L550.742 456.283L550.758 456.217L555.838 457.384L555.592 458.454ZM552.282 456.567L550.624 456.369C550.082 456.075 549.706 455.689 549.497 455.209C549.288 454.729 549.246 454.222 549.368 453.687C549.42 453.465 549.472 453.317 549.526 453.245L550.556 453.482C550.528 453.522 550.504 453.583 550.486 453.663C550.459 453.741 550.432 453.838 550.405 453.954C550.249 454.631 550.336 455.195 550.664 455.646C550.985 456.086 551.524 456.393 552.282 456.567Z" fill="#191919"/>
<path id="xxxx xxxx xxxx xxxx" d="M569.736 535.755L563.999 538.137L557.356 541.033L557.801 539.099L563.101 536.902L570.18 533.821L569.736 535.755ZM562.983 537.794L559.11 533.401L559.54 531.529L564.307 537.179L562.983 537.794ZM564.29 537.35L568.288 542.057L567.853 543.949L562.918 537.889L564.29 537.35ZM572.368 524.301L566.632 526.683L559.989 529.579L560.433 527.645L565.733 525.447L572.812 522.367L572.368 524.301ZM565.616 526.34L561.743 521.947L562.173 520.075L566.939 525.724L565.616 526.34ZM566.922 525.896L570.92 530.602L570.485 532.495L565.55 526.434L566.922 525.896ZM575 512.846L569.264 515.228L562.621 518.125L563.065 516.19L568.365 513.993L575.445 510.912L575 512.846ZM568.248 514.885L564.375 510.492L564.805 508.62L569.571 514.27L568.248 514.885ZM569.554 514.441L573.552 519.148L573.117 521.04L568.182 514.98L569.554 514.441ZM577.632 501.392L571.896 503.774L565.253 506.67L565.697 504.736L570.997 502.538L578.077 499.458L577.632 501.392ZM570.88 503.431L567.007 499.038L567.437 497.166L572.204 502.815L570.88 503.431ZM572.186 502.987L576.184 507.693L575.749 509.586L570.814 503.525L572.186 502.987ZM581.221 485.774L575.485 488.156L568.842 491.052L569.286 489.118L574.586 486.92L581.666 483.84L581.221 485.774ZM574.469 487.813L570.596 483.42L571.026 481.548L575.793 487.198L574.469 487.813ZM575.775 487.369L579.773 492.075L579.338 493.968L574.403 487.907L575.775 487.369ZM583.853 474.319L578.117 476.701L571.474 479.598L571.918 477.664L577.218 475.466L584.298 472.385L583.853 474.319ZM577.101 476.359L573.228 471.965L573.658 470.094L578.425 475.743L577.101 476.359ZM578.407 475.914L582.405 480.621L581.97 482.513L577.035 476.453L578.407 475.914ZM586.486 462.865L580.749 465.247L574.106 468.143L574.551 466.209L579.851 464.011L586.93 460.931L586.486 462.865ZM579.733 464.904L575.86 460.511L576.29 458.639L581.057 464.289L579.733 464.904ZM581.039 464.46L585.038 469.166L584.603 471.059L579.668 464.998L581.039 464.46ZM589.118 451.41L583.381 453.793L576.738 456.689L577.183 454.755L582.483 452.557L589.562 449.476L589.118 451.41ZM582.365 453.45L578.492 449.056L578.922 447.185L583.689 452.834L582.365 453.45ZM583.672 453.005L587.67 457.712L587.235 459.604L582.3 453.544L583.672 453.005ZM592.707 435.793L586.97 438.175L580.327 441.071L580.772 439.137L586.072 436.939L593.151 433.859L592.707 435.793ZM585.954 437.832L582.081 433.439L582.511 431.567L587.278 437.216L585.954 437.832ZM587.261 437.387L591.259 442.094L590.824 443.987L585.889 437.926L587.261 437.387ZM595.339 424.338L589.602 426.72L582.959 429.616L583.404 427.682L588.704 425.485L595.783 422.404L595.339 424.338ZM588.586 426.377L584.713 421.984L585.143 420.112L589.91 425.762L588.586 426.377ZM589.893 425.933L593.891 430.64L593.456 432.532L588.521 426.472L589.893 425.933ZM597.971 412.884L592.234 415.266L585.592 418.162L586.036 416.228L591.336 414.03L598.415 410.95L597.971 412.884ZM591.219 414.923L587.345 410.53L587.776 408.658L592.542 414.307L591.219 414.923ZM592.525 414.479L596.523 419.185L596.088 421.078L591.153 415.017L592.525 414.479ZM600.603 401.429L594.867 403.811L588.224 406.708L588.668 404.773L593.968 402.576L601.048 399.495L600.603 401.429ZM593.851 403.468L589.978 399.075L590.408 397.203L595.174 402.853L593.851 403.468ZM595.157 403.024L599.155 407.731L598.72 409.623L593.785 403.563L595.157 403.024ZM604.192 385.811L598.456 388.193L591.813 391.09L592.257 389.156L597.557 386.958L604.636 383.877L604.192 385.811ZM597.44 387.85L593.567 383.457L593.997 381.586L598.763 387.235L597.44 387.85ZM598.746 387.406L602.744 392.113L602.309 394.005L597.374 387.945L598.746 387.406ZM606.824 374.357L601.088 376.739L594.445 379.635L594.889 377.701L600.189 375.503L607.269 372.423L606.824 374.357ZM600.072 376.396L596.199 372.003L596.629 370.131L601.396 375.781L600.072 376.396ZM601.378 375.952L605.376 380.658L604.941 382.551L600.006 376.49L601.378 375.952ZM609.456 362.902L603.72 365.284L597.077 368.181L597.521 366.247L602.821 364.049L609.901 360.968L609.456 362.902ZM602.704 364.942L598.831 360.548L599.261 358.677L604.028 364.326L602.704 364.942ZM604.01 364.497L608.008 369.204L607.573 371.096L602.638 365.036L604.01 364.497ZM612.089 351.448L606.352 353.83L599.709 356.726L600.154 354.792L605.454 352.594L612.533 349.514L612.089 351.448ZM605.336 353.487L601.463 349.094L601.893 347.222L606.66 352.872L605.336 353.487ZM606.642 353.043L610.64 357.749L610.206 359.642L605.271 353.582L606.642 353.043Z" fill="#191919"/>
</g>
<g id="Ellipse 1" filter="url(#filter1_f_155_1286)">
<circle cx="369.609" cy="379.454" r="79.2583" transform="rotate(12.9416 369.609 379.454)" fill="url(#paint4_linear_155_1286)"/>
</g>
<g id="Frame 6">
<g id="rss_feed">
<mask id="mask1_155_1286" style="mask-type:alpha" maskUnits="userSpaceOnUse" x="342" y="440" width="38" height="38">
<rect id="Bounding box_2" x="349.331" y="440.479" width="30.484" height="30.484" transform="rotate(12.9416 349.331 440.479)" fill="#D9D9D9"/>
</mask>
<g mask="url(#mask1_155_1286)">
<path id="rss_feed_2" d="M349.547 467.897C348.866 467.741 348.339 467.365 347.966 466.768C347.592 466.172 347.484 465.533 347.64 464.853C347.797 464.172 348.173 463.645 348.769 463.271C349.366 462.898 350.004 462.789 350.685 462.946C351.366 463.102 351.893 463.479 352.266 464.075C352.64 464.671 352.748 465.31 352.592 465.99C352.435 466.671 352.059 467.198 351.463 467.572C350.867 467.945 350.228 468.054 349.547 467.897ZM364.402 471.311C364.957 468.897 365.021 466.539 364.594 464.236C364.168 461.933 363.35 459.818 362.143 457.889C360.935 455.961 359.388 454.302 357.503 452.913C355.617 451.524 353.468 450.552 351.054 449.998L351.907 446.284C354.837 446.957 357.445 448.132 359.731 449.809C362.018 451.485 363.9 453.504 365.378 455.863C366.856 458.223 367.85 460.797 368.36 463.586C368.87 466.375 368.789 469.235 368.116 472.164L364.402 471.311ZM356.975 469.604C357.292 468.222 357.329 466.878 357.086 465.573C356.843 464.269 356.372 463.058 355.673 461.941C354.974 460.825 354.09 459.873 353.022 459.084C351.954 458.296 350.729 457.743 349.347 457.425L350.2 453.711C352.099 454.148 353.786 454.91 355.263 455.999C356.739 457.088 357.954 458.393 358.908 459.915C359.861 461.438 360.505 463.101 360.84 464.905C361.175 466.708 361.124 468.559 360.688 470.457L356.975 469.604Z" fill="#191919"/>
</g>
</g>
<path id="Unlimited" d="M343.114 489.282C341.955 489.016 341.131 488.456 340.642 487.602C340.164 486.741 340.072 485.674 340.365 484.399L341.68 478.677L342.776 478.929L341.449 484.705C341.228 485.667 341.28 486.458 341.607 487.078C341.934 487.697 342.512 488.102 343.341 488.292C344.188 488.487 344.892 488.382 345.455 487.976C346.019 487.561 346.413 486.868 346.636 485.897L347.963 480.121L349.06 480.373L347.742 486.109C347.451 487.374 346.898 488.289 346.084 488.852C345.271 489.407 344.281 489.55 343.114 489.282ZM348.985 490.49L350.552 483.672L351.555 483.902L351.186 485.507L351.253 485.522L350.055 490.736L348.985 490.49ZM353.865 491.612L354.891 487.146C355.01 486.629 354.97 486.212 354.771 485.894C354.572 485.576 354.218 485.359 353.71 485.242C353.265 485.14 352.846 485.147 352.453 485.263C352.069 485.381 351.739 485.592 351.463 485.894C351.196 486.199 351.009 486.583 350.903 487.046L351.101 485.389C351.449 484.934 351.894 484.614 352.434 484.428C352.982 484.245 353.56 484.222 354.166 484.362C354.879 484.526 355.402 484.862 355.736 485.37C356.081 485.871 356.177 486.452 356.025 487.111L354.935 491.858L353.865 491.612ZM356.989 492.33L359.201 482.704L360.27 482.949L358.058 492.575L356.989 492.33ZM360.201 493.068L361.767 486.249L362.837 486.495L361.27 493.313L360.201 493.068ZM362.044 484.68L362.332 483.423L363.562 483.706L363.274 484.963L362.044 484.68ZM363.412 493.806L364.979 486.987L365.982 487.218L365.613 488.822L365.68 488.837L364.482 494.051L363.412 493.806ZM368.011 494.862L369.05 490.344C369.169 489.827 369.14 489.421 368.963 489.127C368.787 488.833 368.48 488.636 368.044 488.536C367.634 488.442 367.241 488.455 366.866 488.575C366.492 488.695 366.166 488.907 365.89 489.209C365.623 489.514 365.436 489.898 365.33 490.361L365.528 488.704C365.876 488.249 366.316 487.928 366.847 487.74C367.378 487.553 367.916 487.521 368.459 487.646C369.119 487.798 369.608 488.117 369.928 488.603C370.25 489.081 370.335 489.649 370.184 490.309L369.081 495.108L368.011 494.862ZM372.61 495.919L373.649 491.4C373.768 490.884 373.739 490.478 373.562 490.184C373.386 489.89 373.079 489.693 372.643 489.593C372.233 489.499 371.84 489.512 371.465 489.632C371.091 489.752 370.765 489.964 370.489 490.266C370.222 490.571 370.035 490.955 369.929 491.418L370.033 489.739C370.382 489.284 370.83 488.965 371.379 488.782C371.928 488.598 372.479 488.57 373.032 488.697C373.691 488.848 374.185 489.168 374.514 489.657C374.845 490.136 374.935 490.706 374.783 491.365L373.68 496.165L372.61 495.919ZM375.737 496.638L377.304 489.819L378.374 490.065L376.807 496.884L375.737 496.638ZM377.58 488.25L377.869 486.993L379.099 487.276L378.81 488.533L377.58 488.25ZM381.623 498.117C380.865 497.943 380.351 497.646 380.082 497.228C379.823 496.802 379.768 496.264 379.918 495.614L381.417 489.09L382.579 488.934L380.99 495.846C380.902 496.229 380.936 496.533 381.091 496.756C381.246 496.979 381.546 497.142 381.992 497.245C382.17 497.286 382.324 497.312 382.453 497.322C382.592 497.326 382.707 497.32 382.795 497.303L382.586 498.212C382.489 498.227 382.353 498.224 382.18 498.203C382.013 498.193 381.828 498.164 381.623 498.117ZM379.439 491.267L379.647 490.358L384.153 491.393L383.944 492.302L379.439 491.267ZM386.582 499.271C385.932 499.121 385.392 498.838 384.962 498.42C384.535 497.993 384.24 497.48 384.078 496.879C383.915 496.279 383.914 495.631 384.074 494.936C384.233 494.241 384.512 493.662 384.909 493.2C385.317 492.731 385.809 492.407 386.385 492.23C386.96 492.052 387.578 492.04 388.237 492.191C388.87 492.337 389.387 492.601 389.787 492.983C390.195 493.368 390.467 493.839 390.602 494.395C390.746 494.954 390.74 495.572 390.584 496.249C390.564 496.338 390.54 496.422 390.513 496.5C390.494 496.58 390.465 496.667 390.424 496.761L384.796 495.468L385.002 494.572L389.975 495.715L389.514 496.13C389.702 495.31 389.664 494.64 389.399 494.119C389.145 493.591 388.688 493.252 388.028 493.1C387.351 492.945 386.749 493.055 386.221 493.431C385.705 493.8 385.355 494.381 385.173 495.175C384.987 495.986 385.042 496.683 385.339 497.268C385.648 497.845 386.15 498.214 386.845 498.374C387.281 498.474 387.686 498.469 388.059 498.357C388.434 498.237 388.738 498.016 388.971 497.694L389.988 497.928C389.621 498.501 389.133 498.909 388.523 499.154C387.925 499.391 387.278 499.43 386.582 499.271ZM396.325 501.369L396.691 499.778L396.815 499.849C396.527 500.327 396.121 500.665 395.597 500.864C395.082 501.064 394.512 501.093 393.888 500.95C393.273 500.808 392.768 500.537 392.372 500.137C391.985 499.738 391.723 499.246 391.585 498.661C391.456 498.078 391.473 497.434 391.634 496.73C391.798 496.017 392.071 495.423 392.452 494.947C392.834 494.472 393.29 494.14 393.821 493.953C394.352 493.765 394.929 493.743 395.553 493.886C396.195 494.034 396.699 494.314 397.064 494.726C397.429 495.138 397.626 495.648 397.655 496.255L397.435 496.233L398.47 491.728L399.54 491.973L397.328 501.599L396.325 501.369ZM394.304 500.06C394.99 500.217 395.578 500.109 396.068 499.733C396.568 499.351 396.912 498.754 397.098 497.943C397.281 497.15 397.229 496.477 396.943 495.923C396.658 495.369 396.176 495.015 395.499 494.859C394.821 494.703 394.238 494.813 393.748 495.189C393.258 495.564 392.919 496.162 392.731 496.982C392.546 497.784 392.593 498.461 392.869 499.012C393.148 499.555 393.626 499.904 394.304 500.06Z" fill="#191919"/>
</g>
</g>
<rect x="384.039" y="172.032" width="294.17" height="430.586" rx="14.8609" transform="rotate(12.9416 384.039 172.032)" stroke="url(#paint5_linear_155_1286)" stroke-width="0.762099"/>
</g>
</g>
<g id="Group 13">
<g id="Ellipse 3" opacity="0.3" filter="url(#filter2_f_155_1286)">
<circle cx="368.879" cy="391.304" r="140.226" transform="rotate(-30.2598 368.879 391.304)" fill="url(#paint6_linear_155_1286)"/>
</g>
<g id="Card_2">
<g clip-path="url(#clip1_155_1286)">
<rect x="146.248" y="143.559" width="294.932" height="431.348" rx="15.242" transform="rotate(-15.2598 146.248 143.559)" fill="#191919"/>
<rect id="Rectangle 1_2" opacity="0.1" x="237.312" y="477.353" width="294.932" height="85.3551" transform="rotate(-15.2598 237.312 477.353)" fill="url(#paint7_linear_155_1286)"/>
<g id="Frame 4_2">
<g id="Frame 2_2">
<g id="Frame" clip-path="url(#clip2_155_1286)">
<path id="Vector" d="M191.239 165.29C188.161 167.143 186.545 170.877 187.523 174.527C188.588 178.5 192.361 181.021 196.316 180.63L197.905 186.56C197.681 186.636 197.452 186.705 197.22 186.767C191.285 188.358 185.182 184.826 183.588 178.879C182.014 173.003 185.431 166.967 191.239 165.29ZM194.753 174.641L205.73 171.7L205.699 171.978C205.191 176.499 204.937 178.26 204.203 180.435C203.47 182.61 201.584 184.959 199.636 186.11L200.507 177.386L195.824 178.641L194.753 174.641ZM203.885 161.899L203.164 168.266L193.686 170.815L192.141 165.046L203.885 161.899Z" fill="#C9D5FF"/>
</g>
<path id="GiroF&#195;&#161;cil_2" d="M227.688 176.488C225.916 176.972 224.29 177.036 222.811 176.681C221.328 176.311 220.059 175.578 219.002 174.485C217.961 173.387 217.203 171.968 216.728 170.227C216.257 168.501 216.187 166.886 216.518 165.38C216.86 163.854 217.55 162.554 218.588 161.478C219.622 160.387 220.946 159.622 222.562 159.181C223.848 158.83 225.075 158.756 226.243 158.96C227.422 159.144 228.457 159.57 229.347 160.237C230.252 160.9 230.92 161.771 231.349 162.85L228.855 163.531C228.403 162.491 227.668 161.773 226.65 161.377C225.627 160.965 224.481 160.932 223.21 161.279C222.05 161.596 221.113 162.146 220.4 162.93C219.687 163.715 219.222 164.667 219.005 165.788C218.805 166.905 218.888 168.137 219.256 169.486C219.628 170.851 220.192 171.961 220.948 172.816C221.7 173.656 222.611 174.217 223.682 174.497C224.764 174.758 225.964 174.709 227.282 174.349C228.223 174.093 229.018 173.733 229.666 173.269C230.315 172.806 230.836 172.242 231.228 171.579L233.901 171.836C233.271 172.985 232.448 173.951 231.431 174.734C230.41 175.501 229.163 176.086 227.688 176.488ZM231.407 172.516L229.989 167.317L230.917 167.847L225.859 169.227L225.294 167.157L232.117 165.295L233.901 171.836L231.407 172.516ZM237.64 173.521L234.367 161.522L236.813 160.854L240.087 172.853L237.64 173.521ZM233.607 159.201L232.856 156.448L235.562 155.71L236.313 158.463L233.607 159.201ZM243.522 171.916L240.248 159.917L242.578 159.281L243.393 162.269L243.51 162.237L245.969 171.248L243.522 171.916ZM244.261 164.99L243.179 162.227C243.183 161.13 243.457 160.221 244.002 159.5C244.547 158.778 245.297 158.287 246.254 158.026C246.615 157.927 246.874 157.89 247.033 157.914L247.662 160.22C247.575 160.21 247.461 160.224 247.32 160.263C247.174 160.286 246.999 160.325 246.796 160.381C245.619 160.701 244.816 161.249 244.387 162.023C243.974 162.793 243.932 163.782 244.261 164.99ZM257.747 168.288C256.523 168.622 255.376 168.648 254.305 168.367C253.23 168.071 252.305 167.523 251.531 166.723C250.752 165.907 250.198 164.896 249.869 163.688C249.535 162.464 249.501 161.319 249.766 160.253C250.047 159.182 250.571 158.263 251.34 157.498C252.12 156.712 253.121 156.152 254.345 155.818C255.584 155.48 256.739 155.452 257.81 155.733C258.876 155.998 259.787 156.525 260.541 157.313C261.311 158.097 261.863 159.101 262.197 160.324C262.527 161.532 262.563 162.685 262.306 163.783C262.061 164.861 261.551 165.801 260.775 166.602C259.995 167.388 258.986 167.95 257.747 168.288ZM257.201 166.288C257.938 166.087 258.524 165.733 258.959 165.227C259.41 164.717 259.704 164.097 259.842 163.368C259.981 162.64 259.932 161.844 259.697 160.981C259.346 159.695 258.725 158.778 257.834 158.229C256.954 157.66 255.973 157.523 254.89 157.818C253.824 158.109 253.048 158.725 252.563 159.666C252.094 160.603 252.033 161.707 252.38 162.977C252.615 163.84 252.97 164.552 253.443 165.114C253.932 165.672 254.5 166.056 255.148 166.267C255.811 166.474 256.495 166.481 257.201 166.288ZM266.383 165.679L261.762 148.739L264.256 148.059L268.877 164.999L266.383 165.679ZM265.688 158.31L265.129 156.264L274.446 153.722L275.005 155.769L265.688 158.31ZM263.544 150.452L262.985 148.405L272.938 145.69L273.496 147.737L263.544 150.452ZM286.707 160.134C286.547 159.858 286.403 159.543 286.273 159.191C286.159 158.835 286.031 158.398 285.89 157.88L285.772 157.912L284.212 152.195C284.003 151.426 283.65 150.907 283.156 150.638C282.672 150.348 282.015 150.317 281.184 150.544C280.384 150.762 279.783 151.094 279.383 151.541C278.998 151.983 278.845 152.505 278.925 153.107L276.596 153.742C276.398 152.583 276.661 151.542 277.387 150.619C278.113 149.696 279.236 149.028 280.758 148.613C282.326 148.185 283.603 148.232 284.589 148.756C285.57 149.263 286.253 150.223 286.638 151.634L288.172 157.257C288.27 157.618 288.394 157.98 288.544 158.344C288.694 158.707 288.874 159.088 289.083 159.486L286.707 160.134ZM282.63 161.499C281.407 161.833 280.353 161.8 279.469 161.401C278.581 160.986 277.995 160.261 277.713 159.226C277.422 158.159 277.569 157.218 278.155 156.4C278.753 155.563 279.735 154.84 281.103 154.231L284.882 152.518L285.35 154.235L281.928 155.776C281.163 156.119 280.617 156.496 280.29 156.905C279.979 157.31 279.901 157.795 280.055 158.36C280.205 158.909 280.498 159.275 280.936 159.459C281.385 159.623 281.963 159.609 282.669 159.416C283.61 159.159 284.324 158.72 284.812 158.098C285.315 157.472 285.473 156.814 285.284 156.124L286.065 157.782C286.01 158.69 285.683 159.47 285.086 160.122C284.484 160.758 283.666 161.217 282.63 161.499ZM280.542 147.079L278.307 147.689L279.84 143.302L283.322 142.352L280.542 147.079ZM297.076 157.558C295.931 157.871 294.839 157.882 293.799 157.593C292.755 157.288 291.846 156.735 291.072 155.935C290.313 155.131 289.769 154.125 289.44 152.917C289.11 151.71 289.07 150.575 289.32 149.512C289.581 148.43 290.085 147.5 290.834 146.723C291.582 145.946 292.521 145.403 293.651 145.095C294.607 144.834 295.511 144.781 296.363 144.937C297.214 145.092 297.97 145.425 298.632 145.935C299.294 146.446 299.815 147.121 300.196 147.961L297.89 148.59C297.541 147.927 297.042 147.456 296.393 147.178C295.76 146.896 295.043 146.864 294.243 147.082C293.553 147.27 292.996 147.608 292.573 148.094C292.149 148.58 291.882 149.176 291.771 149.88C291.66 150.584 291.722 151.368 291.957 152.231C292.188 153.078 292.533 153.784 292.99 154.35C293.448 154.916 293.985 155.309 294.601 155.529C295.213 155.733 295.872 155.738 296.577 155.546C297.346 155.336 297.941 154.954 298.363 154.401C298.797 153.828 298.996 153.167 298.96 152.418L301.266 151.789C301.344 152.695 301.22 153.538 300.894 154.318C300.583 155.093 300.1 155.764 299.446 156.33C298.791 156.896 298.001 157.306 297.076 157.558ZM304.661 155.236L301.387 143.237L303.834 142.57L307.108 154.569L304.661 155.236ZM300.628 140.917L299.877 138.164L302.582 137.426L303.333 140.179L300.628 140.917ZM310.543 153.632L305.921 136.692L308.368 136.024L312.989 152.964L310.543 153.632Z" fill="url(#paint8_linear_155_1286)"/>
</g>
</g>
<g id="Frame 3_2">
<path id="Your Full Name_2" d="M278.202 506.184L276.633 500.431L269.919 494.793L271.683 494.312L277.531 499.276L276.86 499.459L279.377 492.213L281 491.77L278.079 500.037L279.649 505.789L278.202 506.184ZM288.38 503.597C287.498 503.837 286.665 503.843 285.883 503.614C285.1 503.386 284.424 502.97 283.855 502.367C283.294 501.748 282.892 500.992 282.648 500.098C282.401 499.193 282.371 498.341 282.558 497.544C282.745 496.748 283.114 496.06 283.663 495.48C284.225 494.897 284.947 494.485 285.829 494.244C286.723 494.001 287.554 493.989 288.322 494.209C289.101 494.426 289.768 494.832 290.322 495.426C290.888 496.018 291.295 496.766 291.542 497.672C291.786 498.566 291.817 499.423 291.637 500.244C291.464 501.049 291.099 501.749 290.541 502.344C289.995 502.935 289.274 503.353 288.38 503.597ZM288.053 502.397C288.665 502.23 289.154 501.938 289.521 501.522C289.884 501.094 290.117 500.582 290.22 499.985C290.323 499.389 290.279 498.743 290.09 498.049C289.808 497.014 289.305 496.26 288.582 495.787C287.871 495.312 287.062 495.197 286.156 495.444C285.262 495.688 284.624 496.197 284.241 496.972C283.858 497.746 283.808 498.651 284.09 499.686C284.28 500.38 284.57 500.958 284.962 501.42C285.353 501.882 285.814 502.205 286.345 502.389C286.884 502.558 287.453 502.56 288.053 502.397ZM297.873 501.007C297.285 501.167 296.73 501.192 296.207 501.082C295.68 500.96 295.229 500.717 294.851 500.352C294.47 499.976 294.201 499.5 294.044 498.923L292.335 492.659L293.747 492.274L295.355 498.168C295.541 498.85 295.845 499.317 296.267 499.568C296.702 499.816 297.231 499.855 297.854 499.685C298.419 499.531 298.883 499.265 299.248 498.887C299.613 498.51 299.856 498.058 299.978 497.532C300.108 496.991 300.092 496.42 299.928 495.82L300.74 497.893C300.629 498.644 300.314 499.298 299.797 499.856C299.279 500.415 298.638 500.798 297.873 501.007ZM301.143 499.925L300.565 497.808L300.477 497.832L298.599 490.95L300.011 490.565L302.466 499.564L301.143 499.925ZM305.287 498.795L302.832 489.795L304.155 489.434L304.781 491.728L304.869 491.704L306.699 498.409L305.287 498.795ZM305.418 493.716L304.606 491.643C304.609 490.821 304.827 490.136 305.259 489.588C305.691 489.041 306.26 488.671 306.966 488.478C307.26 488.398 307.466 488.367 307.585 488.385L307.956 489.744C307.89 489.736 307.805 489.747 307.699 489.776C307.59 489.793 307.459 489.822 307.306 489.864C306.412 490.108 305.803 490.565 305.48 491.234C305.166 491.889 305.145 492.716 305.418 493.716ZM315.542 495.997L312.076 483.292L313.523 482.897L316.989 495.602L315.542 495.997ZM314.796 490.342L314.449 489.072L321.296 487.204L321.642 488.474L314.796 490.342ZM313.164 484.36L312.817 483.09L320.158 481.087L320.505 482.358L313.164 484.36ZM328.167 492.742C327.579 492.903 327.023 492.928 326.5 492.818C325.974 492.696 325.522 492.453 325.145 492.088C324.764 491.711 324.495 491.235 324.338 490.659L322.629 484.394L324.04 484.009L325.648 489.903C325.834 490.585 326.139 491.052 326.561 491.303C326.995 491.551 327.524 491.59 328.148 491.42C328.712 491.266 329.177 491 329.542 490.623C329.906 490.245 330.15 489.793 330.271 489.267C330.402 488.726 330.385 488.156 330.222 487.556L331.033 489.628C330.922 490.379 330.608 491.033 330.09 491.592C329.573 492.15 328.932 492.534 328.167 492.742ZM331.436 491.661L330.859 489.543L330.77 489.567L328.893 482.686L330.305 482.3L332.76 491.3L331.436 491.661ZM335.581 490.53L332.115 477.825L333.526 477.44L336.992 490.145L335.581 490.53ZM339.82 489.374L336.354 476.669L337.765 476.284L341.231 488.988L339.82 489.374ZM347.697 487.224L344.231 474.52L345.731 474.11L355.936 482.815L355.734 482.909L352.807 472.18L354.183 471.805L357.649 484.509L356.149 484.919L345.945 476.214L346.147 476.12L349.074 486.849L347.697 487.224ZM366.107 482.202C366.006 482.015 365.908 481.795 365.814 481.543C365.731 481.287 365.636 480.959 365.526 480.559L365.438 480.583L364.264 476.278C364.077 475.596 363.782 475.139 363.378 474.908C362.982 474.662 362.437 474.634 361.743 474.823C361.061 475.009 360.552 475.3 360.218 475.694C359.892 476.074 359.774 476.523 359.865 477.042L358.506 477.412C358.328 476.526 358.506 475.744 359.042 475.067C359.578 474.39 360.387 473.904 361.469 473.609C362.586 473.304 363.488 473.342 364.174 473.724C364.859 474.106 365.346 474.826 365.635 475.885L366.815 480.208C366.885 480.467 366.977 480.732 367.089 481.005C367.198 481.266 367.324 481.541 367.466 481.831L366.107 482.202ZM363.067 483.221C362.138 483.474 361.336 483.453 360.661 483.157C359.995 482.846 359.554 482.296 359.339 481.508C359.124 480.72 359.228 480.034 359.65 479.451C360.073 478.868 360.777 478.347 361.764 477.889L364.761 476.502L365.079 477.667L362.275 478.925C361.645 479.21 361.193 479.523 360.919 479.863C360.645 480.204 360.573 480.609 360.701 481.079C360.826 481.538 361.074 481.843 361.444 481.995C361.826 482.144 362.322 482.135 362.934 481.968C363.722 481.753 364.315 481.402 364.713 480.914C365.119 480.411 365.244 479.872 365.087 479.295L365.658 480.485C365.633 481.137 365.39 481.703 364.927 482.183C364.475 482.66 363.856 483.006 363.067 483.221ZM369.993 481.142L367.538 472.143L368.861 471.782L369.439 473.899L369.527 473.875L371.404 480.757L369.993 481.142ZM376.063 479.486L374.436 473.522C374.25 472.839 373.96 472.381 373.568 472.147C373.175 471.913 372.691 471.874 372.114 472.032C371.573 472.179 371.12 472.442 370.756 472.819C370.391 473.197 370.142 473.65 370.008 474.18C369.886 474.706 369.909 475.275 370.076 475.887L369.264 473.814C369.387 473.06 369.701 472.406 370.207 471.85C370.713 471.295 371.325 470.92 372.042 470.724C372.913 470.487 373.689 470.553 374.371 470.923C375.051 471.281 375.509 471.895 375.746 472.766L377.475 479.101L376.063 479.486ZM382.133 477.83L380.506 471.866C380.32 471.183 380.03 470.725 379.638 470.491C379.245 470.257 378.761 470.218 378.184 470.376C377.643 470.523 377.19 470.786 376.826 471.163C376.461 471.541 376.212 471.994 376.078 472.524C375.956 473.05 375.979 473.619 376.146 474.231L375.21 472.192C375.333 471.438 375.66 470.78 376.189 470.219C376.718 469.657 377.348 469.277 378.077 469.078C378.947 468.84 379.73 468.905 380.424 469.272C381.115 469.627 381.579 470.239 381.816 471.11L383.545 477.445L382.133 477.83ZM389.996 475.874C389.137 476.109 388.324 476.116 387.556 475.895C386.785 475.663 386.115 475.246 385.546 474.643C384.977 474.04 384.567 473.279 384.317 472.362C384.066 471.444 384.029 470.588 384.204 469.795C384.388 468.986 384.762 468.297 385.327 467.725C385.892 467.154 386.609 466.75 387.48 466.513C388.315 466.285 389.088 466.27 389.799 466.467C390.522 466.662 391.138 467.044 391.647 467.613C392.168 468.178 392.551 468.908 392.795 469.802C392.827 469.92 392.851 470.033 392.868 470.142C392.897 470.248 392.918 470.369 392.929 470.505L385.501 472.532L385.178 471.349L391.742 469.559L391.462 470.337C391.166 469.254 390.699 468.491 390.059 468.046C389.428 467.586 388.678 467.475 387.807 467.712C386.913 467.956 386.275 468.465 385.892 469.24C385.518 469.999 385.473 470.902 385.759 471.949C386.051 473.02 386.556 473.805 387.273 474.304C388 474.788 388.821 474.905 389.739 474.655C390.315 474.498 390.788 474.236 391.155 473.871C391.52 473.493 391.738 473.042 391.81 472.517L393.151 472.151C393.081 473.054 392.766 473.842 392.203 474.514C391.649 475.17 390.913 475.624 389.996 475.874Z" fill="url(#paint9_linear_155_1286)"/>
<path id="Exp 10/11/28_2" d="M279.388 527.185L277.077 518.715L278.042 518.452L280.352 526.922L279.388 527.185ZM279.882 527.05L279.651 526.203L284.827 524.791L285.058 525.638L279.882 527.05ZM278.794 523.062L278.563 522.215L283.315 520.919L283.546 521.766L278.794 523.062ZM277.802 519.427L277.571 518.58L282.653 517.194L282.884 518.041L277.802 519.427ZM290.556 524.138L287.807 521.892L284.555 519.329L285.649 519.031L288.187 521.106L291.65 523.839L290.556 524.138ZM287.706 521.288L288.872 518.151L289.931 517.862L288.373 521.789L287.706 521.288ZM288.282 521.826L286.992 525.11L285.921 525.402L287.64 521.281L288.282 521.826ZM295.958 522.778C295.394 522.932 294.882 522.924 294.423 522.754C293.963 522.585 293.595 522.268 293.317 521.805L293.498 521.73L294.564 525.636L293.623 525.892L291.328 517.481L292.21 517.241L292.592 518.64L292.453 518.64C292.476 518.137 292.66 517.699 293.005 517.327C293.348 516.947 293.794 516.682 294.343 516.532C294.876 516.387 295.374 516.39 295.837 516.542C296.307 516.692 296.716 516.968 297.061 517.371C297.407 517.773 297.665 518.285 297.834 518.904C298.005 519.532 298.041 520.112 297.942 520.644C297.843 521.177 297.625 521.628 297.288 521.998C296.95 522.368 296.507 522.628 295.958 522.778ZM295.592 521.993C296.188 521.83 296.599 521.499 296.825 520.999C297.049 520.492 297.064 519.881 296.869 519.167C296.677 518.462 296.357 517.955 295.911 517.647C295.462 517.331 294.94 517.254 294.344 517.417C293.748 517.579 293.334 517.916 293.102 518.425C292.869 518.927 292.849 519.535 293.044 520.249C293.234 520.947 293.558 521.453 294.014 521.766C294.47 522.08 294.996 522.156 295.592 521.993ZM303.762 520.535L301.82 513.418L302.082 513.498C302.036 513.764 301.925 514.034 301.747 514.31C301.568 514.578 301.341 514.83 301.068 515.064C300.795 515.299 300.487 515.497 300.143 515.658L299.742 514.187C300.043 514.055 300.333 513.866 300.612 513.622C300.89 513.377 301.13 513.113 301.331 512.831C301.53 512.541 301.652 512.263 301.698 511.998L302.945 511.658L305.256 520.128L303.762 520.535ZM309.99 518.962C309.3 519.151 308.638 519.133 308.004 518.91C307.368 518.679 306.807 518.276 306.322 517.701C305.842 517.116 305.485 516.395 305.252 515.541C305.019 514.686 304.963 513.896 305.086 513.172C305.206 512.44 305.484 511.82 305.919 511.314C306.36 510.798 306.925 510.446 307.615 510.257C308.313 510.067 308.979 510.083 309.613 510.306C310.244 510.522 310.798 510.914 311.274 511.484C311.755 512.043 312.112 512.751 312.345 513.605C312.581 514.468 312.635 515.271 312.509 516.013C312.391 516.753 312.117 517.384 311.686 517.906C311.253 518.42 310.688 518.772 309.99 518.962ZM309.64 517.68C310.071 517.563 310.391 517.328 310.598 516.976C310.806 516.625 310.916 516.195 310.929 515.686C310.949 515.174 310.879 514.625 310.719 514.037C310.558 513.448 310.346 512.946 310.08 512.53C309.815 512.113 309.502 511.815 309.141 511.636C308.788 511.454 308.396 511.422 307.965 511.54C307.541 511.655 307.221 511.886 307.003 512.232C306.792 512.567 306.677 512.982 306.66 513.475C306.643 513.969 306.714 514.506 306.872 515.086C307.035 515.682 307.251 516.196 307.52 516.628C307.79 517.06 308.107 517.374 308.472 517.569C308.835 517.757 309.224 517.794 309.64 517.68ZM313.946 518.679L314.333 508.007L315.627 507.654L315.24 518.326L313.946 518.679ZM320.511 515.966L318.569 508.849L318.832 508.929C318.786 509.194 318.674 509.465 318.497 509.741C318.317 510.009 318.091 510.26 317.818 510.495C317.545 510.729 317.236 510.927 316.893 511.088L316.492 509.618C316.792 509.485 317.082 509.297 317.361 509.052C317.64 508.807 317.88 508.544 318.081 508.262C318.28 507.971 318.402 507.694 318.447 507.428L319.694 507.088L322.005 515.558L320.511 515.966ZM325.037 514.731L323.096 507.614L323.358 507.694C323.312 507.959 323.201 508.23 323.023 508.506C322.843 508.774 322.617 509.025 322.344 509.26C322.071 509.494 321.763 509.692 321.419 509.853L321.018 508.383C321.319 508.25 321.609 508.062 321.887 507.817C322.166 507.573 322.406 507.309 322.607 507.027C322.806 506.737 322.928 506.459 322.974 506.194L324.221 505.853L326.531 514.323L325.037 514.731ZM327.502 514.981L327.889 504.309L329.183 503.956L328.796 514.628L327.502 514.981ZM331.941 512.847L331.611 511.636C332.231 510.759 332.742 510.008 333.145 509.384C333.554 508.751 333.868 508.205 334.089 507.749C334.31 507.293 334.446 506.894 334.496 506.551C334.551 506.199 334.538 505.874 334.457 505.576C334.35 505.184 334.157 504.908 333.877 504.748C333.598 504.589 333.262 504.562 332.87 504.669C332.462 504.781 332.162 504.993 331.97 505.307C331.775 505.613 331.709 505.989 331.772 506.435L330.219 506.859C330.089 506.043 330.236 505.329 330.658 504.717C331.081 504.104 331.732 503.678 332.61 503.438C333.48 503.201 334.225 503.242 334.843 503.562C335.467 503.872 335.888 504.427 336.106 505.227C336.215 505.627 336.251 506.035 336.212 506.45C336.179 506.855 336.058 507.305 335.848 507.8C335.643 508.286 335.34 508.845 334.94 509.476C334.545 510.098 334.035 510.823 333.41 511.651L332.916 511.28L337.575 510.009L337.905 511.22L331.941 512.847ZM341.744 510.3C341.116 510.471 340.538 510.515 340.01 510.431C339.482 510.348 339.034 510.158 338.667 509.862C338.305 509.557 338.058 509.161 337.926 508.674C337.81 508.251 337.8 507.845 337.897 507.456C337.993 507.068 338.176 506.735 338.446 506.459C338.722 506.174 339.072 505.973 339.495 505.857L339.692 506.069C339.269 506.185 338.879 506.207 338.522 506.135C338.163 506.056 337.862 505.894 337.618 505.649C337.372 505.396 337.197 505.077 337.092 504.693C336.966 504.23 336.973 503.794 337.114 503.385C337.263 502.974 337.528 502.615 337.908 502.309C338.294 501.993 338.777 501.756 339.357 501.598C339.945 501.437 340.482 501.396 340.966 501.475C341.449 501.545 341.855 501.721 342.185 502.002C342.522 502.28 342.753 502.647 342.877 503.102C342.984 503.494 342.995 503.862 342.912 504.205C342.827 504.54 342.649 504.832 342.381 505.083C342.11 505.325 341.759 505.505 341.327 505.623L341.401 505.337C341.824 505.222 342.224 505.218 342.599 505.327C342.98 505.425 343.31 505.617 343.59 505.903C343.87 506.189 344.068 506.543 344.184 506.967C344.316 507.453 344.305 507.92 344.149 508.367C343.993 508.814 343.708 509.208 343.295 509.548C342.888 509.878 342.371 510.128 341.744 510.3ZM341.401 509.091C341.872 508.963 342.203 508.742 342.396 508.428C342.594 508.104 342.634 507.727 342.517 507.295C342.399 506.864 342.17 506.564 341.829 506.396C341.496 506.226 341.102 506.203 340.647 506.327C340.184 506.453 339.853 506.674 339.653 506.99C339.452 507.306 339.411 507.679 339.529 508.111C339.648 508.55 339.875 508.855 340.208 509.025C340.541 509.195 340.939 509.217 341.401 509.091ZM340.342 505.209C340.727 505.104 341.007 504.914 341.185 504.638C341.36 504.354 341.398 504.028 341.297 503.659C341.194 503.283 340.993 503.022 340.692 502.877C340.399 502.729 340.06 502.708 339.676 502.813C339.299 502.915 339.023 503.108 338.848 503.392C338.671 503.668 338.632 503.99 338.733 504.359C338.833 504.728 339.031 504.99 339.326 505.145C339.627 505.29 339.966 505.312 340.342 505.209Z" fill="url(#paint10_linear_155_1286)"/>
</g>
<g id="Frame 5_2">
<path id="Card Number_2" d="M453.367 388.361C453.545 389.014 453.591 389.651 453.504 390.272C453.406 390.886 453.197 391.455 452.875 391.979C452.545 392.505 452.114 392.959 451.583 393.341C451.043 393.725 450.416 394.015 449.701 394.21C448.987 394.405 448.304 394.473 447.652 394.413C446.992 394.357 446.392 394.189 445.851 393.909C445.299 393.624 444.83 393.24 444.442 392.758C444.044 392.27 443.755 391.699 443.577 391.046C443.382 390.332 443.353 389.652 443.49 389.008C443.625 388.355 443.908 387.776 444.338 387.27C444.767 386.755 445.322 386.357 446.003 386.076L446.3 387.161C445.543 387.481 445.011 387.963 444.703 388.606C444.384 389.243 444.334 389.963 444.553 390.766C444.738 391.445 445.068 391.995 445.543 392.415C446.009 392.838 446.576 393.11 447.244 393.231C447.904 393.354 448.622 393.31 449.398 393.098C450.174 392.886 450.82 392.559 451.334 392.115C451.839 391.674 452.19 391.152 452.385 390.549C452.572 389.948 452.574 389.312 452.391 388.642C452.167 387.821 451.755 387.213 451.154 386.818C450.551 386.414 449.848 386.269 449.045 386.384L448.749 385.298C449.479 385.194 450.159 385.255 450.789 385.481C451.417 385.698 451.955 386.054 452.403 386.548C452.848 387.033 453.169 387.638 453.367 388.361ZM450.6 378.742C450.46 378.819 450.295 378.892 450.106 378.963C449.914 379.024 449.668 379.096 449.368 379.178L449.387 379.244L446.157 380.125C445.646 380.265 445.303 380.486 445.13 380.789C444.946 381.086 444.924 381.495 445.066 382.015C445.206 382.527 445.424 382.909 445.72 383.16C446.004 383.404 446.341 383.492 446.73 383.424L447.008 384.443C446.343 384.577 445.757 384.443 445.249 384.042C444.742 383.64 444.377 383.033 444.156 382.221C443.927 381.383 443.956 380.707 444.242 380.193C444.528 379.679 445.069 379.313 445.863 379.097L449.105 378.212C449.299 378.159 449.498 378.09 449.703 378.006C449.899 377.924 450.105 377.83 450.322 377.723L450.6 378.742ZM451.365 381.022C451.555 381.719 451.539 382.321 451.317 382.827C451.083 383.327 450.671 383.657 450.08 383.819C449.489 383.98 448.975 383.902 448.537 383.585C448.1 383.268 447.71 382.74 447.366 382L446.326 379.752L447.199 379.514L448.143 381.617C448.357 382.089 448.592 382.428 448.847 382.634C449.102 382.839 449.406 382.893 449.759 382.797C450.103 382.703 450.332 382.518 450.446 382.24C450.557 381.954 450.55 381.581 450.425 381.122C450.264 380.531 450 380.086 449.634 379.788C449.257 379.483 448.853 379.39 448.42 379.508L449.313 379.079C449.802 379.098 450.226 379.281 450.586 379.628C450.944 379.966 451.203 380.431 451.365 381.022ZM449.805 375.828L443.056 377.67L442.785 376.677L444.506 376.208L444.488 376.142L449.517 374.77L449.805 375.828ZM445.996 375.73L444.442 376.339C443.825 376.337 443.311 376.173 442.901 375.849C442.49 375.525 442.212 375.099 442.068 374.569C442.008 374.349 441.985 374.194 441.998 374.105L443.017 373.827C443.012 373.876 443.02 373.94 443.041 374.019C443.054 374.101 443.076 374.199 443.107 374.314C443.29 374.985 443.633 375.441 444.135 375.683C444.626 375.919 445.246 375.935 445.996 375.73ZM447.172 366.175L445.597 366.605L445.601 366.462C446.158 366.49 446.648 366.688 447.071 367.056C447.491 367.415 447.786 367.904 447.954 368.521C448.12 369.13 448.12 369.704 447.954 370.242C447.786 370.771 447.476 371.235 447.026 371.633C446.572 372.022 445.997 372.311 445.3 372.502C444.595 372.694 443.942 372.735 443.343 372.623C442.744 372.512 442.236 372.266 441.82 371.887C441.403 371.508 441.111 371.009 440.942 370.392C440.769 369.756 440.778 369.18 440.969 368.664C441.16 368.147 441.516 367.733 442.037 367.42L442.121 367.624L437.661 368.841L437.373 367.782L446.901 365.183L447.172 366.175ZM446.974 368.576C446.788 367.896 446.414 367.429 445.852 367.175C445.279 366.915 444.59 366.894 443.788 367.113C443.002 367.327 442.433 367.691 442.08 368.204C441.728 368.718 441.643 369.31 441.826 369.98C442.008 370.651 442.381 371.113 442.943 371.367C443.506 371.621 444.193 371.638 445.004 371.416C445.798 371.2 446.373 370.839 446.728 370.335C447.075 369.832 447.157 369.246 446.974 368.576ZM445.577 360.331L436.049 362.93L435.742 361.805L442.271 354.152L442.341 354.303L434.294 356.498L434.013 355.466L443.541 352.867L443.848 353.991L437.319 361.645L437.249 361.494L445.296 359.298L445.577 360.331ZM442.474 348.432C442.594 348.874 442.613 349.29 442.53 349.682C442.439 350.077 442.256 350.416 441.983 350.699C441.701 350.985 441.343 351.186 440.911 351.304L436.213 352.586L435.924 351.527L440.344 350.321C440.856 350.182 441.206 349.954 441.394 349.637C441.581 349.311 441.61 348.915 441.482 348.447C441.367 348.023 441.167 347.675 440.884 347.401C440.601 347.128 440.262 346.946 439.867 346.854C439.462 346.756 439.034 346.769 438.584 346.892L440.138 346.283C440.701 346.366 441.192 346.602 441.611 346.99C442.03 347.378 442.317 347.859 442.474 348.432ZM441.662 345.98L440.074 346.414L440.092 346.48L434.931 347.888L434.642 346.829L441.392 344.988L441.662 345.98ZM440.815 342.872L434.065 344.714L433.794 343.721L435.382 343.288L435.364 343.222L440.526 341.813L440.815 342.872ZM439.573 338.32L435.099 339.54C434.588 339.68 434.244 339.897 434.068 340.191C433.893 340.485 433.864 340.849 433.982 341.281C434.093 341.687 434.289 342.027 434.573 342.3C434.856 342.574 435.196 342.76 435.593 342.861C435.988 342.952 436.414 342.935 436.873 342.81L435.319 343.419C434.753 343.327 434.262 343.091 433.846 342.712C433.43 342.332 433.148 341.873 433.001 341.335C432.823 340.682 432.873 340.1 433.15 339.588C433.419 339.079 433.88 338.735 434.533 338.557L439.284 337.261L439.573 338.32ZM438.33 333.767L433.857 334.987C433.346 335.127 433.002 335.344 432.826 335.638C432.651 335.933 432.622 336.296 432.74 336.728C432.851 337.134 433.047 337.474 433.331 337.747C433.614 338.021 433.954 338.208 434.351 338.308C434.746 338.399 435.172 338.383 435.631 338.257L434.102 338.959C433.536 338.867 433.043 338.622 432.622 338.225C432.201 337.828 431.916 337.356 431.766 336.809C431.588 336.156 431.637 335.57 431.912 335.049C432.178 334.531 432.638 334.183 433.291 334.005L438.042 332.708L438.33 333.767ZM436.695 327.305C436.869 327.94 436.86 328.516 436.669 329.032C436.478 329.549 436.122 329.963 435.601 330.276L435.535 330.138L437.215 329.679L437.486 330.672L427.958 333.272L427.669 332.213L432.023 331.025L432.023 331.181C431.456 331.156 430.968 330.962 430.556 330.6C430.133 330.232 429.838 329.739 429.669 329.122C429.506 328.522 429.509 327.962 429.68 327.441C429.848 326.912 430.159 326.452 430.612 326.063C431.065 325.674 431.64 325.385 432.337 325.195C433.043 325.002 433.696 324.961 434.295 325.073C434.894 325.184 435.402 325.43 435.818 325.809C436.234 326.188 436.527 326.687 436.695 327.305ZM435.812 327.716C435.629 327.046 435.257 326.583 434.694 326.329C434.123 326.077 433.436 326.061 432.634 326.28C431.839 326.496 431.269 326.856 430.923 327.358C430.567 327.862 430.481 328.45 430.664 329.121C430.847 329.791 431.225 330.257 431.799 330.517C432.364 330.78 433.047 330.802 433.85 330.583C434.635 330.369 435.205 330.005 435.557 329.492C435.91 328.979 435.995 328.387 435.812 327.716ZM434.674 319.844C434.85 320.488 434.855 321.098 434.69 321.674C434.516 322.252 434.203 322.755 433.751 323.182C433.298 323.608 432.728 323.916 432.04 324.103C431.352 324.291 430.71 324.319 430.115 324.188C429.508 324.05 428.991 323.769 428.563 323.346C428.134 322.922 427.831 322.384 427.653 321.731C427.482 321.105 427.471 320.525 427.619 319.992C427.765 319.449 428.051 318.987 428.478 318.605C428.902 318.215 429.45 317.928 430.12 317.745C430.209 317.721 430.294 317.703 430.375 317.69C430.455 317.668 430.545 317.653 430.647 317.644L432.167 323.216L431.281 323.457L429.937 318.534L430.521 318.745C429.709 318.966 429.137 319.317 428.803 319.797C428.458 320.27 428.375 320.833 428.553 321.486C428.736 322.156 429.118 322.635 429.698 322.922C430.268 323.203 430.945 323.236 431.731 323.022C432.533 322.803 433.122 322.424 433.497 321.886C433.86 321.341 433.948 320.725 433.76 320.037C433.642 319.604 433.446 319.25 433.172 318.974C432.888 318.701 432.55 318.537 432.156 318.484L431.882 317.478C432.559 317.53 433.15 317.767 433.654 318.189C434.146 318.604 434.487 319.156 434.674 319.844ZM433.259 315.176L426.509 317.018L426.238 316.025L427.959 315.556L427.941 315.489L432.97 314.117L433.259 315.176ZM429.449 315.078L427.895 315.687C427.278 315.684 426.765 315.521 426.354 315.197C425.943 314.873 425.666 314.447 425.521 313.917C425.461 313.697 425.438 313.542 425.451 313.453L426.47 313.175C426.465 313.224 426.473 313.288 426.494 313.367C426.507 313.449 426.529 313.547 426.561 313.662C426.744 314.333 427.086 314.789 427.588 315.031C428.079 315.267 428.7 315.282 429.449 315.078Z" fill="url(#paint11_linear_155_1286)"/>
<path id="xxxx xxxx xxxx xxxx_2" d="M482.255 376.617L478.325 381.428L473.839 387.119L473.317 385.205L476.949 380.763L481.732 374.703L482.255 376.617ZM477.268 381.606L471.778 379.564L471.273 377.711L478.143 380.438L477.268 381.606ZM478.209 380.597L483.956 382.855L484.468 384.729L477.254 381.72L478.209 380.597ZM479.161 365.279L475.232 370.089L470.746 375.781L470.224 373.866L473.856 369.425L478.639 363.364L479.161 365.279ZM474.174 370.267L468.685 368.226L468.179 366.373L475.05 369.099L474.174 370.267ZM475.115 369.258L480.863 371.517L481.374 373.39L474.161 370.381L475.115 369.258ZM476.068 353.94L472.138 358.75L467.653 364.442L467.13 362.528L470.763 358.086L475.546 352.026L476.068 353.94ZM471.081 358.928L465.591 356.887L465.086 355.034L471.957 357.76L471.081 358.928ZM472.022 357.919L477.77 360.178L478.281 362.051L471.068 359.042L472.022 357.919ZM472.975 342.602L469.045 347.412L464.559 353.103L464.037 351.189L467.669 346.748L472.452 340.687L472.975 342.602ZM467.987 347.59L462.498 345.548L461.993 343.696L468.863 346.422L467.987 347.59ZM468.929 346.581L474.676 348.839L475.188 350.713L467.974 347.704L468.929 346.581ZM468.757 327.142L464.827 331.952L460.342 337.644L459.819 335.729L463.452 331.288L468.235 325.227L468.757 327.142ZM463.77 332.13L458.28 330.088L457.775 328.236L464.646 330.962L463.77 332.13ZM464.711 331.121L470.459 333.379L470.97 335.253L463.757 332.244L464.711 331.121ZM465.664 315.803L461.734 320.613L457.248 326.305L456.726 324.39L460.358 319.949L465.141 313.889L465.664 315.803ZM460.676 320.791L455.187 318.75L454.682 316.897L461.552 319.623L460.676 320.791ZM461.618 319.782L467.365 322.041L467.876 323.914L460.663 320.905L461.618 319.782ZM462.57 304.464L458.64 309.275L454.155 314.966L453.633 313.052L457.265 308.61L462.048 302.55L462.57 304.464ZM457.583 309.453L452.094 307.411L451.588 305.558L458.459 308.285L457.583 309.453ZM458.524 308.444L464.272 310.702L464.783 312.576L457.57 309.567L458.524 308.444ZM459.477 293.126L455.547 297.936L451.062 303.628L450.539 301.713L454.171 297.272L458.955 291.211L459.477 293.126ZM454.49 298.114L449 296.073L448.495 294.22L455.366 296.946L454.49 298.114ZM455.431 297.105L461.179 299.364L461.69 301.237L454.477 298.228L455.431 297.105ZM455.259 277.666L451.329 282.476L446.844 288.168L446.322 286.253L449.954 281.812L454.737 275.751L455.259 277.666ZM450.272 282.654L444.783 280.613L444.277 278.76L451.148 281.486L450.272 282.654ZM451.213 281.645L456.961 283.904L457.472 285.777L450.259 282.768L451.213 281.645ZM452.166 266.327L448.236 271.137L443.75 276.829L443.228 274.915L446.86 270.473L451.644 264.413L452.166 266.327ZM447.179 271.315L441.689 269.274L441.184 267.421L448.054 270.147L447.179 271.315ZM448.12 270.307L453.868 272.565L454.379 274.438L447.166 271.43L448.12 270.307ZM449.073 254.989L445.143 259.799L440.657 265.491L440.135 263.576L443.767 259.135L448.55 253.074L449.073 254.989ZM444.085 259.977L438.596 257.935L438.09 256.083L444.961 258.809L444.085 259.977ZM445.027 258.968L450.774 261.226L451.285 263.1L444.072 260.091L445.027 258.968ZM445.979 243.65L442.049 248.46L437.564 254.152L437.041 252.237L440.674 247.796L445.457 241.736L445.979 243.65ZM440.992 248.638L435.503 246.597L434.997 244.744L441.868 247.47L440.992 248.638ZM441.933 247.629L447.681 249.888L448.192 251.761L440.979 248.752L441.933 247.629ZM441.762 228.19L437.832 233L433.346 238.692L432.824 236.778L436.456 232.336L441.239 226.276L441.762 228.19ZM436.774 233.178L431.285 231.137L430.779 229.284L437.65 232.01L436.774 233.178ZM437.716 232.169L443.463 234.428L443.974 236.301L436.761 233.292L437.716 232.169ZM438.668 216.852L434.738 221.662L430.253 227.353L429.73 225.439L433.363 220.997L438.146 214.937L438.668 216.852ZM433.681 221.84L428.192 219.798L427.686 217.945L434.557 220.672L433.681 221.84ZM434.622 220.831L440.37 223.089L440.881 224.963L433.668 221.954L434.622 220.831ZM435.575 205.513L431.645 210.323L427.159 216.015L426.637 214.1L430.269 209.659L435.052 203.598L435.575 205.513ZM430.588 210.501L425.098 208.46L424.593 206.607L431.463 209.333L430.588 210.501ZM431.529 209.492L437.277 211.751L437.788 213.624L430.574 210.615L431.529 209.492ZM432.481 194.174L428.552 198.984L424.066 204.676L423.544 202.762L427.176 198.32L431.959 192.26L432.481 194.174ZM427.494 199.162L422.005 197.121L421.499 195.268L428.37 197.994L427.494 199.162ZM428.436 198.154L434.183 200.412L434.694 202.285L427.481 199.277L428.436 198.154Z" fill="url(#paint12_linear_155_1286)"/>
</g>
<g id="Ellipse 1_2" opacity="0.2" filter="url(#filter3_f_155_1286)">
<circle cx="232.021" cy="333.445" r="79.2583" transform="rotate(-15.2598 232.021 333.445)" fill="url(#paint13_linear_155_1286)"/>
</g>
</g>
<rect x="146.716" y="143.826" width="294.17" height="430.586" rx="14.8609" transform="rotate(-15.2598 146.716 143.826)" stroke="url(#paint14_linear_155_1286)" stroke-width="0.762099"/>
</g>
</g>
</g>
<defs>
<filter id="filter0_f_155_1286" x="87.6817" y="77.2173" width="775.881" height="775.881" filterUnits="userSpaceOnUse" color-interpolation-filters="sRGB">
<feFlood flood-opacity="0" result="BackgroundImageFix"/>
<feBlend mode="normal" in="SourceGraphic" in2="BackgroundImageFix" result="shape"/>
<feGaussianBlur stdDeviation="114.315" result="effect1_foregroundBlur_155_1286"/>
</filter>
<filter id="filter1_f_155_1286" x="137.913" y="147.758" width="463.391" height="463.391" filterUnits="userSpaceOnUse" color-interpolation-filters="sRGB">
<feFlood flood-opacity="0" result="BackgroundImageFix"/>
<feBlend mode="normal" in="SourceGraphic" in2="BackgroundImageFix" result="shape"/>
<feGaussianBlur stdDeviation="76.2099" result="effect1_foregroundBlur_155_1286"/>
</filter>
<filter id="filter2_f_155_1286" x="0.000106812" y="22.4254" width="737.758" height="737.758" filterUnits="userSpaceOnUse" color-interpolation-filters="sRGB">
<feFlood flood-opacity="0" result="BackgroundImageFix"/>
<feBlend mode="normal" in="SourceGraphic" in2="BackgroundImageFix" result="shape"/>
<feGaussianBlur stdDeviation="114.315" result="effect1_foregroundBlur_155_1286"/>
</filter>
<filter id="filter3_f_155_1286" x="0.322327" y="101.747" width="463.397" height="463.396" filterUnits="userSpaceOnUse" color-interpolation-filters="sRGB">
<feFlood flood-opacity="0" result="BackgroundImageFix"/>
<feBlend mode="normal" in="SourceGraphic" in2="BackgroundImageFix" result="shape"/>
<feGaussianBlur stdDeviation="76.2099" result="effect1_foregroundBlur_155_1286"/>
</filter>
<linearGradient id="paint0_linear_155_1286" x1="411.166" y1="334.282" x2="411.166" y2="632.019" gradientUnits="userSpaceOnUse">
<stop stop-color="#FDFDFD"/>
<stop offset="1" stop-color="#5C5C5C"/>
</linearGradient>
<linearGradient id="paint1_linear_155_1286" x1="411.165" y1="343.391" x2="411.165" y2="585.336" gradientUnits="userSpaceOnUse">
<stop stop-color="#FDFDFD"/>
<stop offset="1" stop-color="#5C5C5C"/>
</linearGradient>
<linearGradient id="paint2_linear_155_1286" x1="411.166" y1="326.75" x2="411.166" y2="670.623" gradientUnits="userSpaceOnUse">
<stop stop-color="#FDFDFD"/>
<stop offset="1" stop-color="#5C5C5C"/>
</linearGradient>
<linearGradient id="paint3_linear_155_1286" x1="453.731" y1="543.13" x2="453.731" y2="594.135" gradientUnits="userSpaceOnUse">
<stop stop-color="#FDFDFD"/>
<stop offset="1" stop-color="#5C5C5C"/>
</linearGradient>
<linearGradient id="paint4_linear_155_1286" x1="369.609" y1="363.989" x2="369.609" y2="458.712" gradientUnits="userSpaceOnUse">
<stop stop-color="#FDFDFD"/>
<stop offset="1" stop-color="#5C5C5C"/>
</linearGradient>
<linearGradient id="paint5_linear_155_1286" x1="531.219" y1="345.166" x2="531.219" y2="602.923" gradientUnits="userSpaceOnUse">
<stop stop-color="#FDFDFD"/>
<stop offset="1" stop-color="#5C5C5C"/>
</linearGradient>
<linearGradient id="paint6_linear_155_1286" x1="368.879" y1="363.943" x2="368.879" y2="531.531" gradientUnits="userSpaceOnUse">
<stop stop-color="#FDFDFD"/>
<stop offset="1" stop-color="#5C5C5C"/>
</linearGradient>
<linearGradient id="paint7_linear_155_1286" x1="384.778" y1="511.703" x2="384.778" y2="562.708" gradientUnits="userSpaceOnUse">
<stop stop-color="#FDFDFD"/>
<stop offset="1" stop-color="#5C5C5C"/>
</linearGradient>
<linearGradient id="paint8_linear_155_1286" x1="263.582" y1="154.081" x2="268.3" y2="171.375" gradientUnits="userSpaceOnUse">
<stop stop-color="#FDFDFD"/>
<stop offset="1" stop-color="#5C5C5C"/>
</linearGradient>
<linearGradient id="paint9_linear_155_1286" x1="331.815" y1="482.077" x2="335.275" y2="494.76" gradientUnits="userSpaceOnUse">
<stop stop-color="#FDFDFD"/>
<stop offset="1" stop-color="#5C5C5C"/>
</linearGradient>
<linearGradient id="paint10_linear_155_1286" x1="310.573" y1="512.496" x2="312.932" y2="521.143" gradientUnits="userSpaceOnUse">
<stop stop-color="#FDFDFD"/>
<stop offset="1" stop-color="#5C5C5C"/>
</linearGradient>
<linearGradient id="paint11_linear_155_1286" x1="419.721" y1="288.952" x2="429.521" y2="286.278" gradientUnits="userSpaceOnUse">
<stop stop-color="#FDFDFD"/>
<stop offset="1" stop-color="#5C5C5C"/>
</linearGradient>
<linearGradient id="paint12_linear_155_1286" x1="445.498" y1="281.92" x2="460.487" y2="277.831" gradientUnits="userSpaceOnUse">
<stop stop-color="#FDFDFD"/>
<stop offset="1" stop-color="#5C5C5C"/>
</linearGradient>
<linearGradient id="paint13_linear_155_1286" x1="232.021" y1="317.98" x2="232.021" y2="412.704" gradientUnits="userSpaceOnUse">
<stop stop-color="#FDFDFD"/>
<stop offset="1" stop-color="#5C5C5C"/>
</linearGradient>
<linearGradient id="paint14_linear_155_1286" x1="293.714" y1="317.15" x2="293.714" y2="574.907" gradientUnits="userSpaceOnUse">
<stop stop-color="#FDFDFD"/>
<stop offset="1" stop-color="#5C5C5C"/>
</linearGradient>
<clipPath id="clip0_155_1286">
<rect x="383.753" y="171.575" width="294.932" height="431.348" rx="15.242" transform="rotate(12.9416 383.753 171.575)" fill="white"/>
</clipPath>
<clipPath id="clip1_155_1286">
<rect x="146.248" y="143.559" width="294.932" height="431.348" rx="15.242" transform="rotate(-15.2598 146.248 143.559)" fill="white"/>
</clipPath>
<clipPath id="clip2_155_1286">
<rect width="24" height="24" fill="white" transform="translate(180.483 167.29) rotate(-15)"/>
</clipPath>
</defs>
</svg>
