<svg width="72" height="72" viewBox="0 0 72 72" fill="none" xmlns="http://www.w3.org/2000/svg">
<g id="&#233;&#162;&#134;&#231;&#148;&#168;&#231;&#148;&#179;&#232;&#175;&#183; 1">
<path id="Vector" d="M60.9824 36.5556C60.673 36.2392 60.2652 36.0704 59.8152 36.0704C59.3793 36.0704 58.9574 36.2532 58.648 36.5556L55.6668 39.5368L61.9527 45.8157L64.7582 42.6517C65.0746 42.3423 65.2434 41.9204 65.2434 41.4915C65.2434 41.0556 65.0605 40.6337 64.7582 40.3313L60.9824 36.5556ZM40.4301 29.911H22.2895C20.2996 29.911 18.6895 28.3009 18.6895 26.3181C18.6895 24.3282 20.2996 22.7251 22.2895 22.7251H40.4301C42.4199 22.7251 44.0301 24.3353 44.0301 26.3181C44.0301 28.3079 42.4199 29.911 40.4301 29.911ZM33.1387 44.3673H22.2895C20.2996 44.3673 18.6895 42.7571 18.6895 40.7743C18.6895 38.7845 20.2996 37.1813 22.2895 37.1813H33.1387C35.1285 37.1813 36.7387 38.7915 36.7387 40.7743C36.7387 42.7642 35.1285 44.3673 33.1387 44.3673ZM48.7059 6.20166H15.5113C10.6879 6.20166 6.77148 10.111 6.77148 14.9345V57.1009C6.77148 61.9243 10.6879 65.8337 15.5113 65.8337H27.584V58.0079L57.4527 27.4782V14.9415C57.4527 10.1181 53.5363 6.20166 48.7059 6.20166ZM35.466 59.5548V65.8337H41.766L59.9699 47.454L53.684 41.161L35.466 59.5548Z" fill="#C9D5FF"/>
</g>
</svg>
