<svg width="72" height="72" viewBox="0 0 72 72" fill="none" xmlns="http://www.w3.org/2000/svg">
<g id="&#229;&#128;&#159;&#230;&#172;&#190;&#232;&#174;&#176;&#229;&#189;&#149; 1">
<g id="Group 1948758191">
<path id="Vector" d="M48.9436 62.5391C57.1579 62.5391 63.818 55.8798 63.818 47.6649C63.818 39.45 57.1579 32.7905 48.9436 32.7905C40.7293 32.7905 34.0693 39.45 34.0693 47.6649C34.0693 55.8798 40.7293 62.5391 48.9436 62.5391Z" fill="#C9D5FF"/>
<path id="Vector_2" d="M24.2146 51.4968C13.0383 51.4968 8.03906 46.4595 8.03906 46.4595V51.383C8.03906 56.1753 15.2535 60.0597 24.1529 60.0597C27.7407 60.0597 31.055 59.4285 33.7326 58.3602C32.1904 56.1699 31.1082 53.6315 30.6289 50.8855C28.7793 51.2583 26.6453 51.4968 24.2146 51.4968Z" fill="#C9D5FF"/>
<path id="Vector_3" d="M24.2146 47.5687C26.5629 47.5687 28.6002 47.3907 30.359 47.1032C30.4595 43.7157 31.4666 40.5559 33.1442 37.8578C30.7971 38.5731 27.8363 39.1021 24.2146 39.1021C13.0383 39.1021 8.03906 34.0647 8.03906 34.0647V42.7069C8.03906 42.7069 11.9356 47.5687 24.2146 47.5687Z" fill="#C9D5FF"/>
<path id="Vector_4" d="M24.2146 26.6035C24.2146 26.6035 14.5974 27.0757 8.03906 21.5662V21.6697V30.3119C8.03906 30.3119 11.9356 35.1737 24.2146 35.1737C36.4924 35.1737 40.2666 30.3119 40.2666 30.3119V21.8409C40.2666 21.8409 34.6562 26.6035 24.2146 26.6035Z" fill="#C9D5FF"/>
<path id="Vector_5" d="M24.1529 8C15.2535 8 8.03906 11.8844 8.03906 16.6766V17.8126C8.03906 17.8126 12.0348 22.6745 24.2146 22.6745C24.2146 22.6745 34.5326 23.1841 40.2666 17.8126V16.6766C40.2666 11.8844 33.0522 8 24.1529 8Z" fill="#C9D5FF"/>
</g>
</g>
</svg>
