<svg width="72" height="72" viewBox="0 0 72 72" fill="none" xmlns="http://www.w3.org/2000/svg">
<g id="nav_&#230;&#136;&#145;&#231;&#154;&#132;&#230;&#181;&#129;&#231;&#168;&#139; 1">
<path id="Vector" d="M63.8612 54.6376C63.2388 55.7451 62.4022 56.7177 61.4002 57.4986C60.3981 58.2796 59.2506 58.8532 58.0246 59.1862C56.7986 59.5191 55.5186 59.6047 54.2592 59.438C52.9997 59.2713 51.7861 58.8555 50.689 58.215C48.4658 56.8985 46.8495 54.7606 46.189 52.2627C45.5286 49.7648 45.877 47.1074 47.159 44.8642C47.9962 43.3907 49.2095 42.1657 50.6749 41.3144C52.1403 40.4631 53.8053 40.0159 55.5001 40.0184C55.5475 39.448 55.6404 38.8886 55.6404 38.309C55.6527 35.6406 55.1264 32.9971 54.0931 30.5368C53.0597 28.0765 51.5406 25.85 49.6265 23.9906L53.6358 19.7681C56.1161 22.1747 58.0848 25.0575 59.4239 28.2435C60.7629 31.4295 61.4447 34.8531 61.4283 38.309C61.4219 39.5091 61.3343 40.7073 61.1659 41.8955C63.0942 43.3235 64.433 45.408 64.9296 47.7555C65.4261 50.103 65.0461 52.5511 63.8612 54.6376ZM36.0133 25.2626C34.305 25.2541 32.63 24.789 31.1619 23.9155C29.6937 23.0421 28.4858 21.792 27.6631 20.2948C24.9574 21.5812 22.5806 23.4677 20.7137 25.8109C18.8467 28.154 17.5387 30.8921 16.8892 33.8169L11.2526 32.5029C12.1422 28.4862 13.9914 24.7448 16.642 21.5984C19.2926 18.4521 22.6658 15.9945 26.4731 14.4358C26.7033 12.5956 27.4599 10.8609 28.6521 9.44024C29.8442 8.01957 31.4212 6.97331 33.1935 6.42713C34.9659 5.88096 36.8582 5.8581 38.6432 6.36131C40.4282 6.86452 42.03 7.87239 43.2561 9.26385C44.4822 10.6553 45.2805 12.3712 45.5551 14.2053C45.8297 16.0395 45.5689 17.9139 44.804 19.6034C44.0392 21.2929 42.8028 22.7257 41.2434 23.7296C39.684 24.7335 37.8679 25.2658 36.0133 25.2626ZM24.8621 44.8259C25.7053 46.316 26.1451 48.0004 26.138 49.7125C26.131 51.4246 25.6774 53.1052 24.822 54.5884C28.0906 56.9174 31.9999 58.1778 36.0133 58.1967C37.9927 58.1969 39.96 57.8895 41.8449 57.2855L43.5853 62.8839C41.1362 63.663 38.5815 64.0595 36.0115 64.0593C30.3423 64.0412 24.8442 62.1155 20.4028 58.5922C18.2295 59.5741 15.7675 59.7071 13.5012 58.9652C11.2348 58.2232 9.32814 56.6599 8.15634 54.5829C6.8743 52.3397 6.52589 49.6823 7.18633 47.1844C7.84677 44.6865 9.46309 42.5486 11.6863 41.2322C12.7847 40.592 13.9996 40.177 15.2601 40.0114C16.5207 39.8458 17.8015 39.9329 19.028 40.2676C20.2545 40.6023 21.4021 41.1779 22.4037 41.9609C23.4054 42.7438 24.2411 43.7184 24.8621 44.8277V44.8259Z" fill="#C9D5FF"/>
</g>
</svg>
