<svg width="72" height="72" viewBox="0 0 72 72" fill="none" xmlns="http://www.w3.org/2000/svg">
<g id="&#229;&#191;&#171;&#232;&#191;&#155;10&#231;&#167;&#146; 1" clip-path="url(#clip0_172_1307)">
<path id="Vector" d="M0 36C0 16.1177 16.1177 0 36 0C55.8823 0 72 16.1177 72 36C72 55.8823 55.8823 72 36 72C16.1177 72 0 55.8823 0 36Z" fill="#C9D5FF"/>
<path id="Vector_2" d="M35.9997 17.1431C36.1852 17.1426 36.3687 17.1814 36.5381 17.2569C36.7075 17.3324 36.8589 17.443 36.9825 17.5813C37.1061 17.7196 37.199 17.8825 37.255 18.0594C37.3111 18.2362 37.329 18.4228 37.3077 18.6071C37.28 18.8535 37.1831 19.0871 37.0283 19.2808L33.5191 23.6676C33.2959 23.9247 32.9819 24.0854 32.6429 24.1162C32.3039 24.1469 31.9661 24.0454 31.7002 23.8327C31.4344 23.62 31.2612 23.3128 31.2168 22.9753C31.1723 22.6377 31.2602 22.2961 31.462 22.0219L33.0494 20.0402C29.2268 20.7479 25.7853 22.8044 23.351 25.8354C20.9168 28.8665 19.6516 32.6708 19.7856 36.556C19.9197 40.4413 21.444 44.1493 24.0814 47.0054C26.7188 49.8615 30.2938 51.6759 34.1561 52.1185C38.0184 52.561 41.9112 51.6023 45.1263 49.4168C48.3413 47.2312 50.6649 43.9641 51.6743 40.2099C52.6837 36.4556 52.3118 32.4638 50.6262 28.9607C48.9406 25.4575 46.0535 22.6759 42.49 21.1219C42.3267 21.0563 42.1782 20.9586 42.0533 20.8346C41.9285 20.7105 41.8298 20.5627 41.7631 20.3998C41.6964 20.2369 41.6632 20.0623 41.6652 19.8863C41.6673 19.7103 41.7047 19.5365 41.7752 19.3753C41.8456 19.214 41.9478 19.0685 42.0755 18.9474C42.2033 18.8264 42.354 18.7322 42.5189 18.6704C42.6837 18.6087 42.8592 18.5807 43.0351 18.5881C43.2109 18.5955 43.3835 18.6381 43.5426 18.7134C46.9058 20.1817 49.7676 22.5992 51.7773 25.6698C53.787 28.7403 54.8572 32.3305 54.8569 36.0002C54.8569 46.4145 46.414 54.8574 35.9997 54.8574C25.5854 54.8574 17.1426 46.4145 17.1426 36.0002C17.1426 25.5859 25.5854 17.1431 35.9997 17.1431Z" fill="#070606"/>
<path id="Vector_3" d="M41.1298 28.3472C42.5972 28.3472 43.7355 28.9917 44.5447 30.2809C45.3949 31.6249 45.8201 33.5723 45.8201 36.1232C45.8201 38.7015 45.3949 40.6695 44.5447 42.0272C43.7355 43.33 42.5972 43.9815 41.1298 43.9815C39.6624 43.9815 38.5172 43.33 37.6944 42.0272C36.8441 40.6557 36.4189 38.6877 36.4189 36.1232C36.4189 33.5586 36.8441 31.6043 37.6944 30.2603C38.5035 28.9849 39.6487 28.3472 41.1298 28.3472ZM41.1298 29.8695C40.2247 29.8695 39.5321 30.3632 39.0521 31.3506C38.5172 32.4066 38.2498 33.9975 38.2498 36.1232C38.2498 38.2763 38.5172 39.8877 39.0521 40.9575C39.5321 41.9723 40.2247 42.4797 41.1298 42.4797C42.0212 42.4797 42.7138 41.9723 43.2075 40.9575C43.7287 39.874 43.9892 38.2626 43.9892 36.1232C43.9892 33.9975 43.7287 32.4066 43.2075 31.3506C42.7138 30.3632 42.0212 29.8695 41.1298 29.8695Z" fill="#070606"/>
<path id="Vector_4" d="M30.809 28.6355C31.2342 28.6355 31.4467 28.8481 31.4467 29.2732V42.7886C31.4467 43.4058 31.1382 43.7144 30.521 43.7144C29.9039 43.7144 29.5953 43.4058 29.5953 42.7886V30.7338L27.1679 32.3795C27.028 32.4762 26.8645 32.5331 26.6947 32.5441C26.4753 32.5441 26.2765 32.4206 26.0982 32.1738C25.9975 32.0359 25.9402 31.8712 25.9336 31.7006C25.9336 31.4949 26.057 31.3029 26.3039 31.1246L29.5953 28.9235C29.9107 28.7315 30.3153 28.6355 30.809 28.6355Z" fill="#070606"/>
</g>
<defs>
<clipPath id="clip0_172_1307">
<rect width="72" height="72" fill="white"/>
</clipPath>
</defs>
</svg>
