<svg width="57" height="57" viewBox="0 0 57 57" fill="none" xmlns="http://www.w3.org/2000/svg">
<g id="g4041">
<path id="path74" d="M27.4023 0C25.5284 0.154078 23.6492 0.342445 21.8225 0.803789C16.9099 1.96427 12.3374 4.49187 8.70363 7.99113C4.83921 11.7095 2.04309 16.5353 0.788203 21.7535C0.359812 23.4724 0.133594 25.2359 0 26.9993V29.9584C0.186141 32.9064 0.762375 35.841 1.82578 38.6019C3.30778 42.5251 5.68219 46.1023 8.69695 49.0155C10.9565 51.1789 13.5638 52.9828 16.3986 54.3081C19.742 55.8783 23.3958 56.7738 27.0839 56.9555L26.7477 57H29.6934C30.2438 56.9412 30.7978 56.8936 31.35 56.8464C33.4296 56.6371 35.4887 56.2033 37.473 55.5461C43.4999 53.5617 48.8022 49.488 52.2908 44.1906C54.4435 40.9389 55.925 37.2384 56.577 33.3918C56.8032 32.1271 56.9145 30.8455 57 29.5665V27.0861C56.9359 26.5348 56.8856 25.9831 56.833 25.4318C56.6219 23.5187 56.2376 21.6221 55.6373 19.7919C53.6682 13.5923 49.476 8.13853 44.0147 4.60898C39.7691 1.84003 34.7682 0.243141 29.7023 0.0489844L30.0964 0H27.4023Z" fill="#0082C8"/>
<g id="g3171">
<path id="path27" d="M19.7515 10.5604C19.9083 10.5595 20.1149 10.5319 20.1612 10.7322C20.4569 11.7484 20.8167 12.7709 21.4589 13.6259C22.1152 14.5201 23.0477 15.1524 23.982 15.7242C24.6393 16.117 25.2957 16.5124 25.9734 16.8695C26.5274 17.1447 27.0921 17.4297 27.7102 17.5233C26.7973 16.5872 26.2958 15.3573 25.7205 14.2057C25.2431 13.2296 25.7356 12.1002 26.4089 11.3521C26.5158 11.1874 26.7892 11.1989 26.8685 11.3877C26.8685 11.6656 26.6574 11.8883 26.6084 12.1572C26.4339 12.9784 26.7919 13.788 27.2203 14.4702C27.9542 15.6084 28.9463 16.5507 29.9706 17.4244C31.2664 17.5259 32.5471 17.753 33.8332 17.9401C34.4059 18.0256 35.0222 18.0318 35.5263 18.3551C35.8193 18.5225 36.0259 18.7951 36.2824 19.007C37.7359 19.1843 39.201 19.3588 40.6117 19.7703C41.2851 19.9627 41.9334 20.2486 42.5168 20.6378C43.2471 21.1766 43.6621 22.0922 43.655 22.9917C43.5161 23.82 43.0547 24.5877 42.3912 25.1034C42.4945 24.8237 42.6005 24.5449 42.6673 24.2546C42.7216 24.0596 42.5756 23.8886 42.4981 23.7229C40.7311 24.4292 38.8715 24.9101 37.1757 25.7891C36.9335 25.9067 36.7046 26.0715 36.4276 26.0893C36.4525 25.8773 36.6663 25.7972 36.8221 25.6947C37.8152 25.1212 38.883 24.6928 39.95 24.2795C40.5485 24.0622 41.1336 23.8084 41.6912 23.5002C40.4594 23.3871 39.2135 23.5946 38.0485 23.9954C37.2327 24.2635 36.4053 24.5138 35.6367 24.9021C35.9832 24.325 36.5932 23.9919 37.1962 23.7407C37.9791 23.4219 38.802 23.2126 39.6294 23.0451C40.6251 22.8528 41.6707 22.7414 42.6602 23.0282C42.5649 22.6978 42.4162 22.3807 42.181 22.1269C41.4952 21.3236 40.5984 20.7046 39.6 20.359C38.2053 19.8745 36.7447 19.5851 35.2724 19.4764C34.291 19.4372 33.2944 19.3989 32.3423 19.1371C31.9807 19.0516 31.6957 18.7523 31.3118 18.7541C30.1977 18.7078 29.0817 18.7559 27.9693 18.8191C27.3744 18.8129 26.767 18.8815 26.1863 18.7176C25.114 18.4433 24.2305 17.7334 23.3951 17.0414C22.6648 16.4064 21.9309 15.7759 21.2255 15.1141C20.1425 14.0721 19.5351 12.5509 19.642 11.0484C19.6518 10.881 19.7052 10.7207 19.7515 10.5604Z" fill="white"/>
<path id="path33" d="M14.7433 16.2609C15.9999 16.228 17.3492 16.2235 18.4705 16.8745C19.3389 17.3742 20.0808 18.0582 20.8351 18.7101C22.0793 19.9027 23.8134 20.3925 25.4815 20.6107C26.3935 20.7247 27.3135 20.7425 28.2309 20.7105C28.5399 20.7007 28.8517 20.6481 29.1571 20.7185C29.1634 20.7995 29.1741 20.9634 29.1794 21.0445C27.2895 22.0892 25.3399 23.043 23.5676 24.2881C22.6805 24.9026 21.8398 25.5822 21.0213 26.2849C20.2821 26.9235 19.639 27.6956 19.2632 28.6059C18.9123 29.4128 18.8107 30.2945 18.7796 31.1664C18.7965 32.2102 18.9666 33.2451 18.9907 34.288C18.9417 34.8011 18.9595 35.3808 18.6148 35.803C18.45 36.0168 18.1357 35.9678 17.9103 35.8983C17.4151 35.7059 17.1773 35.1778 17.0491 34.6977C16.7953 33.6628 16.854 32.5834 16.9467 31.5316C17.0856 29.2872 18.0885 27.1417 19.6194 25.5083C21.3472 23.6273 23.6362 22.3644 25.9999 21.4613C23.279 21.2671 20.5439 20.4504 18.3316 18.8179C17.2611 17.9112 16.0623 17.131 14.7299 16.6697C14.7183 16.5334 14.7228 16.3963 14.7433 16.2609Z" fill="white"/>
<path id="path35" d="M14.0315 18.2224C14.1125 18.218 14.2755 18.209 14.3565 18.2046C15.1323 19.3695 16.0941 20.4623 17.341 21.1321C17.9101 21.4162 18.546 21.6415 19.1917 21.5712C19.5328 21.5355 19.8748 21.5052 20.2186 21.4963C20.9463 21.4563 21.6908 21.3449 22.4078 21.5248C22.4167 21.6549 22.4203 21.7858 22.4194 21.9167C20.313 22.6987 18.4142 24.0925 17.1237 25.9414C16.4958 26.7831 15.859 27.6372 15.0423 28.3087C14.1748 28.999 13.1123 29.3597 12.1015 29.78C12.0454 29.756 11.9331 29.7079 11.877 29.6839C11.8806 29.5449 11.8174 29.3436 11.9982 29.2911C13.2824 28.7834 14.3432 27.7948 15.0343 26.6085C15.9329 25.0624 17.0988 23.6276 18.6217 22.6604C18.2708 22.5687 17.9012 22.5963 17.5539 22.4921C16.5359 22.2605 15.5758 21.6958 14.9648 20.8373C14.4937 20.2085 14.1971 19.4613 14.0252 18.6989C13.9825 18.5421 14.0056 18.38 14.0315 18.2224Z" fill="white"/>
<path id="path41" d="M25.499 25.8467C25.727 25.641 26.036 25.9616 25.8534 26.1923C25.1445 27.1372 24.4053 28.0759 23.8941 29.1483C23.2421 30.4308 23.0489 31.8905 23.0533 33.3137C23.1112 34.4573 23.1094 35.6703 23.6892 36.6963C24.2387 37.676 25.385 38.0812 26.0324 38.9754C26.1687 39.1758 26.2569 39.4439 26.1545 39.6781C26.0467 39.9604 25.7385 40.0798 25.4669 40.1386C25.2451 40.1831 24.9975 40.2463 24.7882 40.1279C23.7533 39.6256 22.8636 38.8169 22.3007 37.8114C21.6621 36.6847 21.3878 35.3898 21.2988 34.109C21.0743 32.2334 21.6933 30.3444 22.7318 28.7956C23.4915 27.6769 24.4258 26.6705 25.499 25.8467Z" fill="white"/>
<path id="path43" d="M27.1372 28.5515C27.2779 28.5266 27.4213 28.5221 27.5638 28.5364C27.6439 29.4163 27.6092 30.3051 27.7294 31.1824C27.9574 33.3012 28.5951 35.4423 29.94 37.13C30.9927 38.4597 32.48 39.3744 34.0627 39.9399C34.6255 40.1225 35.1163 40.4877 35.7059 40.5963C36.4575 40.7994 37.2983 40.8475 37.9387 41.3355C38.4116 41.763 38.1978 42.5566 37.7276 42.8995C37.1389 43.3528 36.3409 43.221 35.6782 43.034C34.3815 42.6154 33.2228 41.8708 32.1202 41.0853C31.3739 40.5331 30.6409 39.9586 29.9569 39.3307C28.4588 37.8879 27.6974 35.8609 27.3251 33.8534C27.024 32.1069 26.935 30.3149 27.1372 28.5515Z" fill="white"/>
<path id="path49" d="M29.3233 29.9418C29.5718 29.8794 29.7027 30.1342 29.8532 30.2784C32.2054 32.7651 34.8087 35.1003 37.9 36.6268C39.415 37.3634 41.0608 37.8746 42.753 37.9396C43.5395 37.9699 44.3686 37.9859 45.0802 38.3644C45.4347 38.5523 45.7482 38.9487 45.6208 39.3708C45.294 39.9764 44.5441 40.151 43.9073 40.1296C42.6426 40.0958 41.434 39.6469 40.2762 39.1722C39.3998 38.767 38.4834 38.4499 37.6364 37.9814C36.068 37.1532 34.6368 36.0862 33.3142 34.9088C31.8046 33.5301 30.4143 32.0143 29.2253 30.3497C29.1176 30.225 29.1389 29.9756 29.3233 29.9418Z" fill="white"/>
</g>
<g id="g3145">
<path id="path9" d="M25.4141 2.57225C26.0892 2.54019 26.7634 2.51436 27.4367 2.46093C27.7867 2.44757 28.1732 2.39413 28.4849 2.59274C29.1012 2.96502 29.087 4.06939 28.3861 4.34104C27.6994 4.58952 26.9477 4.43366 26.2415 4.57705C26.2744 4.93063 26.3038 5.28599 26.3145 5.64224C26.074 5.6556 25.8335 5.66896 25.594 5.68143C25.5209 4.64563 25.4568 3.60983 25.4141 2.57225ZM26.164 3.22954C26.1836 3.44418 26.2032 3.65882 26.2227 3.87346C26.717 3.86188 27.2078 3.79686 27.703 3.78707C27.8651 3.78618 28.0174 3.72472 28.1697 3.67307C28.1919 3.4985 28.175 3.32483 28.0913 3.16719C27.45 3.11197 26.8043 3.1761 26.164 3.22954Z" fill="white"/>
<path id="path11" d="M30.0905 2.51807C30.3417 2.51985 30.592 2.53054 30.8431 2.543C30.7496 3.57969 30.6837 4.61816 30.6 5.65485C30.3559 5.64238 30.1146 5.61744 29.875 5.57736C29.9329 4.55671 30.0513 3.5405 30.0905 2.51807Z" fill="white"/>
<path id="path13" d="M32.5028 2.70654C32.7585 2.76532 33.0319 2.77779 33.2715 2.88734C33.78 3.70315 34.2378 4.55281 34.7383 5.37486C34.9236 4.69264 35.0429 3.99528 35.2193 3.31039C35.4562 3.36382 35.6931 3.41548 35.9318 3.46268C35.6931 4.47087 35.4829 5.48529 35.2397 6.49259C34.9904 6.44361 34.7437 6.3875 34.4952 6.33851C34.0035 5.49954 33.5084 4.66236 33.0239 3.81893C32.8564 4.50204 32.7095 5.1905 32.5492 5.87539C32.3069 5.84421 32.0691 5.79345 31.834 5.73111C32.0495 4.72114 32.3069 3.72007 32.5028 2.70654Z" fill="white"/>
<path id="path15" d="M23.0742 3.00049C23.312 2.95863 23.5498 2.91232 23.7885 2.87402C23.9568 3.89112 24.1848 4.89752 24.3701 5.91105C24.1332 5.96271 23.8945 6.0108 23.6549 6.04554C23.4652 5.03023 23.2319 4.02204 23.0742 3.00049Z" fill="white"/>
<path id="path17" d="M19.0674 4.16288C19.3034 4.08184 19.5376 3.99188 19.7834 3.94824C20.0008 4.71418 20.2831 5.46052 20.5182 6.22023C21.2298 6.02785 21.9138 5.74552 22.6228 5.54602C22.6967 5.76155 22.7644 5.97976 22.8027 6.20509C21.8764 6.49543 20.9626 6.82318 20.0337 7.10551C19.7238 6.12048 19.388 5.14435 19.0674 4.16288Z" fill="white"/>
<path id="path19" d="M36.3261 6.40096C37.1081 5.80424 37.866 5.17368 38.6578 4.59121C38.9116 4.53332 39.1628 4.76488 39.405 4.84949C39.4469 6.0171 39.5983 7.17848 39.6152 8.34787C39.3783 8.23298 39.1396 8.12254 38.8956 8.02457C38.8814 7.78499 38.8671 7.54452 38.8528 7.30405C38.3113 7.0814 37.7939 6.79016 37.2364 6.61204C37.0413 6.73227 36.8721 6.88813 36.6913 7.02796C36.4499 6.92999 36.2104 6.82846 35.9717 6.72515C36.0679 6.59512 36.1952 6.49448 36.3261 6.40096ZM37.8696 6.12219C38.1778 6.25312 38.485 6.38849 38.7923 6.52119C38.7843 6.15871 38.7682 5.79533 38.7041 5.4373C38.4316 5.67243 38.1412 5.88529 37.8696 6.12219Z" fill="white"/>
<path id="path21" d="M16.9326 5.11387C17.1517 5.02125 17.3672 4.9215 17.581 4.81641C17.9114 5.48438 18.2222 6.16214 18.55 6.83189C18.6738 7.10175 18.8368 7.35914 18.884 7.65661C18.6747 7.74745 18.4663 7.84097 18.2561 7.92914C17.8241 6.98686 17.3414 6.06684 16.9326 5.11387Z" fill="white"/>
<path id="path23" d="M14.8759 6.24948C15.1823 6.0384 15.6035 5.93687 15.9437 6.12836C16.5084 6.39911 16.7596 7.25143 16.2599 7.70476C15.7665 8.14918 15.1653 8.45556 14.6221 8.83496C14.8082 9.14401 15.0059 9.44593 15.2143 9.74073C15.0148 9.88768 14.8073 10.0231 14.5909 10.1433C14.0298 9.27761 13.4393 8.42973 12.9014 7.5489C13.5578 7.1125 14.215 6.67787 14.8759 6.24948ZM13.898 7.70565C13.9844 7.90782 14.1117 8.08773 14.2409 8.26407C14.6897 7.97195 15.1404 7.6825 15.583 7.38236C15.7175 7.30487 15.7727 7.15703 15.828 7.02076C15.7246 6.91656 15.6187 6.81503 15.5073 6.71973C14.9275 6.97178 14.4421 7.39037 13.898 7.70565Z" fill="white"/>
<path id="path25" d="M41.215 7.48909C41.0315 6.91642 41.6363 6.35443 42.1991 6.47823C43.1494 6.68218 43.9786 7.40983 44.3188 8.31915C44.0953 8.39308 43.8646 8.44117 43.6304 8.45453C43.3739 7.91837 42.9197 7.48197 42.3844 7.22725C42.2597 7.15867 42.1128 7.17292 41.9765 7.16223C41.9979 7.25931 41.972 7.37954 42.0522 7.45525C42.5224 7.96825 43.2136 8.28175 43.5467 8.91765C43.7925 9.40126 43.4416 10.0309 42.9205 10.1227C42.3229 10.2251 41.7636 9.9009 41.305 9.55534C40.8311 9.19018 40.3716 8.71459 40.2754 8.10006C40.4847 8.04751 40.6913 7.98606 40.8997 7.92639C41.1731 8.57031 41.6853 9.1225 42.3408 9.38434C42.4895 9.44758 42.6525 9.41195 42.8083 9.40572C42.7994 9.29172 42.8653 9.15367 42.7887 9.05481C42.3123 8.48748 41.5374 8.18467 41.215 7.48909Z" fill="white"/>
<path id="path29" d="M8.21015 12.9089C8.07745 11.63 9.29315 10.4071 10.5783 10.5425C10.5195 10.7839 10.4572 11.0243 10.3824 11.2621C9.66365 11.2488 9.00369 11.8473 8.90929 12.5518C8.82824 13.0541 9.28513 13.5617 9.79279 13.5225C10.2719 13.5154 10.6496 13.1467 10.8972 12.77C11.0655 12.5286 11.0842 12.2258 11.0486 11.9426C10.7386 12.232 10.4839 12.5714 10.1954 12.8804C10.0306 12.7379 9.86493 12.5963 9.69749 12.4565C10.1294 11.8669 10.6496 11.3467 11.1216 10.7883C11.6845 11.1989 11.9606 11.9533 11.729 12.6221C11.4324 13.5021 10.5917 14.3001 9.61466 14.2448C8.90751 14.235 8.24221 13.6223 8.21015 12.9089Z" fill="white"/>
<path id="path31" d="M6.23084 14.9516C6.32347 14.7396 6.4063 14.2515 6.72692 14.3816C7.57658 14.8349 8.40664 15.3265 9.25808 15.7772C9.14319 16.0212 9.05323 16.3107 8.83681 16.4808C7.92125 16.7337 6.98877 16.9198 6.07498 17.1763C6.6913 17.5094 7.29603 17.8648 7.91413 18.1961C7.78677 18.4125 7.7075 18.9291 7.36016 18.7305C6.53455 18.278 5.71873 17.8078 4.88867 17.3625C4.96527 17.1042 5.10598 16.8744 5.24581 16.6464C6.19344 16.4318 7.13839 16.2002 8.07978 15.9544C7.45011 15.6445 6.85873 15.2642 6.23084 14.9516Z" fill="white"/>
<path id="path37" d="M5.96095 21.0649C6.19073 21.1148 6.41873 21.1709 6.64317 21.2404C6.38311 22.1711 6.17114 23.1143 5.92088 24.0468C5.43638 23.9773 4.97236 23.8196 4.49766 23.7092C3.96328 23.5694 3.42 23.4589 2.89453 23.2888C2.96667 23.068 3.02723 22.8435 3.07889 22.6173C3.87867 22.7589 4.64639 23.043 5.44973 23.165C5.60114 22.4606 5.814 21.7703 5.96095 21.0649Z" fill="white"/>
<path id="path39" d="M2.53363 26.1784C3.60772 25.7304 4.66222 25.2352 5.73453 24.7837C5.72473 25.0536 5.70336 25.3234 5.67486 25.5924C5.45577 25.6832 5.23667 25.7776 5.01847 25.872C4.99353 26.4625 4.90892 27.0494 4.91694 27.6417C5.10575 27.7593 5.29634 27.8742 5.49228 27.9793C5.49139 28.2482 5.47269 28.5172 5.44864 28.7844C4.43333 28.1983 3.44919 27.558 2.45703 26.9328C2.48019 26.6807 2.50691 26.4296 2.53363 26.1784ZM3.29778 26.6246C3.61484 26.8099 3.92211 27.012 4.23294 27.2071C4.2552 26.8704 4.29083 26.5347 4.30775 26.1971C3.96397 26.3218 3.63533 26.4848 3.29778 26.6246Z" fill="white"/>
<path id="path45" d="M4.42061 30.1066C4.76795 29.8065 5.1144 29.5046 5.45908 29.2026C5.49114 29.4867 5.53033 29.7691 5.56862 30.0532C5.24176 30.3587 4.89798 30.6454 4.57379 30.9545C4.61744 31.366 4.67444 31.7757 4.70561 32.1889C5.07076 32.1417 5.43592 32.0918 5.80375 32.0758C5.82779 32.3127 5.84917 32.5514 5.86609 32.7901C4.84009 32.8809 3.82211 33.0608 2.79433 33.1223C2.69012 32.4116 2.63045 31.6955 2.53515 30.9848C2.5022 30.6383 2.4639 30.2402 2.70437 29.9552C2.97779 29.5954 3.49168 29.4965 3.90583 29.6364C4.13739 29.7121 4.27544 29.9249 4.42061 30.1066ZM3.19689 30.6285C3.21648 31.1923 3.34295 31.7471 3.36789 32.3118C3.59411 32.3047 3.81944 32.2887 4.04476 32.2682C3.9557 31.7258 3.92364 31.1754 3.83992 30.6321C3.81498 30.5145 3.74195 30.4166 3.68673 30.3132C3.46853 30.3034 3.20045 30.3578 3.19689 30.6285Z" fill="white"/>
<path id="path53" d="M3.06934 34.524C3.28041 34.4518 3.48882 34.3672 3.7088 34.3271C3.88426 34.7386 3.98223 35.1804 4.11938 35.607C4.90046 35.3941 5.66551 35.1287 6.44391 34.9069C6.52318 35.1385 6.5971 35.3719 6.65766 35.6096C5.88906 35.8314 5.12401 36.0674 4.36341 36.315C4.45515 36.7577 4.63595 37.1754 4.7259 37.6189C4.51482 37.6902 4.30285 37.7569 4.08732 37.8131C3.75334 36.7149 3.41223 35.6186 3.06934 34.524Z" fill="white"/>
<path id="path55" d="M4.64355 39.1215C5.55823 38.6548 6.44974 38.1391 7.37243 37.6885C7.51671 37.9022 7.66545 38.1284 7.72601 38.3814C7.43834 39.2952 7.10791 40.1974 6.78907 41.1013C7.4232 40.7816 8.04931 40.4458 8.67185 40.1047C8.80099 40.3167 8.92568 40.534 8.99604 40.7745C8.0876 41.2492 7.18896 41.7417 6.27696 42.2093C6.1594 41.9109 5.81651 41.6179 5.99552 41.2813C6.28765 40.4494 6.58334 39.6193 6.85498 38.7804C6.29655 39.0681 5.74882 39.3762 5.1904 39.6639C4.84573 39.8589 4.77893 39.3299 4.64355 39.1215Z" fill="white"/>
<path id="path57" d="M9.08101 41.9635C9.24667 41.837 9.41144 41.7088 9.58333 41.5903C10.221 42.3625 10.8489 43.1418 11.4839 43.9158C11.557 43.9799 11.6095 44.1179 11.5097 44.1838C10.7759 44.7921 10.0313 45.388 9.29209 45.99C9.19858 46.08 9.13 45.9393 9.06855 45.8849C8.45402 45.1332 7.84661 44.3753 7.22852 43.6263C7.40219 43.4785 7.58209 43.3377 7.76467 43.2006C8.27055 43.8142 8.77553 44.4296 9.27339 45.0495C9.39273 44.9596 9.51208 44.8696 9.63142 44.7814C9.34998 44.3335 8.95722 43.9701 8.66064 43.5337C8.65886 43.2879 8.96969 43.1961 9.11041 43.0314C9.46398 43.4099 9.75611 43.8409 10.1052 44.2239C10.2976 44.329 10.4597 44.0645 10.6129 43.9772C10.1676 43.3333 9.62608 42.7606 9.15048 42.1398C9.13267 42.0962 9.09794 42.008 9.08101 41.9635Z" fill="white"/>
<path id="path59" d="M11.5062 46.3963C11.2934 45.8824 11.7619 45.2955 12.2873 45.2724C12.6667 45.2456 13.0274 45.4113 13.3302 45.6251C13.9688 46.0837 14.5825 46.7125 14.692 47.5256C14.4783 47.5773 14.2636 47.6254 14.0499 47.6815C13.8334 47.0011 13.3774 46.3821 12.7309 46.0588C12.5866 45.9795 12.4182 46.0116 12.2615 46.0116C12.2526 46.1416 12.192 46.2957 12.3016 46.4017C12.7273 46.9503 13.3676 47.3342 13.6571 47.9852C13.8798 48.6131 13.1343 49.1982 12.5518 48.9595C11.6568 48.6407 10.8908 47.8534 10.6904 46.912C10.9166 46.8862 11.1429 46.8675 11.3709 46.8586C11.6327 47.5185 12.1475 48.1785 12.8742 48.329C12.8751 48.2194 12.9206 48.0921 12.8377 48.0003C12.4156 47.4491 11.7538 47.0714 11.5062 46.3963Z" fill="white"/>
<path id="path61" d="M40.1654 48.1959C40.8548 47.7515 41.5477 47.3124 42.2379 46.8716C42.7999 47.7453 43.3717 48.6145 43.9087 49.5043C43.1918 49.946 42.49 50.4118 41.7721 50.8527C41.3909 51.0994 40.7978 51.0727 40.5288 50.6737C40.3649 50.4929 40.3578 50.2453 40.3578 50.0164C39.9401 49.9362 39.5803 49.5996 39.5269 49.1694C39.4921 48.7401 39.8324 48.4088 40.1654 48.1959ZM41.9823 47.845C41.4257 48.2333 40.8165 48.5442 40.2875 48.9726C40.3071 49.0937 40.3427 49.2113 40.389 49.3261C40.5253 49.3146 40.6758 49.3377 40.7924 49.2504C41.293 48.9343 41.7962 48.6234 42.2878 48.293C42.1872 48.1425 42.0865 47.9929 41.9823 47.845ZM41.5049 49.6147C41.3144 49.7243 41.1353 49.8578 41.0044 50.0378C41.0365 50.1001 41.0997 50.2257 41.1318 50.288C41.2529 50.2836 41.3856 50.304 41.4898 50.2239C41.9725 49.9309 42.4339 49.6049 42.921 49.3208C42.8418 49.1774 42.7581 49.0367 42.6743 48.8969C42.2629 49.0981 41.8977 49.3796 41.5049 49.6147Z" fill="white"/>
<path id="path63" d="M17.2997 49.0983C18.3453 48.751 19.626 49.3192 20.0526 50.3399C20.3715 51.0693 19.9751 52.0214 19.2199 52.2894C18.1565 52.7009 16.7929 52.0971 16.3966 51.0239C16.125 50.2775 16.5338 49.3495 17.2997 49.0983ZM17.5918 49.7583C17.1216 49.932 16.9034 50.5652 17.1723 50.9918C17.4894 51.5155 18.1529 51.8121 18.7541 51.6918C19.2493 51.5957 19.5548 50.9989 19.3615 50.5385C19.2466 50.2374 18.9767 50.0299 18.7015 49.8821C18.3649 49.7111 17.9543 49.598 17.5918 49.7583Z" fill="white"/>
<path id="path65" d="M37.9179 49.394C38.1583 49.2925 38.4006 49.1963 38.6428 49.1001C38.5912 50.2695 38.3979 51.4291 38.2679 52.5922C38.0221 52.6742 37.7718 52.8434 37.5037 52.7846C36.6327 52.0579 35.7866 51.3008 34.9209 50.5687C35.1685 50.4628 35.4161 50.3585 35.6681 50.2624C35.8498 50.4227 36.0351 50.5812 36.2212 50.7371C36.7672 50.5082 37.3283 50.3185 37.868 50.0762C37.8822 49.8482 37.9009 49.6202 37.9179 49.394ZM36.8028 51.234C37.0673 51.4843 37.3496 51.7132 37.6239 51.9537C37.6809 51.5947 37.7273 51.234 37.7442 50.8716C37.4334 51.0007 37.1207 51.1254 36.8028 51.234Z" fill="white"/>
<path id="path67" d="M21.1062 50.3325C21.4099 50.345 21.7056 50.4207 22.0013 50.4866C22.3344 51.0343 22.6194 51.6115 22.9471 52.1628C23.2428 52.1725 23.5171 51.9552 23.7959 51.8573C23.8582 51.5571 23.9295 51.2588 24.0061 50.9631C24.2456 51.0156 24.4834 51.078 24.7168 51.1563C24.4629 52.1503 24.2465 53.1531 24.0016 54.1488C23.7647 54.1016 23.5296 54.0473 23.2944 53.993C23.3853 53.5584 23.5082 53.1318 23.5848 52.6945C22.899 52.9545 22.2426 53.2867 21.5577 53.5486C21.1872 53.5388 20.8274 53.4007 20.4658 53.3197C21.0697 53.0115 21.7136 52.7915 22.3201 52.4887C21.9015 51.778 21.5168 51.0486 21.1062 50.3325Z" fill="white"/>
<path id="path69" d="M33.4968 50.8402C33.7346 50.8081 33.9733 50.7734 34.2102 50.7324C34.3643 51.7575 34.6012 52.7711 34.725 53.7997C34.4792 53.8327 34.2343 53.8737 33.992 53.9271C33.2056 53.3526 32.4343 52.7577 31.6577 52.1699C31.7699 52.8708 31.8964 53.57 32.0255 54.2691C31.7868 54.3127 31.5481 54.3564 31.3086 54.392C31.1153 53.3758 30.9398 52.356 30.7617 51.3372C31.0815 51.3051 31.4662 51.0985 31.7387 51.3576C32.4316 51.8947 33.1432 52.4077 33.8326 52.9492C33.7658 52.2394 33.5725 51.5491 33.4968 50.8402Z" fill="white"/>
<path id="path71" d="M26.1738 51.8262C26.6503 51.3319 27.3984 51.2215 28.0513 51.3159C28.6578 51.4005 29.2625 51.7558 29.5164 52.3312C29.8058 52.9992 29.5573 53.8372 28.9366 54.2247C28.0682 54.7751 26.7812 54.6815 26.0723 53.9067C25.9886 53.8301 25.9485 53.725 25.9102 53.6235C26.1257 53.5264 26.3422 53.4267 26.5693 53.3581C27.0039 53.9245 27.874 54.0243 28.4725 53.6769C28.9615 53.3973 29.0318 52.6269 28.5856 52.276C28.0352 51.8511 27.1134 51.8405 26.6583 52.4149C27.0796 52.4372 27.5044 52.4176 27.923 52.4915C27.9159 52.7079 27.9088 52.9243 27.9034 53.1425C27.1696 53.0998 26.4268 53.1568 25.6982 53.049C25.7392 52.6091 25.8363 52.1406 26.1738 51.8262Z" fill="white"/>
</g>
<path id="path95" d="M26.2234 6.99954C26.8362 7.01201 27.4418 6.89356 28.0546 6.9087C28.8918 6.91048 29.7325 6.87218 30.5652 6.97728C31.2056 6.97906 31.8281 7.17321 32.4694 7.17588L32.456 7.24803C32.7588 7.25426 33.0528 7.33531 33.3547 7.35935V7.42081C33.6228 7.4502 33.8855 7.51165 34.1527 7.54282L34.1553 7.60339C34.3664 7.63367 34.5739 7.67909 34.7841 7.71649L34.7761 7.77973C35.0994 7.80288 35.3933 7.94895 35.7033 8.03445C35.925 8.11817 36.1459 8.20812 36.3801 8.25176L36.3855 8.3141C36.5315 8.35062 36.6776 8.3907 36.8254 8.4281L36.8326 8.48956C36.9786 8.52607 37.1247 8.56704 37.2716 8.60534L37.2788 8.67124C37.6849 8.76654 38.0207 9.03996 38.4223 9.14951L38.4384 9.24303C38.4704 9.23768 38.5345 9.22521 38.5666 9.21898C38.8106 9.41314 39.1028 9.53159 39.3735 9.68478C39.4688 9.75424 39.5703 9.81659 39.6826 9.85667L39.6897 9.90565C39.9907 9.99471 40.2116 10.2263 40.4797 10.375C40.5901 10.44 40.7121 10.4952 40.7941 10.5986C40.8386 10.6315 40.9285 10.6983 40.9731 10.7313L41.088 10.7108C41.0924 10.7428 41.1004 10.807 41.104 10.839C41.1378 10.8381 41.2064 10.8355 41.2403 10.8346C41.3667 11.0421 41.6063 11.1329 41.788 11.2843C42.0775 11.5284 42.3829 11.7537 42.6662 12.0057C43.156 12.3896 43.5684 12.8581 44.0448 13.2562C44.044 13.3274 44.0422 13.3987 44.0422 13.4699C43.8632 13.5563 43.7082 13.6828 43.5488 13.7986C43.4374 13.6748 43.3261 13.5519 43.213 13.4307C42.6154 12.8625 42.0018 12.3112 41.3373 11.8223C41.1708 11.6539 40.9214 11.5774 40.7941 11.3743C40.7682 11.3707 40.7166 11.3636 40.6916 11.3609C39.8277 10.7045 38.8739 10.1728 37.9084 9.68478C37.6733 9.56988 37.4417 9.44253 37.1888 9.37395L37.179 9.28221C37.1398 9.29112 37.0615 9.30982 37.0223 9.31873L36.9884 9.20829C36.9483 9.2172 36.87 9.23412 36.8299 9.24303L36.8237 9.1504C36.6847 9.11567 36.5485 9.0747 36.414 9.02838C36.3098 8.96693 36.1967 8.92418 36.0827 8.88678C35.9535 8.84313 35.8288 8.79059 35.705 8.73715C35.6035 8.71221 35.5029 8.68995 35.4013 8.66946L35.3995 8.61514C35.2962 8.5902 35.1929 8.56259 35.0914 8.53409C35.0442 8.52251 34.9489 8.50024 34.9017 8.48867C34.6977 8.38001 34.468 8.34528 34.2417 8.31678L34.24 8.25265C34.109 8.23395 33.9772 8.21346 33.8481 8.18853C33.4847 8.07274 33.1124 7.97388 32.7295 7.96231L32.733 7.88928C32.3563 7.88482 31.9867 7.80467 31.6153 7.74678C31.3267 7.66484 31.0195 7.72896 30.7327 7.64435C30.3274 7.60695 29.9195 7.59982 29.5134 7.60962L29.5348 7.53035C28.9853 7.56064 28.4286 7.48315 27.8853 7.59448C27.4961 7.62832 27.1034 7.60606 26.7151 7.64435C26.4684 7.70848 26.2128 7.70848 25.9598 7.71115L25.966 7.78685C25.2963 7.76726 24.6586 8.02109 23.996 8.07096L24.0093 8.13509C23.7671 8.15913 23.5293 8.2099 23.2897 8.25265L23.287 8.31143C23.1535 8.32746 23.0208 8.34973 22.8925 8.39248C22.8355 8.3996 22.7206 8.41296 22.6627 8.42009V8.48688C22.4926 8.51271 22.3252 8.55279 22.1613 8.60623C21.9039 8.72112 21.6225 8.77456 21.3677 8.89568C21.2671 8.92151 21.1665 8.94556 21.0658 8.96782L21.0587 9.0266C20.9126 9.06401 20.7684 9.10587 20.6232 9.14417L20.6196 9.20829C20.332 9.24481 20.1031 9.44609 19.8181 9.49418L19.8145 9.55385C19.3603 9.70437 18.9257 9.93326 18.5275 10.1969C18.4946 10.1924 18.4296 10.1835 18.3966 10.1791L18.3833 10.2993C18.3512 10.2957 18.2853 10.2886 18.2532 10.2859C18.1196 10.4071 17.9638 10.4979 17.8017 10.5736C16.8861 11.1196 16.0026 11.7216 15.1779 12.3994C14.9508 12.59 14.7032 12.7628 14.5162 12.9961C14.0299 13.3301 13.6505 13.7977 13.2248 14.2029C12.8418 14.5681 12.5265 14.9947 12.1747 15.3883C12.0732 15.5193 11.9708 15.6502 11.8701 15.782C11.6929 15.9655 11.5816 16.2015 11.4017 16.3823C11.3144 16.5319 11.2209 16.678 11.1095 16.8116C11.0027 16.9995 10.8744 17.1732 10.7524 17.3513C10.576 17.6505 10.3952 17.948 10.2207 18.2481C10.0604 18.5572 9.88759 18.86 9.73619 19.1735C9.60705 19.4398 9.45475 19.6981 9.39062 19.9902L9.32383 19.9982C9.28286 20.1452 9.23833 20.2903 9.19825 20.4382L9.10384 20.4453C9.11008 20.4765 9.12077 20.5397 9.127 20.5709C9.06911 20.6653 9.03437 20.7677 9.02102 20.8781L8.95689 20.8817C8.92572 21.0322 8.89009 21.1819 8.85803 21.3333L8.78767 21.3377C8.75383 21.5158 8.71286 21.6922 8.67456 21.8694L8.60866 21.8605C8.56769 22.2907 8.33256 22.6754 8.31297 23.1101L8.25152 23.1109C8.21767 23.3514 8.16245 23.5892 8.1393 23.8315L8.07161 23.819C8.05558 24.1218 7.97275 24.4157 7.96028 24.7194L7.88992 24.715C7.89883 25.1362 7.75722 25.5432 7.78572 25.9654L7.71091 25.9583C7.71358 26.3608 7.68419 26.7616 7.63431 27.1606C7.60759 28.0219 7.60759 28.884 7.63342 29.7461C7.67172 30.1184 7.71536 30.4924 7.70734 30.8683L7.78394 30.8549C7.77948 31.856 8.10011 32.8188 8.24884 33.7993H8.31475C8.33791 34.1511 8.46081 34.4842 8.57748 34.8146C8.58283 34.8717 8.59441 34.9874 8.59975 35.0453L8.66655 35.0471C8.68614 35.1504 8.71375 35.2537 8.74759 35.3544C8.75739 35.4025 8.77698 35.4986 8.78678 35.5459C8.8892 35.6857 8.91681 35.8585 8.95155 36.0241L9.01656 36.0321C9.04061 36.131 9.06466 36.2307 9.08959 36.3305C9.18133 36.5184 9.26505 36.7099 9.31492 36.9139L9.37994 36.913C9.41912 37.0617 9.46187 37.2104 9.50106 37.3601L9.59547 37.3654C9.5928 37.3975 9.58656 37.4625 9.583 37.4945C9.60705 37.548 9.65425 37.6566 9.67741 37.7101L9.74776 37.7234C9.78072 37.8383 9.81634 37.9523 9.85019 38.0681L9.91698 38.0806C9.94281 38.1349 9.99447 38.2418 10.0203 38.2952C10.0167 38.3193 10.0078 38.3665 10.0043 38.3905C10.3249 38.7779 10.4995 39.2678 10.796 39.6757C10.9661 39.9473 11.1398 40.2181 11.3295 40.4781C11.4845 40.7088 11.6546 40.9306 11.8176 41.1568C11.9432 41.3109 12.0678 41.4667 12.181 41.6315L12.2237 41.6502C12.9077 42.5301 13.7102 43.3183 14.5384 44.062C14.7219 44.2197 14.8991 44.3853 15.0969 44.5251C15.104 44.551 15.1173 44.6017 15.1236 44.6276C15.2438 44.6614 15.3863 44.6846 15.4015 44.8395L15.4985 44.8431C15.7755 45.0916 16.0783 45.3116 16.3918 45.5119C16.5192 45.6509 16.6973 45.7284 16.8505 45.8352C16.9592 45.9145 17.0696 45.992 17.1818 46.0677C17.49 46.236 17.8008 46.4106 18.076 46.6306C18.0992 46.6288 18.1455 46.6261 18.1686 46.6252C18.5418 46.8773 18.9533 47.0812 19.3674 47.2549L19.3772 47.3181C19.5197 47.3582 19.6604 47.4019 19.8029 47.4428L19.819 47.5167C19.9356 47.5452 20.0514 47.5773 20.169 47.6067L20.1734 47.6788C20.3213 47.718 20.4673 47.7617 20.6161 47.8017L20.6214 47.8659C20.9287 47.9282 21.1976 48.1072 21.5111 48.1509L21.5067 48.2096C21.6857 48.2417 21.8629 48.2862 22.0411 48.3281L22.0491 48.3994C22.1239 48.4056 22.1987 48.4118 22.2744 48.4189C22.8097 48.6078 23.3583 48.7743 23.9203 48.8607L23.914 48.9257C24.2142 48.9373 24.5028 49.0308 24.8038 49.0388L24.8065 49.1083C25.1974 49.1083 25.576 49.233 25.9687 49.2143L25.9571 49.29C26.2386 49.2962 26.5245 49.29 26.8015 49.3559C27.2067 49.3897 27.6146 49.3942 28.0225 49.3888L28.0002 49.4699C28.4268 49.4449 28.8579 49.4984 29.2801 49.4209C29.7877 49.3505 30.3087 49.4387 30.811 49.3247C31.43 49.3203 32.0285 49.1323 32.6466 49.1101L32.6386 49.0415C33.2674 49.0077 33.8632 48.7788 34.4742 48.6434C34.9409 48.5249 35.3808 48.3174 35.8511 48.2168L35.8484 48.158C35.95 48.1348 36.0515 48.1108 36.153 48.0867C36.34 47.9959 36.5306 47.9104 36.7346 47.8641L36.7382 47.8C36.8869 47.7617 37.0356 47.7189 37.1844 47.6806L37.1897 47.6138C37.2957 47.5791 37.4017 47.5435 37.5085 47.5069C38.1044 47.2086 38.7073 46.9182 39.2711 46.5593C39.4599 46.4667 39.63 46.3393 39.8188 46.2467C40.1626 45.9884 40.5491 45.7907 40.876 45.5102C41.0675 45.4024 41.2412 45.2661 41.3961 45.1103L41.4309 45.1023C41.5324 45.0319 41.6437 44.9829 41.7648 44.9553C41.6972 44.9428 41.5609 44.917 41.4932 44.9045C41.5956 44.8841 41.6989 44.8636 41.8022 44.844C41.9563 44.6944 42.114 44.5483 42.2841 44.4165C42.6198 44.1644 42.895 43.8438 43.2121 43.5695C43.3849 43.2409 43.7162 43.5526 43.9451 43.6452C43.9531 43.7093 43.962 43.7743 43.9709 43.8402C43.8293 43.9783 43.6886 44.1181 43.5425 44.2517C42.8648 44.852 42.1843 45.4594 41.4318 45.9679C41.3489 46.0152 41.2857 46.0811 41.242 46.1657C41.2073 46.1648 41.1378 46.163 41.1031 46.1621C41.1004 46.1933 41.0933 46.2565 41.0897 46.2886L40.974 46.2716C40.9285 46.3028 40.8359 46.3661 40.7905 46.3972C40.2624 46.8051 39.6567 47.1142 39.076 47.4446C38.9612 47.523 38.8356 47.58 38.7029 47.6192L38.6922 47.7091C38.6601 47.7056 38.5942 47.6993 38.5613 47.6958C38.5069 47.7198 38.3992 47.7679 38.3448 47.7919L38.3342 47.8579C38.2273 47.8926 38.1213 47.9309 38.0171 47.9701C37.8603 48.0769 37.6733 48.1215 37.505 48.2061C37.4587 48.2337 37.3652 48.2889 37.3188 48.3165C37.2859 48.3112 37.2191 48.2996 37.1861 48.2934L37.1879 48.3913C37.0374 48.427 36.8887 48.467 36.7399 48.5036L36.731 48.5641C36.5013 48.6211 36.2786 48.7004 36.064 48.8001C35.9633 48.826 35.8618 48.8482 35.7603 48.8687V48.9221C35.6534 48.9444 35.5492 48.972 35.4468 49.0059C35.3924 49.013 35.2829 49.0281 35.2277 49.0353L35.2223 49.1145C35.1653 49.1199 35.0504 49.1297 34.9934 49.1341C34.7895 49.2089 34.582 49.2748 34.3727 49.3345C34.2408 49.3621 34.1081 49.3808 33.9745 49.3977L33.9772 49.4601C33.4063 49.5198 32.8639 49.7504 32.285 49.7522L32.2877 49.8252C32.0935 49.8297 31.8949 49.827 31.7097 49.8903C31.4844 49.9179 31.2581 49.9268 31.0319 49.9259L31.0471 50.0043C30.5234 49.9802 30.0077 50.0996 29.4849 50.0915C28.7118 50.0978 27.9379 50.1067 27.1657 50.0782C26.7934 50.0292 26.4194 50.0007 26.0444 50.0034L26.0578 49.925C25.633 49.9562 25.2188 49.8377 24.7967 49.8208L24.8091 49.7522C24.5063 49.7433 24.2133 49.6658 23.9123 49.6409L23.9114 49.5776C23.5578 49.5545 23.2211 49.4369 22.88 49.355C22.6449 49.2918 22.4116 49.2223 22.1845 49.1359C22.1275 49.1306 22.0126 49.1181 21.9556 49.1127L21.9502 49.0477C21.8469 49.0228 21.7454 48.9943 21.6456 48.9622C21.5895 48.956 21.4764 48.9435 21.4203 48.9373L21.415 48.8651C21.3152 48.8402 21.2163 48.8153 21.1175 48.7903C20.9679 48.7307 20.82 48.6674 20.6713 48.6087C20.5127 48.557 20.3605 48.4902 20.2171 48.4074C20.1841 48.4127 20.1182 48.4243 20.0852 48.4305V48.3352C19.9374 48.2943 19.7905 48.2497 19.6426 48.2096L19.6373 48.1384C19.5206 48.1054 19.4039 48.0725 19.2872 48.0413L19.2739 47.9683C19.1581 47.9336 19.0441 47.897 18.9292 47.8632L18.9194 47.7652C18.8793 47.7724 18.7992 47.7857 18.7591 47.7928L18.736 47.6797C18.6959 47.6886 18.6157 47.7047 18.5756 47.7127L18.5605 47.5898C18.5284 47.5924 18.4634 47.5969 18.4305 47.5996C18.2693 47.4713 18.0813 47.3849 17.9068 47.2781C17.693 47.1676 17.4873 47.0438 17.286 46.9111C16.7365 46.5718 16.1825 46.2271 15.6811 45.8174C15.6482 45.8165 15.584 45.8139 15.552 45.813C15.544 45.7702 15.5297 45.6847 15.5226 45.642L15.4059 45.6482C15.373 45.6188 15.3062 45.56 15.2723 45.5298L15.2661 45.4514C15.2331 45.4541 15.1672 45.4603 15.1343 45.463C14.9437 45.2011 14.6391 45.0328 14.3942 44.8181L14.3808 44.7772C14.029 44.5349 13.7574 44.2001 13.4323 43.9257C13.3129 43.8073 13.1918 43.6897 13.0698 43.5739C12.2575 42.7136 11.448 41.8363 10.8014 40.8415L10.7497 40.8255C10.2804 40.0702 9.75222 39.3408 9.37727 38.5312L9.32205 38.509C9.24812 38.2623 9.06198 38.0663 9.01923 37.8089L8.92483 37.8018C8.93462 37.7617 8.95422 37.6825 8.96402 37.6424L8.8518 37.6174C8.85803 37.5774 8.8705 37.4972 8.87584 37.4571L8.785 37.4438C8.71998 37.2122 8.6238 36.9922 8.50534 36.7838C8.51069 36.7518 8.52137 36.6876 8.52672 36.6547L8.43498 36.6511C8.40292 36.5104 8.36284 36.3715 8.31742 36.2343C8.25686 36.1301 8.20966 36.0197 8.16869 35.9066C8.11881 35.7177 8.04934 35.5352 7.97275 35.357C7.97809 35.325 7.98967 35.2626 7.99501 35.2315L7.90061 35.2234C7.86142 35.0159 7.81333 34.8102 7.77592 34.6027L7.70556 34.6045C7.70022 34.5475 7.68775 34.4326 7.68152 34.3756C7.63342 34.2455 7.61472 34.1084 7.60314 33.9712L7.53902 33.9828C7.49716 33.5731 7.37425 33.1786 7.28073 32.7796C7.26737 32.613 7.25669 32.4474 7.24867 32.2808L7.17475 32.2942C7.1703 32.1259 7.16139 31.9557 7.11241 31.7937C7.09994 31.3287 6.9708 30.8781 6.97525 30.4132C6.8657 29.5724 6.91736 28.721 6.91112 27.8758C6.89153 27.2942 7.01711 26.7206 7.00019 26.1391L7.07945 26.148C7.04294 25.7232 7.19345 25.3135 7.17653 24.8895L7.24956 24.8993C7.26114 24.5956 7.33595 24.3008 7.35822 23.9989L7.42412 24.0034C7.43748 23.5117 7.66726 23.062 7.71536 22.5757H7.7777C7.8062 22.1713 8.04222 21.8213 8.07606 21.4188L8.1393 21.4197C8.17136 21.2798 8.21055 21.1418 8.25419 21.0046C8.30673 20.8969 8.35216 20.7864 8.39402 20.6742C8.43766 20.5121 8.50802 20.3598 8.59441 20.2164C8.58728 20.1844 8.57392 20.1193 8.56769 20.0873L8.66566 20.0855C8.70395 19.9359 8.74759 19.788 8.78678 19.6393L8.85536 19.6331C8.88653 19.5155 8.91948 19.3997 8.95066 19.2839L9.01834 19.2741C9.14927 18.8885 9.33986 18.5189 9.55806 18.1751C9.60081 18.0816 9.64267 17.9881 9.68364 17.8954C9.99981 17.3976 10.291 16.8846 10.6045 16.3849C10.633 16.3654 10.69 16.3244 10.7185 16.3039C10.7177 16.2701 10.7159 16.2024 10.7159 16.1685L10.8014 16.1659C10.837 16.0438 10.9154 15.945 11.0089 15.8622C11.0107 15.8363 11.0133 15.7847 11.0151 15.7588C11.1184 15.6956 11.1986 15.6039 11.2743 15.5112C11.2725 15.4774 11.2698 15.4097 11.2681 15.3759C11.309 15.3696 11.3927 15.3589 11.4346 15.3536C11.4355 15.3189 11.4382 15.2512 11.4391 15.2164C11.684 14.9778 11.8728 14.6919 12.1026 14.4398C12.889 13.5064 13.7663 12.6461 14.7094 11.8713C14.8662 11.7537 15.0007 11.605 15.1752 11.5123L15.1904 11.434C15.2322 11.434 15.3151 11.4357 15.3569 11.4366C15.3614 11.393 15.3694 11.3066 15.373 11.263C15.413 11.2674 15.4932 11.2772 15.5333 11.2817L15.5502 11.2015C15.7158 11.0902 15.9198 11.0127 16.0258 10.8346C16.0516 10.8319 16.1042 10.8274 16.13 10.8248C16.4025 10.5344 16.8131 10.4267 17.0919 10.1515C17.2263 10.0989 17.3528 10.0312 17.4561 9.92792C17.4873 9.93326 17.5496 9.94395 17.5808 9.95018L17.5879 9.86023C17.8035 9.78007 17.9843 9.62956 18.2034 9.55653L18.2203 9.49418C18.3334 9.45678 18.4456 9.41848 18.5596 9.38196L18.573 9.28488C18.613 9.29201 18.6932 9.30715 18.7333 9.31428L18.7582 9.20473C18.7983 9.21185 18.8767 9.22521 18.9159 9.23145L18.9283 9.13615C19.0423 9.10053 19.1563 9.06312 19.2712 9.02838L19.2872 8.96159C19.5714 8.90993 19.8003 8.70776 20.0879 8.66946L20.0844 8.60623C20.2322 8.56882 20.3792 8.52696 20.5279 8.49045L20.5288 8.42988C20.7621 8.38624 20.9821 8.29451 21.2021 8.20901C21.4043 8.13063 21.6073 8.05671 21.8131 7.98724C21.8692 7.98279 21.9823 7.9721 22.0384 7.96676L22.0464 7.8866C22.1034 7.88126 22.2156 7.87146 22.2726 7.86612C22.4766 7.79042 22.6841 7.7254 22.8943 7.66573C23.0243 7.63723 23.157 7.61763 23.2906 7.60249V7.53837C23.8615 7.48048 24.4057 7.25337 24.9837 7.2507V7.18034C25.405 7.18301 25.8129 7.0414 26.2368 7.07792L26.2234 6.99954Z" fill="#FFC02D"/>
<path id="path3181" d="M29.0273 45.8312L27.6801 45.1152L26.5639 46.1553L26.8285 44.6528L25.4944 43.9127L27.0052 43.7L27.2968 42.2025L27.9659 43.5736L29.4803 43.3882L28.383 44.4482L29.0273 45.8312Z" fill="#FFC02D"/>
<path id="path3181-1" d="M19.1488 42.3359L18.336 41.0448L16.8504 41.3921L17.8272 40.2201L17.0377 38.9146L18.4542 39.4813L19.4519 38.3271L19.3506 39.8494L20.7566 40.4416L19.2775 40.8157L19.1488 42.3359Z" fill="#FFC02D"/>
<path id="path3181-1-7" d="M12.5458 34.639L12.595 33.1141L11.1696 32.5703L12.6351 32.1459L12.7118 30.6222L13.5682 31.8848L15.0411 31.4869L14.1049 32.6916L14.9385 33.9694L13.5035 33.4513L12.5458 34.639Z" fill="#FFC02D"/>
</g>
</svg>
