<svg width="149" height="57" viewBox="0 0 149 57" fill="none" xmlns="http://www.w3.org/2000/svg">
<g id="Page-1">
<g id="Group">
<g id="Group_2">
<path id="Vector" d="M101.711 32.3731L103.201 32.82C103.102 33.242 102.953 33.5896 102.729 33.8627C102.506 34.1358 102.257 34.3592 101.935 34.4833C101.612 34.6323 101.215 34.7067 100.718 34.7067C100.122 34.7067 99.6507 34.6323 99.2535 34.4585C98.8811 34.2847 98.5584 33.9868 98.2853 33.5399C98.0122 33.1179 97.8633 32.5469 97.8633 31.8766C97.8633 30.9829 98.1115 30.2878 98.5832 29.7912C99.0549 29.2947 99.75 29.0713 100.619 29.0713C101.314 29.0713 101.835 29.2202 102.233 29.4933C102.63 29.7664 102.928 30.1884 103.102 30.7843L101.612 31.107C101.562 30.9332 101.513 30.8091 101.438 30.7346C101.339 30.6105 101.24 30.5112 101.091 30.4367C100.942 30.3622 100.793 30.3374 100.644 30.3374C100.271 30.3374 99.9735 30.4864 99.7749 30.8091C99.6259 31.0325 99.5514 31.4049 99.5514 31.8766C99.5514 32.4724 99.6507 32.8945 99.8245 33.1179C99.9983 33.3413 100.271 33.4655 100.594 33.4655C100.917 33.4655 101.165 33.3662 101.314 33.1924C101.513 32.9689 101.637 32.7207 101.711 32.3731Z" fill="#225E63"/>
<path id="Vector_2" d="M103.796 31.8765C103.796 30.9828 104.044 30.2877 104.541 29.7912C105.037 29.2946 105.732 29.0464 106.626 29.0464C107.545 29.0464 108.24 29.2947 108.736 29.7663C109.233 30.2629 109.481 30.9331 109.481 31.8269C109.481 32.4723 109.382 32.9937 109.158 33.3909C108.935 33.7881 108.637 34.1109 108.215 34.3343C107.818 34.5577 107.296 34.6818 106.701 34.6818C106.08 34.6818 105.583 34.5825 105.161 34.3839C104.764 34.1853 104.441 33.8874 104.168 33.4406C103.895 32.9937 103.796 32.522 103.796 31.8765ZM105.484 31.8765C105.484 32.4227 105.583 32.8199 105.782 33.0682C105.981 33.3164 106.254 33.4406 106.626 33.4406C106.998 33.4406 107.272 33.3164 107.47 33.093C107.669 32.8447 107.768 32.4227 107.768 31.8269C107.768 31.3055 107.669 30.9331 107.445 30.7097C107.247 30.4615 106.949 30.3622 106.601 30.3622C106.254 30.3622 105.981 30.4863 105.782 30.7345C105.583 30.9332 105.484 31.3304 105.484 31.8765Z" fill="#225E63"/>
<path id="Vector_3" d="M110.35 29.1455H112.56L113.404 32.4722L114.248 29.1455H116.458V34.6072H115.067V30.4364L114 34.6072H112.759L111.691 30.4364V34.6072H110.301V29.1455H110.35Z" fill="#225E63"/>
<path id="Vector_4" d="M117.55 29.1455H120.355C120.976 29.1455 121.423 29.2945 121.721 29.5924C122.018 29.8903 122.167 30.2875 122.167 30.8337C122.167 31.3798 121.994 31.8267 121.671 32.1246C121.348 32.4473 120.827 32.5963 120.157 32.5963H119.238V34.632H117.55V29.1455ZM119.238 31.4791H119.66C119.983 31.4791 120.206 31.4295 120.355 31.3053C120.479 31.1812 120.554 31.0571 120.554 30.8833C120.554 30.7095 120.504 30.5606 120.38 30.4364C120.256 30.3123 120.057 30.2627 119.734 30.2627H119.263V31.4791H119.238Z" fill="#225E63"/>
<path id="Vector_5" d="M123.062 29.1455H124.75V33.2666H127.381V34.6072H123.062V29.1455Z" fill="#225E63"/>
<path id="Vector_6" d="M128.226 29.1455H129.914V34.6072H128.226V29.1455Z" fill="#225E63"/>
<path id="Vector_7" d="M134.481 33.689H132.569L132.296 34.5828H130.583L132.644 29.1211H134.481L136.541 34.5828H134.779L134.481 33.689ZM134.133 32.5222L133.537 30.561L132.941 32.5222H134.133Z" fill="#225E63"/>
<path id="Vector_8" d="M137.063 29.1455H138.627L140.688 32.1742V29.1455H142.277V34.6072H140.688L138.652 31.6033V34.6072H137.063V29.1455Z" fill="#225E63"/>
<path id="Vector_9" d="M143.021 29.1455H148.16V30.4861H146.447V34.6072H144.759V30.4861H143.046V29.1455H143.021Z" fill="#225E63"/>
</g>
<g id="Rectangle-3-_x2B_-Letters">
<path id="Rectangle-3" d="M81.4038 37.4621L86.2944 35.9229L84.7056 32.3976C83.5388 33.8624 82.372 35.7491 81.4038 37.4621ZM79.7404 21.3502L70.1577 0L0 3.97213L19.4386 57L56.8511 45.2078C54.4678 41.7818 53.5989 37.7104 56.3545 35.7243C59.4329 33.49 64.0754 36.0719 67.0296 39.7213C69.8846 34.9547 77.9033 23.8576 79.7404 21.3502Z" fill="#225E63"/>
<g id="Letters">
<path id="Oval-1" d="M67.9719 15.429C70.9013 15.429 73.2846 13.1947 73.2846 10.4142C73.2846 7.63373 70.9013 5.39941 67.9719 5.39941C65.0425 5.39941 62.6592 7.63373 62.6592 10.4142C62.6592 13.1699 65.0425 15.429 67.9719 15.429ZM63.6274 17.5889H72.3164V40.3045H63.6274V17.5889Z" fill="#FEFEFE"/>
<path id="Path-3" d="M59.3332 24.2173C59.4076 24.2421 59.4573 24.2173 59.4573 24.1428V18.3833C59.4573 18.3088 59.4076 18.2343 59.3332 18.1847C59.3332 18.1847 58.1912 17.4399 54.7156 17.2413C54.5418 17.142 51.4882 17.1171 50.669 17.2413C38.0078 18.2591 37.5361 27.4198 37.5361 27.8171V30.0514C37.5361 30.3245 37.5361 39.6838 50.669 40.503C51.9599 40.6023 54.4673 40.503 54.7156 40.503C57.7443 40.503 59.8297 39.5845 59.8297 39.5845C59.9042 39.5597 59.9538 39.4852 59.9538 39.4107V34.0235C59.9538 33.949 59.9042 33.9242 59.8545 33.9739C59.8545 33.9739 58.9111 34.7186 54.7901 35.1407C53.6232 35.2648 53.0522 35.2151 52.6302 35.1407C46.7713 34.1476 46.4982 29.8776 46.4982 29.8776C46.4982 29.8031 46.4734 29.679 46.4734 29.6293V27.9908C46.4734 27.9164 46.4734 27.7922 46.4982 27.7426C46.4982 27.7426 46.8955 23.1498 52.6302 22.6533H54.7901C57.2975 22.976 59.3332 24.2173 59.3332 24.2173Z" fill="#FEFEFE"/>
<path id="Path-1" d="M13.4053 40.2303C13.4053 40.3047 13.4549 40.3544 13.5294 40.3544H21.995C22.0695 40.3544 22.1191 40.3047 22.1191 40.2303V33.6266C22.1191 33.5521 22.1688 33.5025 22.2433 33.5025C22.2433 33.5025 35.7733 34.4707 35.7733 25.4093C35.7733 18.2346 27.2829 17.465 24.5024 17.5891C24.4527 17.5891 13.5294 17.5891 13.5294 17.5891C13.4549 17.5891 13.4053 17.6388 13.4053 17.7133V40.2303ZM21.9702 28.4628V22.5295H24.0555C24.0555 22.5295 27.0595 22.6536 27.3077 24.7141C27.3574 24.8631 27.3574 25.881 27.3077 25.9306C26.9105 28.3387 24.3038 28.4628 24.3038 28.4628H21.9702Z" fill="#FEFEFE"/>
</g>
<path id="Path-7" d="M68.222 51.2653C68.9171 51.2653 69.4632 51.2653 70.357 50.868C73.4354 49.2544 83.8374 23.8576 94.8104 16.0375C94.8848 15.9878 94.9593 15.9133 95.009 15.8389C95.0835 15.7396 95.0835 15.6403 95.0835 15.6403C95.0835 15.6403 95.0835 15.1189 93.4698 15.1189C83.7132 14.8458 73.5595 35.3271 68.222 43.4203C68.1475 43.5196 67.7999 43.4203 67.7999 43.4203C67.7999 43.4203 64.225 39.1999 61.1218 37.5863C61.0473 37.5614 60.6997 37.4373 60.3274 37.4621C60.0791 37.4621 58.6392 37.76 57.9689 38.4552C57.1745 39.2992 57.1993 39.7709 57.1993 40.7888C57.1993 40.8633 57.249 41.2108 57.3483 41.3846C58.1179 42.7252 61.5686 47.4917 64.4236 50.1233C64.8456 50.446 65.5159 51.2653 68.222 51.2653Z" fill="#2BBC5D"/>
</g>
<g id="Group_3">
<path id="Vector_10" d="M97.6895 8.36621H105.807C107.421 8.36621 108.712 8.58964 109.68 9.01168C110.673 9.45855 111.493 10.0792 112.113 10.8736C112.759 11.6929 113.23 12.6362 113.503 13.7038C113.801 14.7713 113.95 15.9132 113.95 17.1297C113.95 19.0165 113.727 20.4812 113.305 21.5239C112.883 22.5666 112.287 23.4355 111.517 24.1554C110.748 24.8505 109.929 25.3222 109.06 25.5705C107.868 25.8932 106.776 26.0422 105.807 26.0422H97.6895V8.36621ZM103.151 12.3632V22.0204H104.492C105.634 22.0204 106.453 21.8963 106.925 21.648C107.396 21.3997 107.794 20.9529 108.067 20.3322C108.34 19.7116 108.489 18.6689 108.489 17.2538C108.489 15.3671 108.191 14.101 107.57 13.4058C106.949 12.7107 105.956 12.3632 104.517 12.3632H103.151Z" fill="#225E63"/>
<path id="Vector_11" d="M115.465 20.2081L120.678 19.8854C120.802 20.7294 121.026 21.3749 121.373 21.8218C121.944 22.5417 122.739 22.8893 123.781 22.8893C124.551 22.8893 125.172 22.7155 125.594 22.3431C126.016 21.9707 126.239 21.5487 126.239 21.077C126.239 20.6301 126.041 20.2081 125.643 19.8357C125.246 19.4633 124.303 19.1406 122.838 18.8178C120.43 18.2717 118.742 17.5517 117.699 16.658C116.656 15.7643 116.16 14.6223 116.16 13.232C116.16 12.3135 116.433 11.4694 116.954 10.6502C117.476 9.83092 118.27 9.21027 119.338 8.73858C120.405 8.26689 121.845 8.04346 123.682 8.04346C125.941 8.04346 127.679 8.4655 128.846 9.30957C130.038 10.1537 130.733 11.4942 130.956 13.3313L125.792 13.6293C125.643 12.8348 125.37 12.2638 124.923 11.8915C124.477 11.5191 123.881 11.3453 123.111 11.3453C122.466 11.3453 121.994 11.4694 121.671 11.7425C121.349 12.0156 121.2 12.3383 121.2 12.7355C121.2 13.0086 121.324 13.2817 121.597 13.5051C121.845 13.7286 122.466 13.952 123.434 14.1506C125.817 14.6719 127.53 15.1933 128.573 15.7146C129.616 16.236 130.36 16.9063 130.832 17.6759C131.304 18.4455 131.527 19.3392 131.527 20.3074C131.527 21.4494 131.204 22.4921 130.584 23.4354C129.963 24.4037 129.069 25.1236 127.952 25.6201C126.835 26.1166 125.395 26.3649 123.682 26.3649C120.678 26.3649 118.593 25.7939 117.426 24.6271C116.284 23.4603 115.639 21.9956 115.465 20.2081Z" fill="#225E63"/>
</g>
<g id="Group_4">
<path id="Vector_12" d="M132.918 20.2081L138.131 19.8854C138.256 20.7294 138.479 21.3749 138.827 21.8218C139.397 22.5417 140.192 22.8893 141.235 22.8893C142.004 22.8893 142.625 22.7155 143.047 22.3431C143.469 21.9707 143.692 21.5487 143.692 21.077C143.692 20.6301 143.494 20.2081 143.097 19.8357C142.699 19.4633 141.756 19.1406 140.291 18.8178C137.883 18.2717 136.195 17.5517 135.152 16.658C134.134 15.7643 133.613 14.6223 133.613 13.232C133.613 12.3135 133.886 11.4694 134.408 10.6502C134.929 9.83092 135.723 9.21027 136.791 8.73858C137.858 8.26689 139.298 8.04346 141.135 8.04346C143.394 8.04346 145.132 8.4655 146.299 9.30957C147.491 10.1537 148.186 11.4942 148.409 13.3313L143.245 13.6293C143.097 12.8348 142.823 12.2638 142.377 11.8915C141.93 11.5191 141.334 11.3453 140.564 11.3453C139.919 11.3453 139.447 11.4694 139.124 11.7425C138.802 12.0156 138.653 12.3383 138.653 12.7355C138.653 13.0086 138.777 13.2817 139.05 13.5051C139.298 13.7286 139.919 13.952 140.887 14.1506C143.27 14.6719 144.983 15.1933 146.026 15.7146C147.069 16.236 147.813 16.9063 148.285 17.6759C148.757 18.4455 148.98 19.3392 148.98 20.3074C148.98 21.4494 148.658 22.4921 148.037 23.4354C147.416 24.4037 146.522 25.1236 145.405 25.6201C144.288 26.1166 142.848 26.3649 141.135 26.3649C138.131 26.3649 136.046 25.7939 134.879 24.6271C133.712 23.4603 133.067 21.9956 132.918 20.2081Z" fill="#225E63"/>
</g>
</g>
</g>
</svg>
