<svg width="804" height="1036" viewBox="0 0 804 1036" fill="none" xmlns="http://www.w3.org/2000/svg">
<g id="Group 13">
<g id="Ellipse 3" opacity="0.3" filter="url(#filter0_f_135_1911)">
<circle cx="300.626" cy="533.037" r="191.017" transform="rotate(-30.2598 300.626 533.037)" fill="url(#paint0_linear_135_1911)"/>
</g>
<g id="Card">
<g clip-path="url(#clip0_135_1911)">
<rect x="-2.64258" y="195.557" width="401.759" height="587.585" rx="20.7627" transform="rotate(-15.2598 -2.64258 195.557)" fill="#191919"/>
<rect id="Rectangle 1" opacity="0.1" x="121.404" y="650.253" width="401.759" height="116.271" transform="rotate(-15.2598 121.404 650.253)" fill="url(#paint1_linear_135_1911)"/>
<g id="Frame 4">
<g id="Frame 2">
<g id="Frame" clip-path="url(#clip1_135_1911)">
<path id="Vector" d="M59.0809 224.48C54.7199 227.106 52.4314 232.394 53.8171 237.566C55.325 243.194 60.6705 246.766 66.2741 246.212L68.525 254.613C68.207 254.72 67.8834 254.818 67.5546 254.906C59.1464 257.159 50.5001 252.156 48.2427 243.731C46.0121 235.406 50.8538 226.856 59.0809 224.48ZM64.0589 237.728L79.6097 233.561L79.5659 233.955C78.8463 240.36 78.4866 242.854 77.4474 245.935C76.4081 249.017 73.7372 252.344 70.9768 253.975L72.2107 241.616L65.5771 243.394L64.0589 237.728ZM76.9968 219.677L75.975 228.696L62.5482 232.307L60.3585 224.135L76.9968 219.677Z" fill="#C9D5FF"/>
</g>
<path id="GiroF&#195;&#161;cil" d="M109.38 239.4C106.965 240.058 104.751 240.146 102.736 239.662C100.716 239.157 98.9865 238.16 97.5471 236.67C96.129 235.175 95.0965 233.241 94.4494 230.87C93.8082 228.519 93.7129 226.319 94.1634 224.267C94.6294 222.189 95.5694 220.418 96.9833 218.953C98.3914 217.467 100.196 216.424 102.397 215.823C104.149 215.345 105.82 215.245 107.411 215.523C109.017 215.773 110.427 216.353 111.639 217.262C112.872 218.165 113.781 219.352 114.366 220.822L110.969 221.749C110.353 220.333 109.352 219.355 107.965 218.815C106.572 218.254 105.01 218.209 103.28 218.681C101.699 219.113 100.422 219.863 99.4513 220.931C98.4802 221.999 97.8471 223.297 97.5519 224.824C97.2782 226.345 97.392 228.024 97.8933 229.861C98.4004 231.72 99.1687 233.232 100.198 234.398C101.222 235.542 102.463 236.305 103.922 236.687C105.396 237.043 107.031 236.976 108.826 236.486C110.108 236.136 111.191 235.646 112.074 235.014C112.958 234.383 113.667 233.616 114.201 232.712L117.843 233.062C116.985 234.627 115.863 235.944 114.478 237.01C113.087 238.055 111.388 238.852 109.38 239.4ZM114.446 233.989L112.514 226.906L113.778 227.628L106.888 229.508L106.118 226.688L115.412 224.152L117.843 233.062L114.446 233.989ZM122.936 235.357L118.477 219.012L121.81 218.102L126.269 234.448L122.936 235.357ZM117.442 215.851L116.419 212.101L120.105 211.095L121.128 214.845L117.442 215.851ZM130.948 233.171L126.489 216.826L129.662 215.96L130.772 220.031L130.933 219.987L134.281 232.262L130.948 233.171ZM131.956 223.737L130.481 219.972C130.487 218.479 130.861 217.24 131.602 216.257C132.344 215.274 133.367 214.605 134.67 214.25C135.162 214.116 135.515 214.065 135.731 214.098L136.588 217.239C136.469 217.225 136.314 217.245 136.122 217.297C135.923 217.328 135.685 217.382 135.408 217.457C133.805 217.895 132.712 218.641 132.127 219.695C131.564 220.744 131.507 222.091 131.956 223.737ZM150.325 228.229C148.659 228.684 147.096 228.72 145.637 228.337C144.173 227.933 142.913 227.186 141.858 226.097C140.798 224.986 140.043 223.608 139.594 221.963C139.139 220.296 139.093 218.736 139.454 217.283C139.836 215.825 140.551 214.574 141.598 213.53C142.66 212.46 144.025 211.698 145.691 211.243C147.379 210.782 148.953 210.743 150.411 211.126C151.864 211.487 153.105 212.205 154.132 213.279C155.181 214.347 155.933 215.714 156.388 217.381C156.837 219.026 156.886 220.597 156.537 222.092C156.203 223.561 155.508 224.841 154.451 225.933C153.389 227.003 152.013 227.768 150.325 228.229ZM149.582 225.505C150.586 225.231 151.385 224.749 151.977 224.059C152.591 223.364 152.992 222.52 153.18 221.527C153.369 220.535 153.302 219.451 152.982 218.276C152.504 216.524 151.658 215.274 150.444 214.526C149.245 213.751 147.909 213.565 146.435 213.967C144.982 214.363 143.925 215.203 143.265 216.485C142.626 217.761 142.542 219.264 143.015 220.995C143.335 222.17 143.818 223.14 144.463 223.906C145.129 224.665 145.903 225.188 146.785 225.476C147.688 225.757 148.621 225.767 149.582 225.505ZM162.09 224.675L155.795 201.6L159.192 200.673L165.488 223.748L162.09 224.675ZM161.143 214.638L160.382 211.849L173.073 208.387L173.834 211.175L161.143 214.638ZM158.222 203.933L157.462 201.145L171.018 197.446L171.779 200.235L158.222 203.933ZM189.775 217.122C189.558 216.745 189.361 216.317 189.184 215.837C189.028 215.352 188.854 214.756 188.662 214.051L188.502 214.095L186.377 206.307C186.092 205.26 185.612 204.553 184.938 204.186C184.279 203.792 183.384 203.749 182.251 204.058C181.162 204.355 180.344 204.808 179.798 205.416C179.274 206.018 179.066 206.729 179.175 207.549L176.002 208.414C175.732 206.835 176.091 205.417 177.08 204.16C178.068 202.904 179.599 201.992 181.671 201.427C183.808 200.844 185.547 200.909 186.89 201.622C188.226 202.313 189.157 203.62 189.681 205.543L191.771 213.203C191.905 213.694 192.074 214.188 192.278 214.683C192.482 215.178 192.727 215.697 193.012 216.239L189.775 217.122ZM184.222 218.981C182.556 219.436 181.12 219.391 179.916 218.848C178.706 218.283 177.908 217.295 177.523 215.885C177.127 214.432 177.328 213.149 178.126 212.036C178.94 210.896 180.278 209.911 182.141 209.081L187.289 206.747L187.927 209.086L183.266 211.185C182.223 211.653 181.479 212.166 181.034 212.723C180.611 213.275 180.504 213.935 180.714 214.704C180.918 215.452 181.318 215.951 181.914 216.202C182.526 216.425 183.313 216.406 184.274 216.144C185.556 215.794 186.529 215.195 187.194 214.348C187.879 213.496 188.094 212.599 187.837 211.659L188.901 213.917C188.825 215.154 188.381 216.217 187.567 217.105C186.747 217.971 185.632 218.597 184.222 218.981ZM181.377 199.338L178.332 200.169L180.421 194.193L185.164 192.899L181.377 199.338ZM203.9 213.613C202.34 214.038 200.852 214.054 199.436 213.66C198.014 213.244 196.776 212.492 195.721 211.402C194.688 210.307 193.947 208.936 193.498 207.291C193.049 205.646 192.995 204.1 193.334 202.653C193.69 201.178 194.377 199.912 195.397 198.853C196.417 197.795 197.696 197.055 199.234 196.636C200.537 196.28 201.769 196.208 202.928 196.42C204.088 196.631 205.119 197.085 206.02 197.78C206.921 198.475 207.631 199.395 208.15 200.539L205.009 201.396C204.533 200.493 203.853 199.852 202.969 199.473C202.107 199.089 201.131 199.045 200.041 199.342C199.101 199.599 198.343 200.058 197.766 200.721C197.189 201.383 196.825 202.194 196.673 203.154C196.522 204.113 196.607 205.181 196.927 206.356C197.242 207.509 197.711 208.472 198.335 209.243C198.958 210.014 199.69 210.549 200.529 210.848C201.362 211.126 202.259 211.134 203.221 210.871C204.268 210.586 205.079 210.066 205.654 209.312C206.244 208.531 206.515 207.631 206.466 206.611L209.607 205.754C209.714 206.988 209.545 208.136 209.1 209.198C208.677 210.255 208.02 211.169 207.128 211.94C206.237 212.711 205.161 213.269 203.9 213.613ZM214.232 210.45L209.773 194.105L213.106 193.196L217.565 209.541L214.232 210.45ZM208.738 190.944L207.715 187.194L211.401 186.188L212.424 189.938L208.738 190.944ZM222.244 208.264L215.949 185.189L219.282 184.279L225.577 207.355L222.244 208.264Z" fill="url(#paint2_linear_135_1911)"/>
</g>
<g id="toll">
<mask id="mask0_135_1911" style="mask-type:alpha" maskUnits="userSpaceOnUse" x="320" y="137" width="51" height="51">
<rect id="Bounding box" x="330.942" y="187.673" width="40.4873" height="40.4873" transform="rotate(-105.26 330.942 187.673)" fill="#D9D9D9"/>
</mask>
<g mask="url(#mask0_135_1911)">
<path id="toll_2" d="M356.832 154.38C357.823 158.015 357.402 161.438 355.567 164.648C353.733 167.859 350.998 169.96 347.364 170.952C343.729 171.944 340.306 171.522 337.095 169.688C333.885 167.853 331.783 165.119 330.792 161.484C329.8 157.849 330.222 154.427 332.056 151.216C333.89 148.005 336.625 145.904 340.26 144.912C343.894 143.921 347.317 144.342 350.528 146.176C353.739 148.011 355.84 150.745 356.832 154.38ZM359.977 167.511C360.002 170.593 359.096 173.362 357.259 175.815C355.422 178.269 353.011 179.903 350.028 180.717C347.044 181.531 344.138 181.348 341.309 180.167C338.481 178.986 336.295 177.061 334.751 174.393L338.168 173.461C339.379 175.229 340.988 176.48 342.996 177.215C345.003 177.949 347.051 178.032 349.14 177.462C351.228 176.892 352.951 175.781 354.307 174.129C355.663 172.477 356.414 170.581 356.559 168.443L359.977 167.511ZM353.577 155.268C352.837 152.556 351.258 150.509 348.842 149.128C346.425 147.747 343.86 147.427 341.148 148.167C338.435 148.907 336.389 150.486 335.008 152.902C333.627 155.319 333.307 157.884 334.047 160.596C334.787 163.309 336.365 165.355 338.782 166.736C341.199 168.117 343.763 168.437 346.476 167.697C349.188 166.957 351.235 165.379 352.616 162.962C353.996 160.545 354.317 157.981 353.577 155.268Z" fill="url(#paint3_linear_135_1911)"/>
</g>
</g>
</g>
<g id="Frame 3">
<path id="Your Full Name" d="M176.969 689.025L174.832 681.189L165.686 673.509L168.089 672.853L176.055 679.616L175.142 679.865L178.57 669.994L180.781 669.391L176.803 680.652L178.94 688.488L176.969 689.025ZM190.834 685.501C189.633 685.829 188.499 685.837 187.432 685.525C186.366 685.214 185.445 684.647 184.67 683.825C183.906 682.984 183.359 681.954 183.026 680.736C182.69 679.502 182.649 678.342 182.904 677.257C183.159 676.172 183.66 675.234 184.409 674.444C185.174 673.65 186.157 673.089 187.359 672.762C188.577 672.429 189.709 672.413 190.755 672.713C191.817 673.009 192.725 673.562 193.48 674.372C194.251 675.177 194.804 676.197 195.141 677.431C195.473 678.649 195.516 679.816 195.27 680.934C195.036 682.031 194.538 682.984 193.778 683.794C193.033 684.6 192.052 685.169 190.834 685.501ZM190.389 683.867C191.222 683.639 191.888 683.242 192.388 682.675C192.883 682.093 193.201 681.395 193.341 680.582C193.48 679.769 193.421 678.89 193.163 677.944C192.779 676.534 192.094 675.507 191.109 674.863C190.14 674.215 189.039 674.059 187.805 674.396C186.587 674.728 185.717 675.422 185.196 676.477C184.674 677.531 184.606 678.764 184.991 680.174C185.249 681.119 185.644 681.907 186.178 682.536C186.711 683.165 187.339 683.605 188.061 683.856C188.796 684.086 189.571 684.089 190.389 683.867ZM203.766 681.973C202.965 682.192 202.208 682.226 201.495 682.076C200.779 681.91 200.163 681.579 199.649 681.082C199.13 680.569 198.764 679.92 198.55 679.135L196.222 670.602L198.145 670.077L200.335 678.106C200.588 679.035 201.003 679.671 201.578 680.013C202.17 680.351 202.89 680.404 203.74 680.173C204.509 679.963 205.142 679.601 205.638 679.086C206.135 678.572 206.466 677.956 206.633 677.24C206.81 676.503 206.788 675.725 206.565 674.908L207.671 677.731C207.519 678.754 207.091 679.646 206.386 680.406C205.681 681.167 204.807 681.689 203.766 681.973ZM208.219 680.5L207.432 677.616L207.312 677.648L204.755 668.274L206.678 667.749L210.022 680.008L208.219 680.5ZM213.865 678.96L210.52 666.701L212.323 666.209L213.176 669.334L213.296 669.301L215.788 678.435L213.865 678.96ZM214.043 672.041L212.937 669.218C212.942 668.098 213.238 667.165 213.827 666.419C214.415 665.673 215.19 665.169 216.151 664.906C216.552 664.797 216.833 664.755 216.995 664.78L217.5 666.63C217.411 666.62 217.294 666.635 217.15 666.674C217.002 666.698 216.823 666.738 216.615 666.794C215.397 667.127 214.568 667.749 214.128 668.661C213.7 669.552 213.672 670.679 214.043 672.041ZM227.835 675.149L223.113 657.842L225.084 657.304L229.806 674.611L227.835 675.149ZM226.818 667.446L226.346 665.715L235.672 663.171L236.144 664.901L226.818 667.446ZM224.595 659.297L224.123 657.567L234.122 654.839L234.594 656.569L224.595 659.297ZM245.032 670.715C244.231 670.934 243.474 670.968 242.762 670.818C242.045 670.652 241.43 670.321 240.915 669.824C240.397 669.311 240.03 668.662 239.816 667.877L237.488 659.344L239.411 658.819L241.601 666.848C241.855 667.777 242.269 668.413 242.845 668.755C243.436 669.093 244.157 669.146 245.006 668.914C245.775 668.705 246.408 668.343 246.905 667.828C247.401 667.314 247.733 666.698 247.899 665.982C248.077 665.244 248.054 664.467 247.831 663.65L248.937 666.473C248.785 667.496 248.357 668.388 247.652 669.148C246.947 669.909 246.074 670.431 245.032 670.715ZM249.486 669.242L248.699 666.357L248.578 666.39L246.021 657.016L247.944 656.491L251.288 668.75L249.486 669.242ZM255.131 667.702L250.41 650.395L252.332 649.871L257.054 667.177L255.131 667.702ZM260.905 666.126L256.184 648.82L258.107 648.295L262.828 665.602L260.905 666.126ZM271.636 663.199L266.915 645.892L268.958 645.335L282.859 657.193L282.584 657.32L278.597 642.705L280.472 642.194L285.193 659.5L283.15 660.058L269.249 648.2L269.524 648.073L273.511 662.687L271.636 663.199ZM296.715 656.357C296.576 656.102 296.443 655.803 296.315 655.459C296.202 655.111 296.072 654.664 295.923 654.119L295.803 654.152L294.203 648.287C293.949 647.358 293.547 646.736 292.997 646.421C292.458 646.086 291.715 646.048 290.77 646.306C289.84 646.559 289.148 646.955 288.692 647.492C288.248 648.01 288.087 648.621 288.211 649.328L286.36 649.833C286.117 648.625 286.36 647.56 287.09 646.638C287.82 645.716 288.922 645.054 290.396 644.651C291.918 644.236 293.147 644.288 294.08 644.808C295.014 645.328 295.678 646.31 296.071 647.752L297.678 653.641C297.774 653.993 297.899 654.355 298.052 654.727C298.2 655.082 298.372 655.457 298.565 655.852L296.715 656.357ZM292.574 657.745C291.308 658.09 290.215 658.061 289.296 657.658C288.388 657.234 287.788 656.485 287.495 655.412C287.202 654.338 287.343 653.404 287.919 652.61C288.494 651.816 289.454 651.107 290.799 650.482L294.88 648.593L295.313 650.18L291.494 651.893C290.636 652.282 290.02 652.708 289.647 653.172C289.274 653.635 289.175 654.187 289.35 654.828C289.521 655.453 289.858 655.869 290.362 656.076C290.882 656.278 291.559 656.266 292.392 656.038C293.466 655.745 294.274 655.267 294.815 654.603C295.369 653.918 295.539 653.183 295.324 652.398L296.102 654.019C296.069 654.906 295.737 655.677 295.106 656.331C294.491 656.981 293.647 657.452 292.574 657.745ZM302.008 654.913L298.663 642.654L300.466 642.162L301.253 645.047L301.373 645.014L303.93 654.388L302.008 654.913ZM310.276 652.657L308.06 644.533C307.806 643.603 307.412 642.979 306.877 642.66C306.343 642.341 305.683 642.289 304.898 642.503C304.16 642.704 303.543 643.062 303.047 643.576C302.55 644.09 302.211 644.708 302.029 645.429C301.863 646.146 301.893 646.921 302.121 647.754L301.015 644.931C301.182 643.904 301.61 643.012 302.299 642.256C302.988 641.5 303.822 640.989 304.799 640.722C305.985 640.399 307.043 640.489 307.972 640.993C308.897 641.481 309.521 642.318 309.845 643.503L312.199 652.133L310.276 652.657ZM318.545 650.401L316.328 642.277C316.075 641.348 315.681 640.723 315.146 640.404C314.611 640.085 313.951 640.033 313.166 640.247C312.429 640.448 311.812 640.806 311.315 641.32C310.819 641.835 310.479 642.452 310.297 643.173C310.131 643.89 310.162 644.665 310.389 645.498L309.115 642.721C309.282 641.694 309.727 640.798 310.448 640.033C311.169 639.268 312.026 638.75 313.02 638.479C314.205 638.156 315.271 638.244 316.217 638.744C317.158 639.227 317.79 640.062 318.114 641.248L320.468 649.877L318.545 650.401ZM329.256 647.738C328.086 648.057 326.978 648.066 325.932 647.766C324.882 647.45 323.969 646.881 323.194 646.06C322.419 645.238 321.861 644.203 321.52 642.953C321.179 641.703 321.128 640.537 321.366 639.456C321.617 638.355 322.127 637.415 322.896 636.637C323.665 635.859 324.642 635.308 325.828 634.985C326.966 634.675 328.019 634.654 328.988 634.924C329.973 635.189 330.812 635.709 331.506 636.484C332.215 637.254 332.736 638.248 333.068 639.466C333.112 639.626 333.145 639.781 333.169 639.93C333.208 640.074 333.236 640.238 333.252 640.423L323.132 643.184L322.693 641.574L331.635 639.134L331.252 640.194C330.85 638.72 330.213 637.68 329.342 637.074C328.483 636.447 327.46 636.296 326.274 636.619C325.056 636.952 324.187 637.645 323.665 638.7C323.155 639.734 323.095 640.965 323.484 642.391C323.882 643.849 324.57 644.918 325.547 645.599C326.536 646.258 327.656 646.418 328.906 646.077C329.691 645.863 330.334 645.506 330.835 645.008C331.332 644.494 331.629 643.879 331.727 643.164L333.554 642.665C333.459 643.896 333.029 644.969 332.262 645.884C331.508 646.779 330.506 647.397 329.256 647.738Z" fill="url(#paint4_linear_135_1911)"/>
<path id="Exp 10/11/28" d="M178.638 717.831L175.49 706.293L176.804 705.934L179.952 717.472L178.638 717.831ZM179.311 717.647L178.996 716.493L186.047 714.57L186.362 715.723L179.311 717.647ZM177.829 712.215L177.514 711.061L183.988 709.295L184.303 710.448L177.829 712.215ZM176.478 707.263L176.163 706.109L183.086 704.221L183.401 705.374L176.478 707.263ZM193.851 713.68L190.107 710.621L185.677 707.13L187.167 706.723L190.624 709.55L195.342 713.274L193.851 713.68ZM189.969 709.798L191.558 705.525L193 705.132L190.878 710.48L189.969 709.798ZM190.754 710.531L188.996 715.005L187.538 715.403L189.88 709.788L190.754 710.531ZM201.21 711.827C200.441 712.037 199.744 712.027 199.118 711.796C198.493 711.564 197.991 711.133 197.612 710.502L197.86 710.4L199.311 715.72L198.029 716.07L194.903 704.612L196.105 704.285L196.625 706.191L196.436 706.191C196.467 705.506 196.718 704.909 197.188 704.402C197.655 703.885 198.262 703.524 199.01 703.32C199.736 703.122 200.415 703.126 201.045 703.333C201.686 703.537 202.242 703.913 202.713 704.462C203.184 705.01 203.535 705.707 203.765 706.551C203.998 707.405 204.048 708.195 203.913 708.921C203.778 709.646 203.481 710.261 203.021 710.765C202.562 711.269 201.958 711.623 201.21 711.827ZM200.712 710.758C201.524 710.537 202.084 710.086 202.392 709.405C202.697 708.713 202.716 707.881 202.451 706.909C202.189 705.948 201.754 705.257 201.146 704.838C200.535 704.407 199.823 704.303 199.012 704.525C198.2 704.746 197.636 705.204 197.32 705.899C197.002 706.582 196.975 707.41 197.24 708.382C197.5 709.333 197.94 710.022 198.562 710.45C199.183 710.877 199.9 710.98 200.712 710.758ZM211.84 708.773L209.195 699.078L209.552 699.187C209.49 699.548 209.338 699.917 209.096 700.293C208.852 700.658 208.543 701 208.171 701.32C207.8 701.639 207.379 701.909 206.911 702.128L206.365 700.125C206.775 699.945 207.17 699.688 207.549 699.355C207.929 699.021 208.256 698.663 208.53 698.278C208.801 697.883 208.967 697.504 209.029 697.143L210.728 696.68L213.875 708.217L211.84 708.773ZM220.324 706.63C219.384 706.887 218.483 706.863 217.619 706.559C216.753 706.244 215.989 705.695 215.327 704.911C214.674 704.114 214.188 703.133 213.87 701.969C213.553 700.804 213.477 699.729 213.644 698.742C213.808 697.745 214.187 696.901 214.779 696.211C215.379 695.508 216.149 695.028 217.089 694.772C218.04 694.513 218.947 694.535 219.811 694.839C220.671 695.132 221.425 695.667 222.073 696.442C222.729 697.205 223.216 698.168 223.533 699.333C223.854 700.508 223.928 701.601 223.756 702.612C223.595 703.62 223.221 704.48 222.635 705.191C222.045 705.891 221.275 706.371 220.324 706.63ZM219.848 704.883C220.435 704.723 220.871 704.404 221.153 703.925C221.436 703.446 221.586 702.86 221.603 702.166C221.631 701.47 221.536 700.721 221.317 699.92C221.099 699.119 220.809 698.435 220.448 697.867C220.086 697.3 219.66 696.894 219.168 696.65C218.688 696.402 218.153 696.358 217.566 696.519C216.989 696.676 216.552 696.99 216.256 697.461C215.968 697.919 215.812 698.483 215.789 699.156C215.766 699.828 215.862 700.559 216.077 701.349C216.299 702.161 216.593 702.862 216.96 703.45C217.328 704.039 217.76 704.466 218.257 704.732C218.751 704.987 219.282 705.038 219.848 704.883ZM225.714 706.245L226.241 691.707L228.004 691.226L227.476 705.764L225.714 706.245ZM234.657 702.548L232.012 692.853L232.369 692.962C232.306 693.324 232.154 693.692 231.913 694.068C231.668 694.433 231.36 694.776 230.988 695.095C230.616 695.415 230.196 695.684 229.728 695.904L229.181 693.901C229.591 693.72 229.986 693.463 230.365 693.13C230.745 692.797 231.072 692.438 231.346 692.053C231.617 691.658 231.783 691.28 231.845 690.918L233.544 690.455L236.692 701.993L234.657 702.548ZM240.822 700.866L238.177 691.171L238.534 691.28C238.472 691.641 238.32 692.01 238.078 692.386C237.834 692.751 237.525 693.094 237.153 693.413C236.781 693.733 236.361 694.002 235.893 694.222L235.347 692.219C235.757 692.038 236.151 691.781 236.531 691.448C236.911 691.115 237.238 690.756 237.511 690.371C237.782 689.976 237.949 689.598 238.011 689.236L239.71 688.773L242.857 700.311L240.822 700.866ZM244.179 701.207L244.707 686.669L246.47 686.188L245.942 700.726L244.179 701.207ZM250.227 698.3L249.776 696.65C250.621 695.455 251.318 694.433 251.867 693.583C252.423 692.719 252.852 691.977 253.153 691.355C253.454 690.734 253.638 690.19 253.706 689.724C253.782 689.244 253.765 688.801 253.654 688.395C253.508 687.861 253.245 687.485 252.864 687.267C252.483 687.05 252.026 687.014 251.492 687.16C250.936 687.311 250.527 687.601 250.265 688.028C250 688.445 249.91 688.957 249.996 689.565L247.881 690.142C247.704 689.031 247.903 688.058 248.479 687.224C249.055 686.39 249.941 685.809 251.138 685.483C252.323 685.16 253.337 685.216 254.179 685.652C255.029 686.074 255.603 686.83 255.9 687.92C256.049 688.465 256.097 689.02 256.045 689.585C256 690.137 255.834 690.75 255.548 691.425C255.269 692.086 254.857 692.847 254.311 693.708C253.773 694.555 253.078 695.542 252.227 696.67L251.555 696.164L257.901 694.433L258.351 696.084L250.227 698.3ZM263.58 694.829C262.725 695.063 261.938 695.122 261.218 695.009C260.498 694.895 259.888 694.637 259.388 694.234C258.896 693.817 258.559 693.278 258.379 692.615C258.221 692.039 258.208 691.486 258.339 690.956C258.47 690.427 258.72 689.974 259.088 689.598C259.464 689.209 259.94 688.935 260.517 688.778L260.785 689.067C260.208 689.224 259.677 689.254 259.191 689.157C258.703 689.049 258.292 688.828 257.96 688.494C257.625 688.149 257.386 687.715 257.243 687.192C257.071 686.562 257.081 685.968 257.274 685.41C257.477 684.85 257.837 684.361 258.355 683.945C258.88 683.514 259.538 683.191 260.328 682.976C261.13 682.757 261.861 682.701 262.521 682.808C263.178 682.904 263.732 683.143 264.18 683.526C264.64 683.906 264.954 684.405 265.123 685.025C265.269 685.559 265.285 686.06 265.171 686.527C265.055 686.983 264.813 687.382 264.447 687.723C264.078 688.053 263.6 688.299 263.012 688.459L263.113 688.07C263.69 687.912 264.234 687.908 264.744 688.055C265.263 688.189 265.713 688.451 266.095 688.84C266.477 689.23 266.746 689.713 266.904 690.29C267.084 690.952 267.068 691.588 266.856 692.197C266.643 692.806 266.256 693.342 265.693 693.805C265.139 694.255 264.434 694.596 263.58 694.829ZM263.113 693.183C263.754 693.008 264.206 692.707 264.468 692.28C264.738 691.839 264.793 691.325 264.633 690.737C264.472 690.15 264.16 689.741 263.696 689.512C263.242 689.28 262.706 689.248 262.086 689.417C261.456 689.589 261.004 689.891 260.731 690.321C260.458 690.751 260.402 691.26 260.562 691.848C260.725 692.446 261.034 692.861 261.487 693.093C261.941 693.325 262.483 693.355 263.113 693.183ZM261.671 687.895C262.194 687.752 262.577 687.493 262.818 687.117C263.057 686.731 263.108 686.286 262.971 685.784C262.831 685.271 262.557 684.916 262.147 684.718C261.748 684.517 261.286 684.488 260.763 684.631C260.25 684.77 259.874 685.034 259.635 685.42C259.393 685.796 259.341 686.235 259.478 686.737C259.615 687.239 259.885 687.596 260.287 687.808C260.696 688.006 261.158 688.035 261.671 687.895Z" fill="url(#paint5_linear_135_1911)"/>
</g>
<g id="Ellipse 1" opacity="0.2" filter="url(#filter1_f_135_1911)">
<circle cx="114.196" cy="454.221" r="107.966" transform="rotate(-15.2598 114.196 454.221)" fill="url(#paint6_linear_135_1911)"/>
</g>
</g>
<rect x="-2.00519" y="195.921" width="400.721" height="586.547" rx="20.2437" transform="rotate(-15.2598 -2.00519 195.921)" stroke="url(#paint7_linear_135_1911)" stroke-width="1.03814"/>
</g>
</g>
<defs>
<filter id="filter0_f_135_1911" x="-201.864" y="30.548" width="1004.98" height="1004.98" filterUnits="userSpaceOnUse" color-interpolation-filters="sRGB">
<feFlood flood-opacity="0" result="BackgroundImageFix"/>
<feBlend mode="normal" in="SourceGraphic" in2="BackgroundImageFix" result="shape"/>
<feGaussianBlur stdDeviation="155.72" result="effect1_foregroundBlur_135_1911"/>
</filter>
<filter id="filter1_f_135_1911" x="-201.424" y="138.601" width="631.241" height="631.241" filterUnits="userSpaceOnUse" color-interpolation-filters="sRGB">
<feFlood flood-opacity="0" result="BackgroundImageFix"/>
<feBlend mode="normal" in="SourceGraphic" in2="BackgroundImageFix" result="shape"/>
<feGaussianBlur stdDeviation="103.814" result="effect1_foregroundBlur_135_1911"/>
</filter>
<linearGradient id="paint0_linear_135_1911" x1="300.626" y1="495.765" x2="300.626" y2="724.054" gradientUnits="userSpaceOnUse">
<stop stop-color="#FDFDFD"/>
<stop offset="1" stop-color="#5C5C5C"/>
</linearGradient>
<linearGradient id="paint1_linear_135_1911" x1="322.284" y1="697.045" x2="322.284" y2="766.524" gradientUnits="userSpaceOnUse">
<stop stop-color="#FDFDFD"/>
<stop offset="1" stop-color="#5C5C5C"/>
</linearGradient>
<linearGradient id="paint2_linear_135_1911" x1="158.189" y1="209.673" x2="164.638" y2="233.309" gradientUnits="userSpaceOnUse">
<stop stop-color="#FDFDFD"/>
<stop offset="1" stop-color="#5C5C5C"/>
</linearGradient>
<linearGradient id="paint3_linear_135_1911" x1="342.603" y1="163.508" x2="358.164" y2="159.263" gradientUnits="userSpaceOnUse">
<stop stop-color="#FDFDFD"/>
<stop offset="1" stop-color="#5C5C5C"/>
</linearGradient>
<linearGradient id="paint4_linear_135_1911" x1="250.141" y1="656.7" x2="254.86" y2="673.995" gradientUnits="userSpaceOnUse">
<stop stop-color="#FDFDFD"/>
<stop offset="1" stop-color="#5C5C5C"/>
</linearGradient>
<linearGradient id="paint5_linear_135_1911" x1="220.992" y1="698.034" x2="224.138" y2="709.564" gradientUnits="userSpaceOnUse">
<stop stop-color="#FDFDFD"/>
<stop offset="1" stop-color="#5C5C5C"/>
</linearGradient>
<linearGradient id="paint6_linear_135_1911" x1="114.196" y1="433.155" x2="114.196" y2="562.188" gradientUnits="userSpaceOnUse">
<stop stop-color="#FDFDFD"/>
<stop offset="1" stop-color="#5C5C5C"/>
</linearGradient>
<linearGradient id="paint7_linear_135_1911" x1="198.237" y1="432.024" x2="198.237" y2="783.142" gradientUnits="userSpaceOnUse">
<stop stop-color="#FDFDFD"/>
<stop offset="1" stop-color="#5C5C5C"/>
</linearGradient>
<clipPath id="clip0_135_1911">
<rect x="-2.64258" y="195.557" width="401.759" height="587.585" rx="20.7627" transform="rotate(-15.2598 -2.64258 195.557)" fill="white"/>
</clipPath>
<clipPath id="clip1_135_1911">
<rect width="34" height="34" fill="white" transform="translate(43.8438 227.313) rotate(-15)"/>
</clipPath>
</defs>
</svg>
